<svg xmlns="http://www.w3.org/2000/svg" id="sprotty_dependencies$project:sm4_cir" class="sprotty-graph sprotty-dependencies-diagram dependencies" style="font-family:&quot;Noto Sans&quot;, Helvetica, Arial, sans-serif;-webkit-locale:&quot;en&quot;;perspective-origin:0px 0px;transform-origin:0px 0px;" version="1.1" viewBox="7 7 589.078125 266.0625" width="589.078125" height="266.0625"><g transform="scale(1) translate(0,0)"><g id="sprotty_dependencies$project:sm4_cir/FileNodeImpl$one_round_for_encdec.v" class="file" transform="translate(394, 86.015625)"><rect x="0" y="0" width="197.078125" height="44.015625" class="sprotty-node" style="fill:rgb(255, 255, 255);stroke:rgb(48, 48, 48);"/><text class="clickable sprotty-label file" id="sprotty_dependencies$project:sm4_cir/FileNodeImpl$one_round_for_encdec.v/label" transform="translate(5, 10) translate(93.375, 18.671875)" style="cursor:default;perspective-origin:0.104167px 0px;fill:rgb(48, 48, 48);text-anchor:middle;">one_round_for_encdec.v</text></g><g id="sprotty_dependencies$project:sm4_cir/FileNodeImpl$one_round_for_key_exp.v" class="file" transform="translate(139, 86.015625)"><rect x="0" y="0" width="204.9375" height="44.015625" class="sprotty-node" style="fill:rgb(255, 255, 255);stroke:rgb(48, 48, 48);"/><text class="clickable sprotty-label file" id="sprotty_dependencies$project:sm4_cir/FileNodeImpl$one_round_for_key_exp.v/label" transform="translate(5, 10) translate(97.296875, 18.671875)" style="cursor:default;perspective-origin:0.114583px 0px;fill:rgb(48, 48, 48);text-anchor:middle;">one_round_for_key_exp.v</text></g><g id="sprotty_dependencies$project:sm4_cir/FileNodeImpl$get_cki.v" class="file" transform="translate(12, 86.015625)"><rect x="0" y="0" width="76.328125" height="44.015625" class="sprotty-node" style="fill:rgb(255, 255, 255);stroke:rgb(48, 48, 48);"/><text class="clickable sprotty-label file" id="sprotty_dependencies$project:sm4_cir/FileNodeImpl$get_cki.v/label" transform="translate(5, 10) translate(33, 18.671875)" style="cursor:default;perspective-origin:0.104167px 0px;fill:rgb(48, 48, 48);text-anchor:middle;">get_cki.v</text></g><g id="sprotty_dependencies$project:sm4_cir/FileNodeImpl$transform_for_encdec.v" class="file" transform="translate(398, 150.03125)"><rect x="0" y="0" width="189.171875" height="44.015625" class="sprotty-node" style="fill:rgb(255, 255, 255);stroke:rgb(48, 48, 48);"/><text class="clickable sprotty-label file" id="sprotty_dependencies$project:sm4_cir/FileNodeImpl$transform_for_encdec.v/label" transform="translate(5, 10) translate(89.75, 18.671875)" style="cursor:default;perspective-origin:-0.104167px 0px;fill:rgb(48, 48, 48);text-anchor:middle;">transform_for_encdec.v</text></g><g id="sprotty_dependencies$project:sm4_cir/FileNodeImpl$cir_top.v" class="file" transform="translate(203, 12)"><rect x="0" y="0" width="75.453125" height="44.015625" class="sprotty-node" style="fill:rgb(255, 255, 255);stroke:rgb(48, 48, 48);"/><text class="clickable sprotty-label file" id="sprotty_dependencies$project:sm4_cir/FileNodeImpl$cir_top.v/label" transform="translate(5, 10) translate(32.5625, 18.671875)" style="cursor:default;perspective-origin:0.104167px 0px;fill:rgb(48, 48, 48);text-anchor:middle;">cir_top.v</text></g><g id="sprotty_dependencies$project:sm4_cir/FileNodeImpl$sbox_replace.v" class="file" transform="translate(185, 224.046875)"><rect x="0" y="0" width="121.234375" height="44.015625" class="sprotty-node" style="fill:rgb(255, 255, 255);stroke:rgb(48, 48, 48);"/><text class="clickable sprotty-label file" id="sprotty_dependencies$project:sm4_cir/FileNodeImpl$sbox_replace.v/label" transform="translate(5, 10) translate(55.453125, 18.671875)" style="cursor:default;perspective-origin:0.104167px 0px;fill:rgb(48, 48, 48);text-anchor:middle;">sbox_replace.v</text></g><g id="sprotty_dependencies$project:sm4_cir/FileNodeImpl$transform_for_key_exp.v" class="file" transform="translate(142, 150.03125)"><rect x="0" y="0" width="197.03125" height="44.015625" class="sprotty-node" style="fill:rgb(255, 255, 255);stroke:rgb(48, 48, 48);"/><text class="clickable sprotty-label file" id="sprotty_dependencies$project:sm4_cir/FileNodeImpl$transform_for_key_exp.v/label" transform="translate(5, 10) translate(93.6875, 18.671875)" style="cursor:default;perspective-origin:-0.114583px 0px;fill:rgb(48, 48, 48);text-anchor:middle;">transform_for_key_exp.v</text></g><g id="sprotty_dependencies$project:sm4_cir/FileNodeImpl$one_round_for_encdec.v_to_dependencies$project:sm4_cir/FileNodeImpl$transform_for_encdec.v" class="sprotty-edge dependency" style="fill:none;stroke:rgb(48, 48, 48);stroke-linejoin:round;"><g><path d=" M493,130.03125 L493,150.03125"/><path d=" M493,130.03125 L493,150.03125" class="clickable" style="cursor:default;"/></g><path d="M 493,150.03125 L 500,147.53125 L 500,152.53125 Z" transform="rotate(-90 493 150.03125)" class="arrow" style="fill:rgb(48, 48, 48);stroke-linejoin:miter;stroke-miterlimit:2;"/></g><g id="sprotty_dependencies$project:sm4_cir/FileNodeImpl$one_round_for_key_exp.v_to_dependencies$project:sm4_cir/FileNodeImpl$transform_for_key_exp.v" class="sprotty-edge dependency" style="fill:none;stroke:rgb(48, 48, 48);stroke-linejoin:round;"><g><path d=" M241,130.03125 L241,150.03125"/><path d=" M241,130.03125 L241,150.03125" class="clickable" style="cursor:default;"/></g><path d="M 241,150.03125 L 248,147.53125 L 248,152.53125 Z" transform="rotate(-90 241 150.03125)" class="arrow" style="fill:rgb(48, 48, 48);stroke-linejoin:miter;stroke-miterlimit:2;"/></g><g id="sprotty_dependencies$project:sm4_cir/FileNodeImpl$transform_for_encdec.v_to_dependencies$project:sm4_cir/FileNodeImpl$sbox_replace.v" class="sprotty-edge dependency" style="fill:none;stroke:rgb(48, 48, 48);stroke-linejoin:round;"><g><path d=" M493,194.046875 L493,209.046875 L251,209.046875 L251,224.046875"/><path d=" M493,194.046875 L493,209.046875 L251,209.046875 L251,224.046875" class="clickable" style="cursor:default;"/></g><path d="M 251,224.046875 L 258,221.546875 L 258,226.546875 Z" transform="rotate(-90 251 224.046875)" class="arrow" style="fill:rgb(48, 48, 48);stroke-linejoin:miter;stroke-miterlimit:2;"/></g><g id="sprotty_dependencies$project:sm4_cir/FileNodeImpl$cir_top.v_to_dependencies$project:sm4_cir/FileNodeImpl$one_round_for_encdec.v" class="sprotty-edge dependency" style="fill:none;stroke:rgb(48, 48, 48);stroke-linejoin:round;"><g><path d=" M251,56.015625 L251,71.015625 L493,71.015625 L493,86.015625"/><path d=" M251,56.015625 L251,71.015625 L493,71.015625 L493,86.015625" class="clickable" style="cursor:default;"/></g><path d="M 493,86.015625 L 500,83.515625 L 500,88.515625 Z" transform="rotate(-90 493 86.015625)" class="arrow" style="fill:rgb(48, 48, 48);stroke-linejoin:miter;stroke-miterlimit:2;"/></g><g id="sprotty_dependencies$project:sm4_cir/FileNodeImpl$cir_top.v_to_dependencies$project:sm4_cir/FileNodeImpl$one_round_for_key_exp.v" class="sprotty-edge dependency" style="fill:none;stroke:rgb(48, 48, 48);stroke-linejoin:round;"><g><path d=" M241,56.015625 L241,86.015625"/><path d=" M241,56.015625 L241,86.015625" class="clickable" style="cursor:default;"/></g><path d="M 241,86.015625 L 248,83.515625 L 248,88.515625 Z" transform="rotate(-90 241 86.015625)" class="arrow" style="fill:rgb(48, 48, 48);stroke-linejoin:miter;stroke-miterlimit:2;"/></g><g id="sprotty_dependencies$project:sm4_cir/FileNodeImpl$cir_top.v_to_dependencies$project:sm4_cir/FileNodeImpl$get_cki.v" class="sprotty-edge dependency" style="fill:none;stroke:rgb(48, 48, 48);stroke-linejoin:round;"><g><path d=" M231,56.015625 L231,71.015625 L50,71.015625 L50,86.015625"/><path d=" M231,56.015625 L231,71.015625 L50,71.015625 L50,86.015625" class="clickable" style="cursor:default;"/></g><path d="M 50,86.015625 L 57,83.515625 L 57,88.515625 Z" transform="rotate(-90 50 86.015625)" class="arrow" style="fill:rgb(48, 48, 48);stroke-linejoin:miter;stroke-miterlimit:2;"/></g><g id="sprotty_dependencies$project:sm4_cir/FileNodeImpl$transform_for_key_exp.v_to_dependencies$project:sm4_cir/FileNodeImpl$sbox_replace.v" class="sprotty-edge dependency" style="fill:none;stroke:rgb(48, 48, 48);stroke-linejoin:round;"><g><path d=" M241,194.046875 L241,224.046875"/><path d=" M241,194.046875 L241,224.046875" class="clickable" style="cursor:default;"/></g><path d="M 241,224.046875 L 248,221.546875 L 248,226.546875 Z" transform="rotate(-90 241 224.046875)" class="arrow" style="fill:rgb(48, 48, 48);stroke-linejoin:miter;stroke-miterlimit:2;"/></g></g></svg>