<svg xmlns="http://www.w3.org/2000/svg" id="sprotty_work.one_round_for_encdec" class="sprotty-graph sprotty-block-diagram blockdiagram" style="font-family:&quot;Noto Sans&quot;, Helvetica, Arial, sans-serif;-webkit-locale:&quot;en&quot;;perspective-origin:0px 0px;transform-origin:0px 0px;" version="1.1" viewBox="7 7 715.234375 259.046875" width="715.234375" height="259.046875"><g transform="scale(1) translate(0,0)"><g id="sprotty_ArchitectureBlockImpl$one_round_for_encdec" class="architecture" transform="translate(12, 12)"><g class="sprotty-block" style="fill:rgb(255, 255, 255);stroke:rgb(48, 48, 48);stroke-dasharray:0px;"><rect x="0" y="0" rx="1" ry="1" width="705.234375" height="249.046875"/><text x="352.6171875" y="12" class="sprotty-block-name" style="cursor:pointer;font-weight:700;perspective-origin:235.156px 0px;fill:rgb(48, 48, 48);stroke:rgba(0, 0, 0, 0);dominant-baseline:middle;text-anchor:middle;">one_round_for_encdec</text><line x1="0" y1="20" x2="705.234375" y2="20"/></g><g id="sprotty_ArchitectureBlockImpl$one_round_for_encdec/AssignmentBlockImpl$result_out/GPortImpl$result_outOUT_to_ArchitectureBlockImpl$one_round_for_encdec/BPortImpl$result_out" class="sprotty-edge thick edge" style="fill:none;stroke:rgb(112, 112, 112);stroke-linejoin:round;stroke-width:3px;"><g><path d="M 625.609375 204.046875 L 705.234375 204.046875 "/><path d="M 625.609375 204.046875 L 705.234375 204.046875 " class="clickable"/></g></g><g id="sprotty_ArchitectureBlockImpl$one_round_for_encdec/BPortImpl$data_in_to_ArchitectureBlockImpl$one_round_for_encdec/AssignmentBlockImpl$word_0/GPortImpl$data_inIN" class="sprotty-edge thick edge" style="fill:none;stroke:rgb(112, 112, 112);stroke-linejoin:round;stroke-width:3px;"><g><path d="M 0 111.03125 L 106.25 111.03125 C 107.25 111.03125 108.25 110.03125 108.25 109.03125 L 108.25 48.0078125 C 108.25 47.0078125 109.25 46.0078125 110.25 46.0078125 L 397.296875 46.0078125 "/><path d="M 0 111.03125 L 106.25 111.03125 C 107.25 111.03125 108.25 110.03125 108.25 109.03125 L 108.25 48.0078125 C 108.25 47.0078125 109.25 46.0078125 110.25 46.0078125 L 397.296875 46.0078125 " class="clickable"/></g><circle r="3" id="sprotty_ArchitectureBlockImpl$one_round_for_encdec/BPortImpl$data_in_to_ArchitectureBlockImpl$one_round_for_encdec/AssignmentBlockImpl$word_0/GPortImpl$data_inIN/junction0" transform="translate(108.25, 111.03125)" class="sprotty-junction thick" style="fill:rgb(112, 112, 112);stroke:none;"/></g><g id="sprotty_ArchitectureBlockImpl$one_round_for_encdec/BPortImpl$data_in_to_ArchitectureBlockImpl$one_round_for_encdec/AssignmentBlockImpl$word_1/GPortImpl$data_inIN" class="sprotty-edge thick edge" style="fill:none;stroke:rgb(112, 112, 112);stroke-linejoin:round;stroke-width:3px;"><g><path d="M 0 111.03125 L 106.25 111.03125 C 107.25 111.03125 108.25 110.03125 108.25 109.03125 L 108.25 71.015625 C 108.25 70.015625 109.25 69.015625 110.25 69.015625 L 118.25 69.015625 "/><path d="M 0 111.03125 L 106.25 111.03125 C 107.25 111.03125 108.25 110.03125 108.25 109.03125 L 108.25 71.015625 C 108.25 70.015625 109.25 69.015625 110.25 69.015625 L 118.25 69.015625 " class="clickable"/></g><circle r="3" id="sprotty_ArchitectureBlockImpl$one_round_for_encdec/BPortImpl$data_in_to_ArchitectureBlockImpl$one_round_for_encdec/AssignmentBlockImpl$word_1/GPortImpl$data_inIN/junction0" transform="translate(108.25, 69.015625)" class="sprotty-junction thick" style="fill:rgb(112, 112, 112);stroke:none;"/></g><g id="sprotty_ArchitectureBlockImpl$one_round_for_encdec/BPortImpl$data_in_to_ArchitectureBlockImpl$one_round_for_encdec/AssignmentBlockImpl$word_2/GPortImpl$data_inIN" class="sprotty-edge thick edge" style="fill:none;stroke:rgb(112, 112, 112);stroke-linejoin:round;stroke-width:3px;"><g><path d="M 0 111.03125 L 106.25 111.03125 C 107.25 111.03125 108.25 112.03125 108.25 113.03125 L 108.25 151.046875 C 108.25 152.046875 109.25 153.046875 110.25 153.046875 L 118.25 153.046875 "/><path d="M 0 111.03125 L 106.25 111.03125 C 107.25 111.03125 108.25 112.03125 108.25 113.03125 L 108.25 151.046875 C 108.25 152.046875 109.25 153.046875 110.25 153.046875 L 118.25 153.046875 " class="clickable"/></g></g><g id="sprotty_ArchitectureBlockImpl$one_round_for_encdec/BPortImpl$data_in_to_ArchitectureBlockImpl$one_round_for_encdec/AssignmentBlockImpl$word_3/GPortImpl$data_inIN" class="sprotty-edge thick edge" style="fill:none;stroke:rgb(112, 112, 112);stroke-linejoin:round;stroke-width:3px;"><g><path d="M 0 111.03125 L 118.25 111.03125 "/><path d="M 0 111.03125 L 118.25 111.03125 " class="clickable"/></g></g><g id="sprotty_ArchitectureBlockImpl$one_round_for_encdec/BPortImpl$round_key_in_to_ArchitectureBlockImpl$one_round_for_encdec/AssignmentBlockImpl$tmp_1/GPortImpl$round_key_inIN" class="sprotty-edge thick edge" style="fill:none;stroke:rgb(112, 112, 112);stroke-linejoin:round;stroke-width:3px;"><g><path d="M 0 203.046875 L 178.984375 203.046875 "/><path d="M 0 203.046875 L 178.984375 203.046875 " class="clickable"/></g></g><g id="sprotty_ArchitectureBlockImpl$one_round_for_encdec/AssignmentBlockImpl$word_0/GPortImpl$word_0OUT_to_ArchitectureBlockImpl$one_round_for_encdec/AssignmentBlockImpl$result_out/GPortImpl$word_0IN" class="sprotty-edge thick edge" style="fill:none;stroke:rgb(112, 112, 112);stroke-linejoin:round;stroke-width:3px;"><g><path d="M 418.03125 46.0078125 L 592.875 46.0078125 C 593.875 46.0078125 594.875 47.0078125 594.875 48.0078125 L 594.875 182.046875 C 594.875 183.046875 595.875 184.046875 596.875 184.046875 L 604.875 184.046875 "/><path d="M 418.03125 46.0078125 L 592.875 46.0078125 C 593.875 46.0078125 594.875 47.0078125 594.875 48.0078125 L 594.875 182.046875 C 594.875 183.046875 595.875 184.046875 596.875 184.046875 L 604.875 184.046875 " class="clickable"/></g></g><g id="sprotty_ArchitectureBlockImpl$one_round_for_encdec/AssignmentBlockImpl$word_1/GPortImpl$word_1OUT_to_ArchitectureBlockImpl$one_round_for_encdec/AssignmentBlockImpl$tmp_0/GPortImpl$word_1IN" class="sprotty-edge thick edge" style="fill:none;stroke:rgb(112, 112, 112);stroke-linejoin:round;stroke-width:3px;"><g><path d="M 138.984375 69.015625 L 166.984375 69.015625 C 167.984375 69.015625 168.984375 70.015625 168.984375 71.015625 L 168.984375 141.046875 C 168.984375 142.046875 169.984375 143.046875 170.984375 143.046875 L 178.984375 143.046875 "/><path d="M 138.984375 69.015625 L 166.984375 69.015625 C 167.984375 69.015625 168.984375 70.015625 168.984375 71.015625 L 168.984375 141.046875 C 168.984375 142.046875 169.984375 143.046875 170.984375 143.046875 L 178.984375 143.046875 " class="clickable"/></g><circle r="3" id="sprotty_ArchitectureBlockImpl$one_round_for_encdec/AssignmentBlockImpl$word_1/GPortImpl$word_1OUT_to_ArchitectureBlockImpl$one_round_for_encdec/AssignmentBlockImpl$tmp_0/GPortImpl$word_1IN/junction0" transform="translate(168.984375, 69.015625)" class="sprotty-junction thick" style="fill:rgb(112, 112, 112);stroke:none;"/></g><g id="sprotty_ArchitectureBlockImpl$one_round_for_encdec/AssignmentBlockImpl$word_1/GPortImpl$word_1OUT_to_ArchitectureBlockImpl$one_round_for_encdec/AssignmentBlockImpl$result_out/GPortImpl$word_1IN" class="sprotty-edge thick edge" style="fill:none;stroke:rgb(112, 112, 112);stroke-linejoin:round;stroke-width:3px;"><g><path d="M 138.984375 69.015625 L 582.875 69.015625 C 583.875 69.015625 584.875 70.015625 584.875 71.015625 L 584.875 192.046875 C 584.875 193.046875 585.875 194.046875 586.875 194.046875 L 604.875 194.046875 "/><path d="M 138.984375 69.015625 L 582.875 69.015625 C 583.875 69.015625 584.875 70.015625 584.875 71.015625 L 584.875 192.046875 C 584.875 193.046875 585.875 194.046875 586.875 194.046875 L 604.875 194.046875 " class="clickable"/></g></g><g id="sprotty_ArchitectureBlockImpl$one_round_for_encdec/AssignmentBlockImpl$word_2/GPortImpl$word_2OUT_to_ArchitectureBlockImpl$one_round_for_encdec/AssignmentBlockImpl$tmp_0/GPortImpl$word_2IN" class="sprotty-edge thick edge" style="fill:none;stroke:rgb(112, 112, 112);stroke-linejoin:round;stroke-width:3px;"><g><path d="M 138.984375 153.046875 L 178.984375 153.046875 "/><path d="M 138.984375 153.046875 L 178.984375 153.046875 " class="clickable"/></g></g><g id="sprotty_ArchitectureBlockImpl$one_round_for_encdec/AssignmentBlockImpl$word_2/GPortImpl$word_2OUT_to_ArchitectureBlockImpl$one_round_for_encdec/AssignmentBlockImpl$result_out/GPortImpl$word_2IN" class="sprotty-edge thick edge" style="fill:none;stroke:rgb(112, 112, 112);stroke-linejoin:round;stroke-width:3px;"><g><path d="M 138.984375 153.046875 L 146.984375 153.046875 C 147.984375 153.046875 148.984375 154.046875 148.984375 155.046875 L 148.984375 222.046875 C 148.984375 223.046875 149.984375 224.046875 150.984375 224.046875 L 604.875 224.046875 "/><path d="M 138.984375 153.046875 L 146.984375 153.046875 C 147.984375 153.046875 148.984375 154.046875 148.984375 155.046875 L 148.984375 222.046875 C 148.984375 223.046875 149.984375 224.046875 150.984375 224.046875 L 604.875 224.046875 " class="clickable"/></g><circle r="3" id="sprotty_ArchitectureBlockImpl$one_round_for_encdec/AssignmentBlockImpl$word_2/GPortImpl$word_2OUT_to_ArchitectureBlockImpl$one_round_for_encdec/AssignmentBlockImpl$result_out/GPortImpl$word_2IN/junction0" transform="translate(148.984375, 153.046875)" class="sprotty-junction thick" style="fill:rgb(112, 112, 112);stroke:none;"/></g><g id="sprotty_ArchitectureBlockImpl$one_round_for_encdec/AssignmentBlockImpl$word_3/GPortImpl$word_3OUT_to_ArchitectureBlockImpl$one_round_for_encdec/AssignmentBlockImpl$tmp_1/GPortImpl$word_3IN" class="sprotty-edge thick edge" style="fill:none;stroke:rgb(112, 112, 112);stroke-linejoin:round;stroke-width:3px;"><g><path d="M 138.984375 111.03125 L 156.984375 111.03125 C 157.984375 111.03125 158.984375 112.03125 158.984375 113.03125 L 158.984375 191.046875 C 158.984375 192.046875 159.984375 193.046875 160.984375 193.046875 L 178.984375 193.046875 "/><path d="M 138.984375 111.03125 L 156.984375 111.03125 C 157.984375 111.03125 158.984375 112.03125 158.984375 113.03125 L 158.984375 191.046875 C 158.984375 192.046875 159.984375 193.046875 160.984375 193.046875 L 178.984375 193.046875 " class="clickable"/></g><circle r="3" id="sprotty_ArchitectureBlockImpl$one_round_for_encdec/AssignmentBlockImpl$word_3/GPortImpl$word_3OUT_to_ArchitectureBlockImpl$one_round_for_encdec/AssignmentBlockImpl$tmp_1/GPortImpl$word_3IN/junction0" transform="translate(158.984375, 111.03125)" class="sprotty-junction thick" style="fill:rgb(112, 112, 112);stroke:none;"/></g><g id="sprotty_ArchitectureBlockImpl$one_round_for_encdec/AssignmentBlockImpl$word_3/GPortImpl$word_3OUT_to_ArchitectureBlockImpl$one_round_for_encdec/AssignmentBlockImpl$result_out/GPortImpl$word_3IN" class="sprotty-edge thick edge" style="fill:none;stroke:rgb(112, 112, 112);stroke-linejoin:round;stroke-width:3px;"><g><path d="M 138.984375 111.03125 L 572.875 111.03125 C 573.875 111.03125 574.875 112.03125 574.875 113.03125 L 574.875 202.046875 C 574.875 203.046875 575.875 204.046875 576.875 204.046875 L 604.875 204.046875 "/><path d="M 138.984375 111.03125 L 572.875 111.03125 C 573.875 111.03125 574.875 112.03125 574.875 113.03125 L 574.875 202.046875 C 574.875 203.046875 575.875 204.046875 576.875 204.046875 L 604.875 204.046875 " class="clickable"/></g></g><g id="sprotty_ArchitectureBlockImpl$one_round_for_encdec/AssignmentBlockImpl$tmp_0/GPortImpl$word_2OUT_to_ArchitectureBlockImpl$one_round_for_encdec/AssignmentBlockImpl$data_for_transform/GPortImpl$tmp_0IN" class="sprotty-edge thick edge" style="fill:none;stroke:rgb(112, 112, 112);stroke-linejoin:round;stroke-width:3px;"><g><path d="M 199.71875 148.046875 L 207.71875 148.046875 C 208.71875 148.046875 209.71875 149.046875 209.71875 150.046875 L 209.71875 186.046875 C 209.71875 187.046875 210.71875 188.046875 211.71875 188.046875 L 219.71875 188.046875 "/><path d="M 199.71875 148.046875 L 207.71875 148.046875 C 208.71875 148.046875 209.71875 149.046875 209.71875 150.046875 L 209.71875 186.046875 C 209.71875 187.046875 210.71875 188.046875 211.71875 188.046875 L 219.71875 188.046875 " class="clickable"/></g></g><g id="sprotty_ArchitectureBlockImpl$one_round_for_encdec/AssignmentBlockImpl$tmp_1/GPortImpl$tmp_1OUT_to_ArchitectureBlockImpl$one_round_for_encdec/AssignmentBlockImpl$data_for_transform/GPortImpl$tmp_1IN" class="sprotty-edge thick edge" style="fill:none;stroke:rgb(112, 112, 112);stroke-linejoin:round;stroke-width:3px;"><g><path d="M 199.71875 198.046875 L 219.71875 198.046875 "/><path d="M 199.71875 198.046875 L 219.71875 198.046875 " class="clickable"/></g></g><g id="sprotty_ArchitectureBlockImpl$one_round_for_encdec/AssignmentBlockImpl$data_for_transform/GPortImpl$tmp_1OUT_to_ArchitectureBlockImpl$one_round_for_encdec/InstantiationBlockImpl$u_transform/BPortImpl$data_in" class="sprotty-edge thick edge" style="fill:none;stroke:rgb(112, 112, 112);stroke-linejoin:round;stroke-width:3px;"><g><path d="M 240.453125 193.046875 L 260.453125 193.046875 "/><path d="M 240.453125 193.046875 L 260.453125 193.046875 " class="clickable"/></g></g><g id="sprotty_ArchitectureBlockImpl$one_round_for_encdec/InstantiationBlockImpl$u_transform/BPortImpl$result_out_to_ArchitectureBlockImpl$one_round_for_encdec/AssignmentBlockImpl$result_out/GPortImpl$data_after_transformIN" class="sprotty-edge thick edge" style="fill:none;stroke:rgb(112, 112, 112);stroke-linejoin:round;stroke-width:3px;"><g><path d="M 554.875 193.046875 L 562.875 193.046875 C 563.875 193.046875 564.875 194.046875 564.875 195.046875 L 564.875 212.046875 C 564.875 213.046875 565.875 214.046875 566.875 214.046875 L 604.875 214.046875 "/><path d="M 554.875 193.046875 L 562.875 193.046875 C 563.875 193.046875 564.875 194.046875 564.875 195.046875 L 564.875 212.046875 C 564.875 213.046875 565.875 214.046875 566.875 214.046875 L 604.875 214.046875 " class="clickable"/></g></g><g id="sprotty_ArchitectureBlockImpl$one_round_for_encdec/AssignmentBlockImpl$result_out" class="statement" transform="translate(604.875, 174.046875)"><rect x="0" y="0" rx="10" ry="5" width="20.734375" height="60" class="sprotty-node" style="fill:rgb(245, 245, 245);stroke:rgb(112, 112, 112);"/><text class="clickable sprotty-label statementtype" id="sprotty_ArchitectureBlockImpl$one_round_for_encdec/AssignmentBlockImpl$result_out/labeltype" transform="translate(5, 23.9921875) translate(5.390625, 9.34375)" style="cursor:default;font-size:8px;font-weight:700;perspective-origin:-0.0104167px 0px;fill:rgb(112, 112, 112);text-anchor:middle;">&lt;=</text><g id="sprotty_ArchitectureBlockImpl$one_round_for_encdec/AssignmentBlockImpl$result_out/GPortImpl$word_0IN" class="sprotty-hidden hidden" transform="translate(0, 10)" style="display:block;height:0px;width:0px;"/><g id="sprotty_ArchitectureBlockImpl$one_round_for_encdec/AssignmentBlockImpl$result_out/GPortImpl$data_after_transformIN" class="sprotty-hidden hidden" transform="translate(0, 40)" style="display:block;height:0px;width:0px;"/><g id="sprotty_ArchitectureBlockImpl$one_round_for_encdec/AssignmentBlockImpl$result_out/GPortImpl$word_3IN" class="sprotty-hidden hidden" transform="translate(0, 30)" style="display:block;height:0px;width:0px;"/><g id="sprotty_ArchitectureBlockImpl$one_round_for_encdec/AssignmentBlockImpl$result_out/GPortImpl$word_2IN" class="sprotty-hidden hidden" transform="translate(0, 50)" style="display:block;height:0px;width:0px;"/><g id="sprotty_ArchitectureBlockImpl$one_round_for_encdec/AssignmentBlockImpl$result_out/GPortImpl$word_1IN" class="sprotty-hidden hidden" transform="translate(0, 20)" style="display:block;height:0px;width:0px;"/><g id="sprotty_ArchitectureBlockImpl$one_round_for_encdec/AssignmentBlockImpl$result_out/GPortImpl$result_outOUT" class="sprotty-hidden hidden" transform="translate(20.734375, 30)" style="display:block;height:0px;width:0px;"/></g><g id="sprotty_ArchitectureBlockImpl$one_round_for_encdec/AssignmentBlockImpl$data_for_transform" class="statement" transform="translate(219.71875, 178.046875)"><rect x="0" y="0" rx="10" ry="5" width="20.734375" height="30" class="sprotty-node" style="fill:rgb(245, 245, 245);stroke:rgb(112, 112, 112);"/><text class="clickable sprotty-label statementtype" id="sprotty_ArchitectureBlockImpl$one_round_for_encdec/AssignmentBlockImpl$data_for_transform/labeltype" transform="translate(5, 8.9921875) translate(5.390625, 9.34375)" style="cursor:default;font-size:8px;font-weight:700;perspective-origin:-0.0104167px 0px;fill:rgb(112, 112, 112);text-anchor:middle;">&lt;=</text><g id="sprotty_ArchitectureBlockImpl$one_round_for_encdec/AssignmentBlockImpl$data_for_transform/GPortImpl$tmp_1IN" class="sprotty-hidden hidden" transform="translate(0, 20)" style="display:block;height:0px;width:0px;"/><g id="sprotty_ArchitectureBlockImpl$one_round_for_encdec/AssignmentBlockImpl$data_for_transform/GPortImpl$tmp_0IN" class="sprotty-hidden hidden" transform="translate(0, 10)" style="display:block;height:0px;width:0px;"/><g id="sprotty_ArchitectureBlockImpl$one_round_for_encdec/AssignmentBlockImpl$data_for_transform/GPortImpl$tmp_1OUT" class="sprotty-hidden hidden" transform="translate(20.734375, 15)" style="display:block;height:0px;width:0px;"/></g><g id="sprotty_ArchitectureBlockImpl$one_round_for_encdec/AssignmentBlockImpl$tmp_1" class="statement" transform="translate(178.984375, 183.046875)"><rect x="0" y="0" rx="10" ry="5" width="20.734375" height="30" class="sprotty-node" style="fill:rgb(245, 245, 245);stroke:rgb(112, 112, 112);"/><text class="clickable sprotty-label statementtype" id="sprotty_ArchitectureBlockImpl$one_round_for_encdec/AssignmentBlockImpl$tmp_1/labeltype" transform="translate(5, 8.9921875) translate(5.390625, 9.34375)" style="cursor:default;font-size:8px;font-weight:700;perspective-origin:-0.0104167px 0px;fill:rgb(112, 112, 112);text-anchor:middle;">&lt;=</text><g id="sprotty_ArchitectureBlockImpl$one_round_for_encdec/AssignmentBlockImpl$tmp_1/GPortImpl$round_key_inIN" class="sprotty-hidden hidden" transform="translate(0, 20)" style="display:block;height:0px;width:0px;"/><g id="sprotty_ArchitectureBlockImpl$one_round_for_encdec/AssignmentBlockImpl$tmp_1/GPortImpl$word_3IN" class="sprotty-hidden hidden" transform="translate(0, 10)" style="display:block;height:0px;width:0px;"/><g id="sprotty_ArchitectureBlockImpl$one_round_for_encdec/AssignmentBlockImpl$tmp_1/GPortImpl$tmp_1OUT" class="sprotty-hidden hidden" transform="translate(20.734375, 15)" style="display:block;height:0px;width:0px;"/></g><g id="sprotty_ArchitectureBlockImpl$one_round_for_encdec/AssignmentBlockImpl$tmp_0" class="statement" transform="translate(178.984375, 133.046875)"><rect x="0" y="0" rx="10" ry="5" width="20.734375" height="30" class="sprotty-node" style="fill:rgb(245, 245, 245);stroke:rgb(112, 112, 112);"/><text class="clickable sprotty-label statementtype" id="sprotty_ArchitectureBlockImpl$one_round_for_encdec/AssignmentBlockImpl$tmp_0/labeltype" transform="translate(5, 8.9921875) translate(5.390625, 9.34375)" style="cursor:default;font-size:8px;font-weight:700;perspective-origin:-0.0104167px 0px;fill:rgb(112, 112, 112);text-anchor:middle;">&lt;=</text><g id="sprotty_ArchitectureBlockImpl$one_round_for_encdec/AssignmentBlockImpl$tmp_0/GPortImpl$word_2IN" class="sprotty-hidden hidden" transform="translate(0, 20)" style="display:block;height:0px;width:0px;"/><g id="sprotty_ArchitectureBlockImpl$one_round_for_encdec/AssignmentBlockImpl$tmp_0/GPortImpl$word_1IN" class="sprotty-hidden hidden" transform="translate(0, 10)" style="display:block;height:0px;width:0px;"/><g id="sprotty_ArchitectureBlockImpl$one_round_for_encdec/AssignmentBlockImpl$tmp_0/GPortImpl$word_2OUT" class="sprotty-hidden hidden" transform="translate(20.734375, 15)" style="display:block;height:0px;width:0px;"/></g><g id="sprotty_ArchitectureBlockImpl$one_round_for_encdec/AssignmentBlockImpl$word_3" class="statement" transform="translate(118.25, 100.0234375)"><rect x="0" y="0" rx="10" ry="5" width="20.734375" height="22.015625" class="sprotty-node" style="fill:rgb(245, 245, 245);stroke:rgb(112, 112, 112);"/><text class="clickable sprotty-label statementtype" id="sprotty_ArchitectureBlockImpl$one_round_for_encdec/AssignmentBlockImpl$word_3/labeltype" transform="translate(5, 5) translate(5.390625, 9.34375)" style="cursor:default;font-size:8px;font-weight:700;perspective-origin:-0.0104167px 0px;fill:rgb(112, 112, 112);text-anchor:middle;">&lt;=</text><g id="sprotty_ArchitectureBlockImpl$one_round_for_encdec/AssignmentBlockImpl$word_3/GPortImpl$data_inIN" class="sprotty-hidden hidden" transform="translate(0, 11.0078125)" style="display:block;height:0px;width:0px;"/><g id="sprotty_ArchitectureBlockImpl$one_round_for_encdec/AssignmentBlockImpl$word_3/GPortImpl$word_3OUT" class="sprotty-hidden hidden" transform="translate(20.734375, 11.0078125)" style="display:block;height:0px;width:0px;"/></g><g id="sprotty_ArchitectureBlockImpl$one_round_for_encdec/AssignmentBlockImpl$word_2" class="statement" transform="translate(118.25, 142.0390625)"><rect x="0" y="0" rx="10" ry="5" width="20.734375" height="22.015625" class="sprotty-node" style="fill:rgb(245, 245, 245);stroke:rgb(112, 112, 112);"/><text class="clickable sprotty-label statementtype" id="sprotty_ArchitectureBlockImpl$one_round_for_encdec/AssignmentBlockImpl$word_2/labeltype" transform="translate(5, 5) translate(5.390625, 9.34375)" style="cursor:default;font-size:8px;font-weight:700;perspective-origin:-0.0104167px 0px;fill:rgb(112, 112, 112);text-anchor:middle;">&lt;=</text><g id="sprotty_ArchitectureBlockImpl$one_round_for_encdec/AssignmentBlockImpl$word_2/GPortImpl$data_inIN" class="sprotty-hidden hidden" transform="translate(0, 11.0078125)" style="display:block;height:0px;width:0px;"/><g id="sprotty_ArchitectureBlockImpl$one_round_for_encdec/AssignmentBlockImpl$word_2/GPortImpl$word_2OUT" class="sprotty-hidden hidden" transform="translate(20.734375, 11.0078125)" style="display:block;height:0px;width:0px;"/></g><g id="sprotty_ArchitectureBlockImpl$one_round_for_encdec/AssignmentBlockImpl$word_1" class="statement" transform="translate(118.25, 58.0078125)"><rect x="0" y="0" rx="10" ry="5" width="20.734375" height="22.015625" class="sprotty-node" style="fill:rgb(245, 245, 245);stroke:rgb(112, 112, 112);"/><text class="clickable sprotty-label statementtype" id="sprotty_ArchitectureBlockImpl$one_round_for_encdec/AssignmentBlockImpl$word_1/labeltype" transform="translate(5, 5) translate(5.390625, 9.34375)" style="cursor:default;font-size:8px;font-weight:700;perspective-origin:-0.0104167px 0px;fill:rgb(112, 112, 112);text-anchor:middle;">&lt;=</text><g id="sprotty_ArchitectureBlockImpl$one_round_for_encdec/AssignmentBlockImpl$word_1/GPortImpl$data_inIN" class="sprotty-hidden hidden" transform="translate(0, 11.0078125)" style="display:block;height:0px;width:0px;"/><g id="sprotty_ArchitectureBlockImpl$one_round_for_encdec/AssignmentBlockImpl$word_1/GPortImpl$word_1OUT" class="sprotty-hidden hidden" transform="translate(20.734375, 11.0078125)" style="display:block;height:0px;width:0px;"/></g><g id="sprotty_ArchitectureBlockImpl$one_round_for_encdec/AssignmentBlockImpl$word_0" class="statement" transform="translate(397.296875, 35)"><rect x="0" y="0" rx="10" ry="5" width="20.734375" height="22.015625" class="sprotty-node" style="fill:rgb(245, 245, 245);stroke:rgb(112, 112, 112);"/><text class="clickable sprotty-label statementtype" id="sprotty_ArchitectureBlockImpl$one_round_for_encdec/AssignmentBlockImpl$word_0/labeltype" transform="translate(5, 5) translate(5.390625, 9.34375)" style="cursor:default;font-size:8px;font-weight:700;perspective-origin:-0.0104167px 0px;fill:rgb(112, 112, 112);text-anchor:middle;">&lt;=</text><g id="sprotty_ArchitectureBlockImpl$one_round_for_encdec/AssignmentBlockImpl$word_0/GPortImpl$data_inIN" class="sprotty-hidden hidden" transform="translate(0, 11.0078125)" style="display:block;height:0px;width:0px;"/><g id="sprotty_ArchitectureBlockImpl$one_round_for_encdec/AssignmentBlockImpl$word_0/GPortImpl$word_0OUT" class="sprotty-hidden hidden" transform="translate(20.734375, 11.0078125)" style="display:block;height:0px;width:0px;"/></g><g id="sprotty_ArchitectureBlockImpl$one_round_for_encdec/InstantiationBlockImpl$u_transform" class="instantiation" transform="translate(260.453125, 155.046875)"><g class="sprotty-block" style="fill:rgb(255, 255, 255);stroke:rgb(48, 48, 48);stroke-dasharray:0px;"><rect x="0" y="0" rx="1" ry="1" width="294.421875" height="56"/><text x="147.2109375" y="12" class="sprotty-block-name" style="cursor:pointer;font-weight:700;perspective-origin:98.2188px 0px;fill:rgb(48, 48, 48);stroke:rgba(0, 0, 0, 0);dominant-baseline:middle;text-anchor:middle;">u_transform : transform_for_encdec</text><line x1="0" y1="20" x2="294.421875" y2="20"/></g><g id="sprotty_ArchitectureBlockImpl$one_round_for_encdec/InstantiationBlockImpl$u_transform/BPortImpl$data_in" class="triangle" transform="translate(0, 38)"><path d="M 0,0 L 5,2.5 L 0,5 Z" transform="translate(-1.67, -2.5)" class="sprotty-port" style="fill:rgb(48, 48, 48);stroke:rgb(48, 48, 48);"/><text class="clickable sprotty-label port" id="sprotty_ArchitectureBlockImpl$one_round_for_encdec/InstantiationBlockImpl$u_transform/BPortImpl$data_in/label" transform="translate(6, -9) translate(21.1875, 14)" style="cursor:default;font-size:12px;perspective-origin:0px 0px;fill:rgb(48, 48, 48);text-anchor:middle;">data_in</text></g><g id="sprotty_ArchitectureBlockImpl$one_round_for_encdec/InstantiationBlockImpl$u_transform/BPortImpl$result_out" class="triangle" transform="translate(294.421875, 38)"><path d="M 0,0 L 5,2.5 L 0,5 Z" transform="translate(-1.67, -2.5)" class="sprotty-port" style="fill:rgb(48, 48, 48);stroke:rgb(48, 48, 48);"/><text class="clickable sprotty-label port" id="sprotty_ArchitectureBlockImpl$one_round_for_encdec/InstantiationBlockImpl$u_transform/BPortImpl$result_out/label" transform="translate(-64.625, -9) translate(28.90625, 14)" style="cursor:default;font-size:12px;perspective-origin:0.270833px 0px;fill:rgb(48, 48, 48);text-anchor:middle;">result_out</text></g></g><g id="sprotty_ArchitectureBlockImpl$one_round_for_encdec/BPortImpl$round_key_in" class="triangle" transform="translate(0, 203.046875)"><path d="M 0,0 L 5,2.5 L 0,5 Z" transform="translate(-1.67, -2.5)" class="sprotty-port" style="fill:rgb(48, 48, 48);stroke:rgb(48, 48, 48);"/><text class="clickable sprotty-label port" id="sprotty_ArchitectureBlockImpl$one_round_for_encdec/BPortImpl$round_key_in/label" transform="translate(6, 6) translate(38.625, 14)" style="cursor:default;font-size:12px;perspective-origin:0px 0px;fill:rgb(48, 48, 48);text-anchor:middle;">round_key_in</text></g><g id="sprotty_ArchitectureBlockImpl$one_round_for_encdec/BPortImpl$data_in" class="triangle" transform="translate(0, 111.03125)"><path d="M 0,0 L 5,2.5 L 0,5 Z" transform="translate(-1.67, -2.5)" class="sprotty-port" style="fill:rgb(48, 48, 48);stroke:rgb(48, 48, 48);"/><text class="clickable sprotty-label port" id="sprotty_ArchitectureBlockImpl$one_round_for_encdec/BPortImpl$data_in/label" transform="translate(6, 6) translate(21.1875, 14)" style="cursor:default;font-size:12px;perspective-origin:0px 0px;fill:rgb(48, 48, 48);text-anchor:middle;">data_in</text></g><g id="sprotty_ArchitectureBlockImpl$one_round_for_encdec/BPortImpl$result_out" class="triangle" transform="translate(705.234375, 204.046875)"><path d="M 0,0 L 5,2.5 L 0,5 Z" transform="translate(-1.67, -2.5)" class="sprotty-port" style="fill:rgb(48, 48, 48);stroke:rgb(48, 48, 48);"/><text class="clickable sprotty-label port" id="sprotty_ArchitectureBlockImpl$one_round_for_encdec/BPortImpl$result_out/label" transform="translate(-64.625, 6) translate(28.90625, 14)" style="cursor:default;font-size:12px;perspective-origin:0.270833px 0px;fill:rgb(48, 48, 48);text-anchor:middle;">result_out</text></g></g></g></svg>