<svg xmlns="http://www.w3.org/2000/svg" id="sprotty_dependencies$project:sm4_flow1" class="sprotty-graph sprotty-dependencies-diagram dependencies" style="font-family:&quot;Noto Sans&quot;, Helvetica, Arial, sans-serif;-webkit-locale:&quot;en&quot;;perspective-origin:0px 0px;transform-origin:0px 0px;" version="1.1" viewBox="7 7 233.734375 266.0625" width="233.734375" height="266.0625"><g transform="scale(1) translate(0,0)"><g id="sprotty_dependencies$project:sm4_flow1/FileNodeImpl$sbox_8b.v" class="file" transform="translate(32, 224.046875)"><rect x="0" y="0" width="84.796875" height="44.015625" class="sprotty-node" style="fill:rgb(255, 255, 255);stroke:rgb(48, 48, 48);"/><text class="clickable sprotty-label file" id="sprotty_dependencies$project:sm4_flow1/FileNodeImpl$sbox_8b.v/label" transform="translate(5, 10) translate(37.234375, 18.671875)" style="cursor:default;perspective-origin:0.104167px 0px;fill:rgb(48, 48, 48);text-anchor:middle;">sbox_8b.v</text></g><g id="sprotty_dependencies$project:sm4_flow1/FileNodeImpl$sbox_32b.v" class="file" transform="translate(27, 160.03125)"><rect x="0" y="0" width="93.671875" height="44.015625" class="sprotty-node" style="fill:rgb(255, 255, 255);stroke:rgb(48, 48, 48);"/><text class="clickable sprotty-label file" id="sprotty_dependencies$project:sm4_flow1/FileNodeImpl$sbox_32b.v/label" transform="translate(5, 10) translate(41.671875, 18.671875)" style="cursor:default;perspective-origin:0.104167px 0px;fill:rgb(48, 48, 48);text-anchor:middle;">sbox_32b.v</text></g><g id="sprotty_dependencies$project:sm4_flow1/FileNodeImpl$sm4_toplevel.v" class="file" transform="translate(12, 12)"><rect x="0" y="0" width="123.265625" height="44.015625" class="sprotty-node" style="fill:rgb(255, 255, 255);stroke:rgb(48, 48, 48);"/><text class="clickable sprotty-label file" id="sprotty_dependencies$project:sm4_flow1/FileNodeImpl$sm4_toplevel.v/label" transform="translate(5, 10) translate(56.46875, 18.671875)" style="cursor:default;perspective-origin:0.104167px 0px;fill:rgb(48, 48, 48);text-anchor:middle;">sm4_toplevel.v</text></g><g id="sprotty_dependencies$project:sm4_flow1/FileNodeImpl$keygen.v" class="file" transform="translate(160, 86.015625)"><rect x="0" y="0" width="75.734375" height="44.015625" class="sprotty-node" style="fill:rgb(255, 255, 255);stroke:rgb(48, 48, 48);"/><text class="clickable sprotty-label file" id="sprotty_dependencies$project:sm4_flow1/FileNodeImpl$keygen.v/label" transform="translate(5, 10) translate(32.703125, 18.671875)" style="cursor:default;perspective-origin:0.104167px 0px;fill:rgb(48, 48, 48);text-anchor:middle;">keygen.v</text></g><g id="sprotty_dependencies$project:sm4_flow1/FileNodeImpl$mesenc.v" class="file" transform="translate(29, 86.015625)"><rect x="0" y="0" width="80.484375" height="44.015625" class="sprotty-node" style="fill:rgb(255, 255, 255);stroke:rgb(48, 48, 48);"/><text class="clickable sprotty-label file" id="sprotty_dependencies$project:sm4_flow1/FileNodeImpl$mesenc.v/label" transform="translate(5, 10) translate(35.078125, 18.671875)" style="cursor:default;perspective-origin:0.104167px 0px;fill:rgb(48, 48, 48);text-anchor:middle;">mesenc.v</text></g><g id="sprotty_dependencies$project:sm4_flow1/FileNodeImpl$sbox_32b.v_to_dependencies$project:sm4_flow1/FileNodeImpl$sbox_8b.v" class="sprotty-edge dependency" style="fill:none;stroke:rgb(48, 48, 48);stroke-linejoin:round;"><g><path d=" M74,204.046875 L74,224.046875"/><path d=" M74,204.046875 L74,224.046875" class="clickable" style="cursor:default;"/></g><path d="M 74,224.046875 L 81,221.546875 L 81,226.546875 Z" transform="rotate(-90 74 224.046875)" class="arrow" style="fill:rgb(48, 48, 48);stroke-linejoin:miter;stroke-miterlimit:2;"/></g><g id="sprotty_dependencies$project:sm4_flow1/FileNodeImpl$sm4_toplevel.v_to_dependencies$project:sm4_flow1/FileNodeImpl$keygen.v" class="sprotty-edge dependency" style="fill:none;stroke:rgb(48, 48, 48);stroke-linejoin:round;"><g><path d=" M79,56.015625 L79,71.015625 L198,71.015625 L198,86.015625"/><path d=" M79,56.015625 L79,71.015625 L198,71.015625 L198,86.015625" class="clickable" style="cursor:default;"/></g><path d="M 198,86.015625 L 205,83.515625 L 205,88.515625 Z" transform="rotate(-90 198 86.015625)" class="arrow" style="fill:rgb(48, 48, 48);stroke-linejoin:miter;stroke-miterlimit:2;"/></g><g id="sprotty_dependencies$project:sm4_flow1/FileNodeImpl$sm4_toplevel.v_to_dependencies$project:sm4_flow1/FileNodeImpl$mesenc.v" class="sprotty-edge dependency" style="fill:none;stroke:rgb(48, 48, 48);stroke-linejoin:round;"><g><path d=" M69,56.015625 L69,86.015625"/><path d=" M69,56.015625 L69,86.015625" class="clickable" style="cursor:default;"/></g><path d="M 69,86.015625 L 76,83.515625 L 76,88.515625 Z" transform="rotate(-90 69 86.015625)" class="arrow" style="fill:rgb(48, 48, 48);stroke-linejoin:miter;stroke-miterlimit:2;"/></g><g id="sprotty_dependencies$project:sm4_flow1/FileNodeImpl$keygen.v_to_dependencies$project:sm4_flow1/FileNodeImpl$sbox_32b.v" class="sprotty-edge dependency" style="fill:none;stroke:rgb(48, 48, 48);stroke-linejoin:round;"><g><path d=" M198,130.03125 L198,145.03125 L79,145.03125 L79,160.03125"/><path d=" M198,130.03125 L198,145.03125 L79,145.03125 L79,160.03125" class="clickable" style="cursor:default;"/></g><path d="M 79,160.03125 L 86,157.53125 L 86,162.53125 Z" transform="rotate(-90 79 160.03125)" class="arrow" style="fill:rgb(48, 48, 48);stroke-linejoin:miter;stroke-miterlimit:2;"/></g><g id="sprotty_dependencies$project:sm4_flow1/FileNodeImpl$mesenc.v_to_dependencies$project:sm4_flow1/FileNodeImpl$sbox_32b.v" class="sprotty-edge dependency" style="fill:none;stroke:rgb(48, 48, 48);stroke-linejoin:round;"><g><path d=" M69,130.03125 L69,160.03125"/><path d=" M69,130.03125 L69,160.03125" class="clickable" style="cursor:default;"/></g><path d="M 69,160.03125 L 76,157.53125 L 76,162.53125 Z" transform="rotate(-90 69 160.03125)" class="arrow" style="fill:rgb(48, 48, 48);stroke-linejoin:miter;stroke-miterlimit:2;"/></g></g></svg>