<svg xmlns="http://www.w3.org/2000/svg" id="sprotty_work.cir_top" class="sprotty-graph sprotty-block-diagram blockdiagram" style="font-family:&quot;Noto Sans&quot;, Helvetica, Arial, sans-serif;-webkit-locale:&quot;en&quot;;perspective-origin:0px 0px;transform-origin:0px 0px;" version="1.1" viewBox="7 7 1283.6875 397.66666666666663" width="1283.6875" height="397.66666666666663"><g transform="scale(1) translate(0,0)"><g id="sprotty_ArchitectureBlockImpl$cir_top" class="architecture" transform="translate(12, 12)"><g class="sprotty-block" style="fill:rgb(255, 255, 255);stroke:rgb(48, 48, 48);stroke-dasharray:0px;"><rect x="0" y="0" rx="1" ry="1" width="1273.6875" height="387.66666666666663"/><text x="636.84375" y="12" class="sprotty-block-name" style="cursor:pointer;font-weight:700;perspective-origin:424.677px 0px;fill:rgb(48, 48, 48);stroke:rgba(0, 0, 0, 0);dominant-baseline:middle;text-anchor:middle;">cir_top</text><line x1="0" y1="20" x2="1273.6875" y2="20"/></g><g id="sprotty_ArchitectureBlockImpl$cir_top/AssignmentBlockImpl$result_out/GPortImpl$result_outOUT_to_ArchitectureBlockImpl$cir_top/BPortImpl$result_out" class="sprotty-edge thick edge" style="fill:none;stroke:rgb(112, 112, 112);stroke-linejoin:round;stroke-width:3px;"><g><path d="M 1194.0625 325.66666666666663 L 1273.6875 325.66666666666663 "/><path d="M 1194.0625 325.66666666666663 L 1273.6875 325.66666666666663 " class="clickable"/></g></g><g id="sprotty_ArchitectureBlockImpl$cir_top/AssignmentBlockImpl$out_valid/GPortImpl$out_validOUT_to_ArchitectureBlockImpl$cir_top/BPortImpl$out_valid" class="sprotty-edge edge" style="fill:none;stroke:rgb(112, 112, 112);stroke-linejoin:round;"><g><path d="M 375.796875 45 L 1273.6875 45 "/><path d="M 375.796875 45 L 1273.6875 45 " class="clickable"/></g></g><g id="sprotty_ArchitectureBlockImpl$cir_top/BPortImpl$clk_to_ArchitectureBlockImpl$cir_top/AlwaysBlockImpl$null9/GPortImpl$clkIN" class="sprotty-edge edge" style="fill:none;stroke:rgb(112, 112, 112);stroke-linejoin:round;"><g><path d="M 0 93 L 105.6875 93 C 106.6875 93 107.6875 94 107.6875 95 L 107.6875 215.99999999999997 C 107.6875 216.99999999999997 108.6875 217.99999999999997 109.6875 217.99999999999997 L 117.6875 217.99999999999997 "/><path d="M 0 93 L 105.6875 93 C 106.6875 93 107.6875 94 107.6875 95 L 107.6875 215.99999999999997 C 107.6875 216.99999999999997 108.6875 217.99999999999997 109.6875 217.99999999999997 L 117.6875 217.99999999999997 " class="clickable"/></g><circle r="2" id="sprotty_ArchitectureBlockImpl$cir_top/BPortImpl$clk_to_ArchitectureBlockImpl$cir_top/AlwaysBlockImpl$null9/GPortImpl$clkIN/junction0" transform="translate(107.6875, 93)" class="sprotty-junction junction" style="fill:rgb(112, 112, 112);stroke:none;"/></g><g id="sprotty_ArchitectureBlockImpl$cir_top/BPortImpl$reset_to_ArchitectureBlockImpl$cir_top/AlwaysBlockImpl$null9/GPortImpl$resetIN" class="sprotty-edge edge" style="fill:none;stroke:rgb(112, 112, 112);stroke-linejoin:round;"><g><path d="M 0 227.99999999999997 L 117.6875 227.99999999999997 "/><path d="M 0 227.99999999999997 L 117.6875 227.99999999999997 " class="clickable"/></g></g><g id="sprotty_ArchitectureBlockImpl$cir_top/BPortImpl$in_valid_to_ArchitectureBlockImpl$cir_top/AlwaysBlockImpl$null9/GPortImpl$in_validIN" class="sprotty-edge edge" style="fill:none;stroke:rgb(112, 112, 112);stroke-linejoin:round;"><g><path d="M 0 262 L 105.6875 262 C 106.6875 262 107.6875 261 107.6875 260 L 107.6875 239.99999999999997 C 107.6875 238.99999999999997 108.6875 237.99999999999997 109.6875 237.99999999999997 L 117.6875 237.99999999999997 "/><path d="M 0 262 L 105.6875 262 C 106.6875 262 107.6875 261 107.6875 260 L 107.6875 239.99999999999997 C 107.6875 238.99999999999997 108.6875 237.99999999999997 109.6875 237.99999999999997 L 117.6875 237.99999999999997 " class="clickable"/></g><circle r="2" id="sprotty_ArchitectureBlockImpl$cir_top/BPortImpl$in_valid_to_ArchitectureBlockImpl$cir_top/AlwaysBlockImpl$null9/GPortImpl$in_validIN/junction0" transform="translate(107.6875, 262)" class="sprotty-junction junction" style="fill:rgb(112, 112, 112);stroke:none;"/></g><g id="sprotty_ArchitectureBlockImpl$cir_top/BPortImpl$clk_to_ArchitectureBlockImpl$cir_top/AlwaysBlockImpl$null8/GPortImpl$clkIN" class="sprotty-edge edge" style="fill:none;stroke:rgb(112, 112, 112);stroke-linejoin:round;"><g><path d="M 0 93 L 802.84375 93 C 803.84375 93 804.84375 94 804.84375 95 L 804.84375 258 C 804.84375 259 805.84375 260 806.84375 260 L 814.84375 260 "/><path d="M 0 93 L 802.84375 93 C 803.84375 93 804.84375 94 804.84375 95 L 804.84375 258 C 804.84375 259 805.84375 260 806.84375 260 L 814.84375 260 " class="clickable"/></g></g><g id="sprotty_ArchitectureBlockImpl$cir_top/BPortImpl$reset_to_ArchitectureBlockImpl$cir_top/AlwaysBlockImpl$null8/GPortImpl$resetIN" class="sprotty-edge edge" style="fill:none;stroke:rgb(112, 112, 112);stroke-linejoin:round;"><g><path d="M 0 227.99999999999997 L 95.6875 227.99999999999997 C 96.6875 227.99999999999997 97.6875 228.99999999999997 97.6875 229.99999999999997 L 97.6875 284 C 97.6875 285 98.6875 286 99.6875 286 L 752.84375 286 C 753.84375 286 754.84375 287 754.84375 288 L 754.84375 308 C 754.84375 309 755.84375 310 756.84375 310 L 814.84375 310 "/><path d="M 0 227.99999999999997 L 95.6875 227.99999999999997 C 96.6875 227.99999999999997 97.6875 228.99999999999997 97.6875 229.99999999999997 L 97.6875 284 C 97.6875 285 98.6875 286 99.6875 286 L 752.84375 286 C 753.84375 286 754.84375 287 754.84375 288 L 754.84375 308 C 754.84375 309 755.84375 310 756.84375 310 L 814.84375 310 " class="clickable"/></g><circle r="2" id="sprotty_ArchitectureBlockImpl$cir_top/BPortImpl$reset_to_ArchitectureBlockImpl$cir_top/AlwaysBlockImpl$null8/GPortImpl$resetIN/junction0" transform="translate(97.6875, 227.99999999999997)" class="sprotty-junction junction" style="fill:rgb(112, 112, 112);stroke:none;"/></g><g id="sprotty_ArchitectureBlockImpl$cir_top/BPortImpl$in_valid_to_ArchitectureBlockImpl$cir_top/AlwaysBlockImpl$null8/GPortImpl$in_validIN" class="sprotty-edge edge" style="fill:none;stroke:rgb(112, 112, 112);stroke-linejoin:round;"><g><path d="M 0 262 L 762.84375 262 C 763.84375 262 764.84375 263 764.84375 264 L 764.84375 298 C 764.84375 299 765.84375 300 766.84375 300 L 814.84375 300 "/><path d="M 0 262 L 762.84375 262 C 763.84375 262 764.84375 263 764.84375 264 L 764.84375 298 C 764.84375 299 765.84375 300 766.84375 300 L 814.84375 300 " class="clickable"/></g></g><g id="sprotty_ArchitectureBlockImpl$cir_top/BPortImpl$key_in_to_ArchitectureBlockImpl$cir_top/AlwaysBlockImpl$null8/GPortImpl$key_inIN" class="sprotty-edge thick edge" style="fill:none;stroke:rgb(112, 112, 112);stroke-linejoin:round;stroke-width:3px;"><g><path d="M 0 330 L 814.84375 330 "/><path d="M 0 330 L 814.84375 330 " class="clickable"/></g></g><g id="sprotty_ArchitectureBlockImpl$cir_top/BPortImpl$plaintext_in_to_ArchitectureBlockImpl$cir_top/AlwaysBlockImpl$null8/GPortImpl$plaintext_inIN" class="sprotty-edge thick edge" style="fill:none;stroke:rgb(112, 112, 112);stroke-linejoin:round;stroke-width:3px;"><g><path d="M 0 296 L 742.84375 296 C 743.84375 296 744.84375 297 744.84375 298 L 744.84375 318 C 744.84375 319 745.84375 320 746.84375 320 L 814.84375 320 "/><path d="M 0 296 L 742.84375 296 C 743.84375 296 744.84375 297 744.84375 298 L 744.84375 318 C 744.84375 319 745.84375 320 746.84375 320 L 814.84375 320 " class="clickable"/></g></g><g id="sprotty_ArchitectureBlockImpl$cir_top/BPortImpl$clk_to_ArchitectureBlockImpl$cir_top/AlwaysBlockImpl$null7/GPortImpl$clkIN" class="sprotty-edge edge" style="fill:none;stroke:rgb(112, 112, 112);stroke-linejoin:round;"><g><path d="M 0 93 L 162.15625 93 C 163.15625 93 164.15625 94 164.15625 95 L 164.15625 131 C 164.15625 132 165.15625 133 166.15625 133 L 174.15625 133 "/><path d="M 0 93 L 162.15625 93 C 163.15625 93 164.15625 94 164.15625 95 L 164.15625 131 C 164.15625 132 165.15625 133 166.15625 133 L 174.15625 133 " class="clickable"/></g><circle r="2" id="sprotty_ArchitectureBlockImpl$cir_top/BPortImpl$clk_to_ArchitectureBlockImpl$cir_top/AlwaysBlockImpl$null7/GPortImpl$clkIN/junction0" transform="translate(164.15625, 93)" class="sprotty-junction junction" style="fill:rgb(112, 112, 112);stroke:none;"/></g><g id="sprotty_ArchitectureBlockImpl$cir_top/BPortImpl$reset_to_ArchitectureBlockImpl$cir_top/AlwaysBlockImpl$null7/GPortImpl$resetIN" class="sprotty-edge edge" style="fill:none;stroke:rgb(112, 112, 112);stroke-linejoin:round;"><g><path d="M 0 227.99999999999997 L 95.6875 227.99999999999997 C 96.6875 227.99999999999997 97.6875 226.99999999999997 97.6875 225.99999999999997 L 97.6875 145 C 97.6875 144 98.6875 143 99.6875 143 L 174.15625 143 "/><path d="M 0 227.99999999999997 L 95.6875 227.99999999999997 C 96.6875 227.99999999999997 97.6875 226.99999999999997 97.6875 225.99999999999997 L 97.6875 145 C 97.6875 144 98.6875 143 99.6875 143 L 174.15625 143 " class="clickable"/></g></g><g id="sprotty_ArchitectureBlockImpl$cir_top/AlwaysBlockImpl$null7/GPortImpl$cntOUT_to_ArchitectureBlockImpl$cir_top/InstantiationBlockImpl$u_key/BPortImpl$count_round_in" class="sprotty-edge thick edge" style="fill:none;stroke:rgb(112, 112, 112);stroke-linejoin:round;stroke-width:3px;"><g><path d="M 210.625 143 L 482.28125 143 "/><path d="M 210.625 143 L 482.28125 143 " class="clickable"/></g></g><g id="sprotty_ArchitectureBlockImpl$cir_top/AlwaysBlockImpl$null7/GPortImpl$cntOUT_to_ArchitectureBlockImpl$cir_top/AssignmentBlockImpl$cnt_wire/GPortImpl$cntIN" class="sprotty-edge thick edge" style="fill:none;stroke:rgb(112, 112, 112);stroke-linejoin:round;stroke-width:3px;"><g><path d="M 210.625 143 L 218.625 143 C 219.625 143 220.625 142 220.625 141 L 220.625 124 C 220.625 123 221.625 122 222.625 122 L 230.625 122 "/><path d="M 210.625 143 L 218.625 143 C 219.625 143 220.625 142 220.625 141 L 220.625 124 C 220.625 123 221.625 122 222.625 122 L 230.625 122 " class="clickable"/></g><circle r="3" id="sprotty_ArchitectureBlockImpl$cir_top/AlwaysBlockImpl$null7/GPortImpl$cntOUT_to_ArchitectureBlockImpl$cir_top/AssignmentBlockImpl$cnt_wire/GPortImpl$cntIN/junction0" transform="translate(220.625, 143)" class="sprotty-junction thick" style="fill:rgb(112, 112, 112);stroke:none;"/></g><g id="sprotty_ArchitectureBlockImpl$cir_top/AlwaysBlockImpl$null9/GPortImpl$in_flagOUT_to_ArchitectureBlockImpl$cir_top/AlwaysBlockImpl$null8/GPortImpl$in_flagIN" class="sprotty-edge edge" style="fill:none;stroke:rgb(112, 112, 112);stroke-linejoin:round;"><g><path d="M 154.15625 227.99999999999997 L 782.84375 227.99999999999997 C 783.84375 227.99999999999997 784.84375 228.99999999999997 784.84375 229.99999999999997 L 784.84375 278 C 784.84375 279 785.84375 280 786.84375 280 L 814.84375 280 "/><path d="M 154.15625 227.99999999999997 L 782.84375 227.99999999999997 C 783.84375 227.99999999999997 784.84375 228.99999999999997 784.84375 229.99999999999997 L 784.84375 278 C 784.84375 279 785.84375 280 786.84375 280 L 814.84375 280 " class="clickable"/></g></g><g id="sprotty_ArchitectureBlockImpl$cir_top/AlwaysBlockImpl$null9/GPortImpl$in_flagOUT_to_ArchitectureBlockImpl$cir_top/AlwaysBlockImpl$null7/GPortImpl$in_flagIN" class="sprotty-edge edge" style="fill:none;stroke:rgb(112, 112, 112);stroke-linejoin:round;"><g><path d="M 154.15625 227.99999999999997 L 162.15625 227.99999999999997 C 163.15625 227.99999999999997 164.15625 226.99999999999997 164.15625 225.99999999999997 L 164.15625 155 C 164.15625 154 165.15625 153 166.15625 153 L 174.15625 153 "/><path d="M 154.15625 227.99999999999997 L 162.15625 227.99999999999997 C 163.15625 227.99999999999997 164.15625 226.99999999999997 164.15625 225.99999999999997 L 164.15625 155 C 164.15625 154 165.15625 153 166.15625 153 L 174.15625 153 " class="clickable"/></g><circle r="2" id="sprotty_ArchitectureBlockImpl$cir_top/AlwaysBlockImpl$null9/GPortImpl$in_flagOUT_to_ArchitectureBlockImpl$cir_top/AlwaysBlockImpl$null7/GPortImpl$in_flagIN/junction0" transform="translate(164.15625, 227.99999999999997)" class="sprotty-junction junction" style="fill:rgb(112, 112, 112);stroke:none;"/></g><g id="sprotty_ArchitectureBlockImpl$cir_top/AlwaysBlockImpl$null8/GPortImpl$data_inOUT_to_ArchitectureBlockImpl$cir_top/InstantiationBlockImpl$u_encdec/BPortImpl$data_in" class="sprotty-edge thick edge" style="fill:none;stroke:rgb(112, 112, 112);stroke-linejoin:round;stroke-width:3px;"><g><path d="M 851.3125 316.66666666666663 L 881.3125 316.66666666666663 "/><path d="M 851.3125 316.66666666666663 L 881.3125 316.66666666666663 " class="clickable"/></g></g><g id="sprotty_ArchitectureBlockImpl$cir_top/AlwaysBlockImpl$null8/GPortImpl$key_for_roundOUT_to_ArchitectureBlockImpl$cir_top/InstantiationBlockImpl$u_key/BPortImpl$data_in" class="sprotty-edge thick edge" style="fill:none;stroke:rgb(112, 112, 112);stroke-linejoin:round;stroke-width:3px;"><g><path d="M 851.3125 283.3333333333333 L 859.3125 283.3333333333333 C 860.3125 283.3333333333333 861.3125 282.3333333333333 861.3125 281.3333333333333 L 861.3125 87 C 861.3125 86 860.3125 85 859.3125 85 L 474.28125 85 C 473.28125 85 472.28125 86 472.28125 87 L 472.28125 169 C 472.28125 170 473.28125 171 474.28125 171 L 482.28125 171 "/><path d="M 851.3125 283.3333333333333 L 859.3125 283.3333333333333 C 860.3125 283.3333333333333 861.3125 282.3333333333333 861.3125 281.3333333333333 L 861.3125 87 C 861.3125 86 860.3125 85 859.3125 85 L 474.28125 85 C 473.28125 85 472.28125 86 472.28125 87 L 472.28125 169 C 472.28125 170 473.28125 171 474.28125 171 L 482.28125 171 " class="clickable"/></g></g><g id="sprotty_ArchitectureBlockImpl$cir_top/InstantiationBlockImpl$u_key/BPortImpl$result_out_to_ArchitectureBlockImpl$cir_top/InstantiationBlockImpl$u_encdec/BPortImpl$round_key_in" class="sprotty-edge thick edge" style="fill:none;stroke:rgb(112, 112, 112);stroke-linejoin:round;stroke-width:3px;"><g><path d="M 734.84375 171 L 792.84375 171 C 793.84375 171 794.84375 170 794.84375 169 L 794.84375 78 C 794.84375 77 795.84375 76 796.84375 76 L 869.3125 76 C 870.3125 76 871.3125 77 871.3125 78 L 871.3125 342.66666666666663 C 871.3125 343.66666666666663 872.3125 344.66666666666663 873.3125 344.66666666666663 L 881.3125 344.66666666666663 "/><path d="M 734.84375 171 L 792.84375 171 C 793.84375 171 794.84375 170 794.84375 169 L 794.84375 78 C 794.84375 77 795.84375 76 796.84375 76 L 869.3125 76 C 870.3125 76 871.3125 77 871.3125 78 L 871.3125 342.66666666666663 C 871.3125 343.66666666666663 872.3125 344.66666666666663 873.3125 344.66666666666663 L 881.3125 344.66666666666663 " class="clickable"/></g><circle r="3" id="sprotty_ArchitectureBlockImpl$cir_top/InstantiationBlockImpl$u_key/BPortImpl$result_out_to_ArchitectureBlockImpl$cir_top/InstantiationBlockImpl$u_encdec/BPortImpl$round_key_in/junction0" transform="translate(794.84375, 171)" class="sprotty-junction thick" style="fill:rgb(112, 112, 112);stroke:none;"/></g><g id="sprotty_ArchitectureBlockImpl$cir_top/InstantiationBlockImpl$u_key/BPortImpl$result_out_to_ArchitectureBlockImpl$cir_top/AlwaysBlockImpl$null8/GPortImpl$key_after_roundIN" class="sprotty-edge thick edge" style="fill:none;stroke:rgb(112, 112, 112);stroke-linejoin:round;stroke-width:3px;"><g><path d="M 734.84375 171 L 792.84375 171 C 793.84375 171 794.84375 172 794.84375 173 L 794.84375 268 C 794.84375 269 795.84375 270 796.84375 270 L 814.84375 270 "/><path d="M 734.84375 171 L 792.84375 171 C 793.84375 171 794.84375 172 794.84375 173 L 794.84375 268 C 794.84375 269 795.84375 270 796.84375 270 L 814.84375 270 " class="clickable"/></g></g><g id="sprotty_ArchitectureBlockImpl$cir_top/InstantiationBlockImpl$u_encdec/BPortImpl$result_out_to_ArchitectureBlockImpl$cir_top/AssignmentBlockImpl$result_out/GPortImpl$data_after_roundIN" class="sprotty-edge thick edge" style="fill:none;stroke:rgb(112, 112, 112);stroke-linejoin:round;stroke-width:3px;"><g><path d="M 1154.71875 330.66666666666663 L 1174.71875 330.66666666666663 "/><path d="M 1154.71875 330.66666666666663 L 1174.71875 330.66666666666663 " class="clickable"/></g></g><g id="sprotty_ArchitectureBlockImpl$cir_top/InstantiationBlockImpl$u_encdec/BPortImpl$result_out_to_ArchitectureBlockImpl$cir_top/AlwaysBlockImpl$null8/GPortImpl$data_after_roundIN" class="sprotty-edge thick edge" style="fill:none;stroke:rgb(112, 112, 112);stroke-linejoin:round;stroke-width:3px;"><g><path d="M 1154.71875 330.66666666666663 L 1162.71875 330.66666666666663 C 1163.71875 330.66666666666663 1164.71875 331.66666666666663 1164.71875 332.66666666666663 L 1164.71875 370.66666666666663 C 1164.71875 371.66666666666663 1163.71875 372.66666666666663 1162.71875 372.66666666666663 L 806.84375 372.66666666666663 C 805.84375 372.66666666666663 804.84375 371.66666666666663 804.84375 370.66666666666663 L 804.84375 342 C 804.84375 341 805.84375 340 806.84375 340 L 814.84375 340 "/><path d="M 1154.71875 330.66666666666663 L 1162.71875 330.66666666666663 C 1163.71875 330.66666666666663 1164.71875 331.66666666666663 1164.71875 332.66666666666663 L 1164.71875 370.66666666666663 C 1164.71875 371.66666666666663 1163.71875 372.66666666666663 1162.71875 372.66666666666663 L 806.84375 372.66666666666663 C 805.84375 372.66666666666663 804.84375 371.66666666666663 804.84375 370.66666666666663 L 804.84375 342 C 804.84375 341 805.84375 340 806.84375 340 L 814.84375 340 " class="clickable"/></g><circle r="3" id="sprotty_ArchitectureBlockImpl$cir_top/InstantiationBlockImpl$u_encdec/BPortImpl$result_out_to_ArchitectureBlockImpl$cir_top/AlwaysBlockImpl$null8/GPortImpl$data_after_roundIN/junction0" transform="translate(1164.71875, 330.66666666666663)" class="sprotty-junction thick" style="fill:rgb(112, 112, 112);stroke:none;"/></g><g id="sprotty_ArchitectureBlockImpl$cir_top/InstantiationBlockImpl$u_get_cki/BPortImpl$cki_out_to_ArchitectureBlockImpl$cir_top/InstantiationBlockImpl$u_key/BPortImpl$ck_parameter_in" class="sprotty-edge thick edge" style="fill:none;stroke:rgb(112, 112, 112);stroke-linejoin:round;stroke-width:3px;"><g><path d="M 462.28125 199 L 482.28125 199 "/><path d="M 462.28125 199 L 482.28125 199 " class="clickable"/></g></g><g id="sprotty_ArchitectureBlockImpl$cir_top/AssignmentBlockImpl$cnt_wire/GPortImpl$cntOUT_to_ArchitectureBlockImpl$cir_top/InstantiationBlockImpl$u_get_cki/BPortImpl$count_round_in" class="sprotty-edge thick edge" style="fill:none;stroke:rgb(112, 112, 112);stroke-linejoin:round;stroke-width:3px;"><g><path d="M 249.96875 122 L 257.96875 122 C 258.96875 122 259.96875 123 259.96875 124 L 259.96875 197 C 259.96875 198 260.96875 199 261.96875 199 L 269.96875 199 "/><path d="M 249.96875 122 L 257.96875 122 C 258.96875 122 259.96875 123 259.96875 124 L 259.96875 197 C 259.96875 198 260.96875 199 261.96875 199 L 269.96875 199 " class="clickable"/></g><circle r="3" id="sprotty_ArchitectureBlockImpl$cir_top/AssignmentBlockImpl$cnt_wire/GPortImpl$cntOUT_to_ArchitectureBlockImpl$cir_top/InstantiationBlockImpl$u_get_cki/BPortImpl$count_round_in/junction0" transform="translate(259.96875, 122)" class="sprotty-junction thick" style="fill:rgb(112, 112, 112);stroke:none;"/><circle r="3" id="sprotty_ArchitectureBlockImpl$cir_top/AssignmentBlockImpl$cnt_wire/GPortImpl$cntOUT_to_ArchitectureBlockImpl$cir_top/InstantiationBlockImpl$u_get_cki/BPortImpl$count_round_in/junction1" transform="translate(259.96875, 199)" class="sprotty-junction thick" style="fill:rgb(112, 112, 112);stroke:none;"/></g><g id="sprotty_ArchitectureBlockImpl$cir_top/AssignmentBlockImpl$cnt_wire/GPortImpl$cntOUT_to_ArchitectureBlockImpl$cir_top/AssignmentBlockImpl$result_out/GPortImpl$cnt_wireIN" class="sprotty-edge thick edge" style="fill:none;stroke:rgb(112, 112, 112);stroke-linejoin:round;stroke-width:3px;"><g><path d="M 249.96875 122 L 257.96875 122 C 258.96875 122 259.96875 121 259.96875 120 L 259.96875 68 C 259.96875 67 260.96875 66 261.96875 66 L 1162.71875 66 C 1163.71875 66 1164.71875 67 1164.71875 68 L 1164.71875 318.66666666666663 C 1164.71875 319.66666666666663 1165.71875 320.66666666666663 1166.71875 320.66666666666663 L 1174.71875 320.66666666666663 "/><path d="M 249.96875 122 L 257.96875 122 C 258.96875 122 259.96875 121 259.96875 120 L 259.96875 68 C 259.96875 67 260.96875 66 261.96875 66 L 1162.71875 66 C 1163.71875 66 1164.71875 67 1164.71875 68 L 1164.71875 318.66666666666663 C 1164.71875 319.66666666666663 1165.71875 320.66666666666663 1166.71875 320.66666666666663 L 1174.71875 320.66666666666663 " class="clickable"/></g><circle r="3" id="sprotty_ArchitectureBlockImpl$cir_top/AssignmentBlockImpl$cnt_wire/GPortImpl$cntOUT_to_ArchitectureBlockImpl$cir_top/AssignmentBlockImpl$result_out/GPortImpl$cnt_wireIN/junction0" transform="translate(259.96875, 66)" class="sprotty-junction thick" style="fill:rgb(112, 112, 112);stroke:none;"/></g><g id="sprotty_ArchitectureBlockImpl$cir_top/AssignmentBlockImpl$cnt_wire/GPortImpl$cntOUT_to_ArchitectureBlockImpl$cir_top/AssignmentBlockImpl$out_valid/GPortImpl$cnt_wireIN" class="sprotty-edge thick edge" style="fill:none;stroke:rgb(112, 112, 112);stroke-linejoin:round;stroke-width:3px;"><g><path d="M 249.96875 122 L 257.96875 122 C 258.96875 122 259.96875 121 259.96875 120 L 259.96875 47 C 259.96875 46 260.96875 45 261.96875 45 L 356.453125 45 "/><path d="M 249.96875 122 L 257.96875 122 C 258.96875 122 259.96875 121 259.96875 120 L 259.96875 47 C 259.96875 46 260.96875 45 261.96875 45 L 356.453125 45 " class="clickable"/></g></g><g id="sprotty_ArchitectureBlockImpl$cir_top/AssignmentBlockImpl$cnt_wire/GPortImpl$cntOUT_to_ArchitectureBlockImpl$cir_top/AlwaysBlockImpl$null8/GPortImpl$cnt_wireIN" class="sprotty-edge thick edge" style="fill:none;stroke:rgb(112, 112, 112);stroke-linejoin:round;stroke-width:3px;"><g><path d="M 249.96875 122 L 257.96875 122 C 258.96875 122 259.96875 123 259.96875 124 L 259.96875 249.99999999999997 C 259.96875 250.99999999999997 260.96875 251.99999999999997 261.96875 251.99999999999997 L 772.84375 251.99999999999997 C 773.84375 251.99999999999997 774.84375 252.99999999999997 774.84375 253.99999999999997 L 774.84375 288 C 774.84375 289 775.84375 290 776.84375 290 L 814.84375 290 "/><path d="M 249.96875 122 L 257.96875 122 C 258.96875 122 259.96875 123 259.96875 124 L 259.96875 249.99999999999997 C 259.96875 250.99999999999997 260.96875 251.99999999999997 261.96875 251.99999999999997 L 772.84375 251.99999999999997 C 773.84375 251.99999999999997 774.84375 252.99999999999997 774.84375 253.99999999999997 L 774.84375 288 C 774.84375 289 775.84375 290 776.84375 290 L 814.84375 290 " class="clickable"/></g></g><g id="sprotty_ArchitectureBlockImpl$cir_top/AlwaysBlockImpl$null7" class="statement" transform="translate(174.15625, 123)"><rect x="0" y="0" rx="10" ry="5" width="36.46875" height="40" class="sprotty-node" style="fill:rgb(245, 245, 245);stroke:rgb(112, 112, 112);"/><text class="clickable sprotty-label statementtype" id="sprotty_ArchitectureBlockImpl$cir_top/AlwaysBlockImpl$null7/labeltype" transform="translate(5, 15.328125) translate(13.125, 7.34375)" style="cursor:default;font-size:8px;font-weight:700;perspective-origin:0.0104167px 0px;fill:rgb(112, 112, 112);text-anchor:middle;">always</text><g id="sprotty_ArchitectureBlockImpl$cir_top/AlwaysBlockImpl$null7/GPortImpl$in_flagIN" class="sprotty-hidden hidden" transform="translate(0, 30)" style="display:block;height:0px;width:0px;"/><g id="sprotty_ArchitectureBlockImpl$cir_top/AlwaysBlockImpl$null7/GPortImpl$resetIN" class="sprotty-hidden hidden" transform="translate(0, 20)" style="display:block;height:0px;width:0px;"/><g id="sprotty_ArchitectureBlockImpl$cir_top/AlwaysBlockImpl$null7/GPortImpl$clkIN" class="sprotty-hidden hidden" transform="translate(0, 10)" style="display:block;height:0px;width:0px;"/><g id="sprotty_ArchitectureBlockImpl$cir_top/AlwaysBlockImpl$null7/GPortImpl$cntOUT" class="sprotty-hidden hidden" transform="translate(36.46875, 20)" style="display:block;height:0px;width:0px;"/></g><g id="sprotty_ArchitectureBlockImpl$cir_top/AlwaysBlockImpl$null8" class="statement" transform="translate(814.84375, 249.99999999999997)"><rect x="0" y="0" rx="10" ry="5" width="36.46875" height="100" class="sprotty-node" style="fill:rgb(245, 245, 245);stroke:rgb(112, 112, 112);"/><text class="clickable sprotty-label statementtype" id="sprotty_ArchitectureBlockImpl$cir_top/AlwaysBlockImpl$null8/labeltype" transform="translate(5, 45.328125) translate(13.125, 7.34375)" style="cursor:default;font-size:8px;font-weight:700;perspective-origin:0.0104167px 0px;fill:rgb(112, 112, 112);text-anchor:middle;">always</text><g id="sprotty_ArchitectureBlockImpl$cir_top/AlwaysBlockImpl$null8/GPortImpl$key_after_roundIN" class="sprotty-hidden hidden" transform="translate(0, 20)" style="display:block;height:0px;width:0px;"/><g id="sprotty_ArchitectureBlockImpl$cir_top/AlwaysBlockImpl$null8/GPortImpl$data_after_roundIN" class="sprotty-hidden hidden" transform="translate(0, 90)" style="display:block;height:0px;width:0px;"/><g id="sprotty_ArchitectureBlockImpl$cir_top/AlwaysBlockImpl$null8/GPortImpl$plaintext_inIN" class="sprotty-hidden hidden" transform="translate(0, 70)" style="display:block;height:0px;width:0px;"/><g id="sprotty_ArchitectureBlockImpl$cir_top/AlwaysBlockImpl$null8/GPortImpl$key_inIN" class="sprotty-hidden hidden" transform="translate(0, 80)" style="display:block;height:0px;width:0px;"/><g id="sprotty_ArchitectureBlockImpl$cir_top/AlwaysBlockImpl$null8/GPortImpl$cnt_wireIN" class="sprotty-hidden hidden" transform="translate(0, 40)" style="display:block;height:0px;width:0px;"/><g id="sprotty_ArchitectureBlockImpl$cir_top/AlwaysBlockImpl$null8/GPortImpl$in_validIN" class="sprotty-hidden hidden" transform="translate(0, 50)" style="display:block;height:0px;width:0px;"/><g id="sprotty_ArchitectureBlockImpl$cir_top/AlwaysBlockImpl$null8/GPortImpl$in_flagIN" class="sprotty-hidden hidden" transform="translate(0, 30)" style="display:block;height:0px;width:0px;"/><g id="sprotty_ArchitectureBlockImpl$cir_top/AlwaysBlockImpl$null8/GPortImpl$resetIN" class="sprotty-hidden hidden" transform="translate(0, 60)" style="display:block;height:0px;width:0px;"/><g id="sprotty_ArchitectureBlockImpl$cir_top/AlwaysBlockImpl$null8/GPortImpl$clkIN" class="sprotty-hidden hidden" transform="translate(0, 10)" style="display:block;height:0px;width:0px;"/><g id="sprotty_ArchitectureBlockImpl$cir_top/AlwaysBlockImpl$null8/GPortImpl$key_for_roundOUT" class="sprotty-hidden hidden" transform="translate(36.46875, 33.33333333333333)" style="display:block;height:0px;width:0px;"/><g id="sprotty_ArchitectureBlockImpl$cir_top/AlwaysBlockImpl$null8/GPortImpl$data_inOUT" class="sprotty-hidden hidden" transform="translate(36.46875, 66.66666666666666)" style="display:block;height:0px;width:0px;"/></g><g id="sprotty_ArchitectureBlockImpl$cir_top/AlwaysBlockImpl$null9" class="statement" transform="translate(117.6875, 207.99999999999997)"><rect x="0" y="0" rx="10" ry="5" width="36.46875" height="40" class="sprotty-node" style="fill:rgb(245, 245, 245);stroke:rgb(112, 112, 112);"/><text class="clickable sprotty-label statementtype" id="sprotty_ArchitectureBlockImpl$cir_top/AlwaysBlockImpl$null9/labeltype" transform="translate(5, 15.328125) translate(13.125, 7.34375)" style="cursor:default;font-size:8px;font-weight:700;perspective-origin:0.0104167px 0px;fill:rgb(112, 112, 112);text-anchor:middle;">always</text><g id="sprotty_ArchitectureBlockImpl$cir_top/AlwaysBlockImpl$null9/GPortImpl$in_validIN" class="sprotty-hidden hidden" transform="translate(0, 30)" style="display:block;height:0px;width:0px;"/><g id="sprotty_ArchitectureBlockImpl$cir_top/AlwaysBlockImpl$null9/GPortImpl$resetIN" class="sprotty-hidden hidden" transform="translate(0, 20)" style="display:block;height:0px;width:0px;"/><g id="sprotty_ArchitectureBlockImpl$cir_top/AlwaysBlockImpl$null9/GPortImpl$clkIN" class="sprotty-hidden hidden" transform="translate(0, 10)" style="display:block;height:0px;width:0px;"/><g id="sprotty_ArchitectureBlockImpl$cir_top/AlwaysBlockImpl$null9/GPortImpl$in_flagOUT" class="sprotty-hidden hidden" transform="translate(36.46875, 20)" style="display:block;height:0px;width:0px;"/></g><g id="sprotty_ArchitectureBlockImpl$cir_top/AssignmentBlockImpl$out_valid" class="statement" transform="translate(356.453125, 35)"><rect x="0" y="0" rx="10" ry="5" width="19.34375" height="20" class="sprotty-node" style="fill:rgb(245, 245, 245);stroke:rgb(112, 112, 112);"/><text class="clickable sprotty-label statementtype" id="sprotty_ArchitectureBlockImpl$cir_top/AssignmentBlockImpl$out_valid/labeltype" transform="translate(5, 5.328125) translate(4.671875, 7.34375)" style="cursor:default;font-size:8px;font-weight:700;perspective-origin:-0.0104167px 0px;fill:rgb(112, 112, 112);text-anchor:middle;">&lt;=</text><g id="sprotty_ArchitectureBlockImpl$cir_top/AssignmentBlockImpl$out_valid/GPortImpl$cnt_wireIN" class="sprotty-hidden hidden" transform="translate(0, 10)" style="display:block;height:0px;width:0px;"/><g id="sprotty_ArchitectureBlockImpl$cir_top/AssignmentBlockImpl$out_valid/GPortImpl$out_validOUT" class="sprotty-hidden hidden" transform="translate(19.34375, 10)" style="display:block;height:0px;width:0px;"/></g><g id="sprotty_ArchitectureBlockImpl$cir_top/AssignmentBlockImpl$result_out" class="statement" transform="translate(1174.71875, 310.66666666666663)"><rect x="0" y="0" rx="10" ry="5" width="19.34375" height="30" class="sprotty-node" style="fill:rgb(245, 245, 245);stroke:rgb(112, 112, 112);"/><text class="clickable sprotty-label statementtype" id="sprotty_ArchitectureBlockImpl$cir_top/AssignmentBlockImpl$result_out/labeltype" transform="translate(5, 10.328125) translate(4.671875, 7.34375)" style="cursor:default;font-size:8px;font-weight:700;perspective-origin:-0.0104167px 0px;fill:rgb(112, 112, 112);text-anchor:middle;">&lt;=</text><g id="sprotty_ArchitectureBlockImpl$cir_top/AssignmentBlockImpl$result_out/GPortImpl$data_after_roundIN" class="sprotty-hidden hidden" transform="translate(0, 20)" style="display:block;height:0px;width:0px;"/><g id="sprotty_ArchitectureBlockImpl$cir_top/AssignmentBlockImpl$result_out/GPortImpl$cnt_wireIN" class="sprotty-hidden hidden" transform="translate(0, 10)" style="display:block;height:0px;width:0px;"/><g id="sprotty_ArchitectureBlockImpl$cir_top/AssignmentBlockImpl$result_out/GPortImpl$result_outOUT" class="sprotty-hidden hidden" transform="translate(19.34375, 15)" style="display:block;height:0px;width:0px;"/></g><g id="sprotty_ArchitectureBlockImpl$cir_top/AssignmentBlockImpl$cnt_wire" class="statement" transform="translate(230.625, 112)"><rect x="0" y="0" rx="10" ry="5" width="19.34375" height="20" class="sprotty-node" style="fill:rgb(245, 245, 245);stroke:rgb(112, 112, 112);"/><text class="clickable sprotty-label statementtype" id="sprotty_ArchitectureBlockImpl$cir_top/AssignmentBlockImpl$cnt_wire/labeltype" transform="translate(5, 5.328125) translate(4.671875, 7.34375)" style="cursor:default;font-size:8px;font-weight:700;perspective-origin:-0.0104167px 0px;fill:rgb(112, 112, 112);text-anchor:middle;">&lt;=</text><g id="sprotty_ArchitectureBlockImpl$cir_top/AssignmentBlockImpl$cnt_wire/GPortImpl$cntIN" class="sprotty-hidden hidden" transform="translate(0, 10)" style="display:block;height:0px;width:0px;"/><g id="sprotty_ArchitectureBlockImpl$cir_top/AssignmentBlockImpl$cnt_wire/GPortImpl$cntOUT" class="sprotty-hidden hidden" transform="translate(19.34375, 10)" style="display:block;height:0px;width:0px;"/></g><g id="sprotty_ArchitectureBlockImpl$cir_top/InstantiationBlockImpl$u_encdec" class="instantiation" transform="translate(881.3125, 278.66666666666663)"><g class="sprotty-block" style="fill:rgb(255, 255, 255);stroke:rgb(48, 48, 48);stroke-dasharray:0px;"><rect x="0" y="0" rx="1" ry="1" width="273.40625" height="84"/><text x="136.703125" y="12" class="sprotty-block-name" style="cursor:pointer;font-weight:700;perspective-origin:91.2083px 0px;fill:rgb(48, 48, 48);stroke:rgba(0, 0, 0, 0);dominant-baseline:middle;text-anchor:middle;">u_encdec : one_round_for_encdec</text><line x1="0" y1="20" x2="273.40625" y2="20"/></g><g id="sprotty_ArchitectureBlockImpl$cir_top/InstantiationBlockImpl$u_encdec/BPortImpl$round_key_in" class="triangle" transform="translate(0, 66)"><path d="M 0,0 L 5,2.5 L 0,5 Z" transform="translate(-1.67, -2.5)" class="sprotty-port" style="fill:rgb(48, 48, 48);stroke:rgb(48, 48, 48);"/><text class="clickable sprotty-label port" id="sprotty_ArchitectureBlockImpl$cir_top/InstantiationBlockImpl$u_encdec/BPortImpl$round_key_in/label" transform="translate(6, -9) translate(38.625, 14)" style="cursor:default;font-size:12px;perspective-origin:0px 0px;fill:rgb(48, 48, 48);text-anchor:middle;">round_key_in</text></g><g id="sprotty_ArchitectureBlockImpl$cir_top/InstantiationBlockImpl$u_encdec/BPortImpl$data_in" class="triangle" transform="translate(0, 38)"><path d="M 0,0 L 5,2.5 L 0,5 Z" transform="translate(-1.67, -2.5)" class="sprotty-port" style="fill:rgb(48, 48, 48);stroke:rgb(48, 48, 48);"/><text class="clickable sprotty-label port" id="sprotty_ArchitectureBlockImpl$cir_top/InstantiationBlockImpl$u_encdec/BPortImpl$data_in/label" transform="translate(6, -9) translate(21.1875, 14)" style="cursor:default;font-size:12px;perspective-origin:0px 0px;fill:rgb(48, 48, 48);text-anchor:middle;">data_in</text></g><g id="sprotty_ArchitectureBlockImpl$cir_top/InstantiationBlockImpl$u_encdec/BPortImpl$result_out" class="triangle" transform="translate(273.40625, 52)"><path d="M 0,0 L 5,2.5 L 0,5 Z" transform="translate(-1.67, -2.5)" class="sprotty-port" style="fill:rgb(48, 48, 48);stroke:rgb(48, 48, 48);"/><text class="clickable sprotty-label port" id="sprotty_ArchitectureBlockImpl$cir_top/InstantiationBlockImpl$u_encdec/BPortImpl$result_out/label" transform="translate(-64.625, -9) translate(28.90625, 14)" style="cursor:default;font-size:12px;perspective-origin:0.270833px 0px;fill:rgb(48, 48, 48);text-anchor:middle;">result_out</text></g></g><g id="sprotty_ArchitectureBlockImpl$cir_top/InstantiationBlockImpl$u_key" class="instantiation" transform="translate(482.28125, 105)"><g class="sprotty-block" style="fill:rgb(255, 255, 255);stroke:rgb(48, 48, 48);stroke-dasharray:0px;"><rect x="0" y="0" rx="1" ry="1" width="252.5625" height="112"/><text x="126.28125" y="12" class="sprotty-block-name" style="cursor:pointer;font-weight:700;perspective-origin:84.3021px 0px;fill:rgb(48, 48, 48);stroke:rgba(0, 0, 0, 0);dominant-baseline:middle;text-anchor:middle;">u_key : one_round_for_key_exp</text><line x1="0" y1="20" x2="252.5625" y2="20"/></g><g id="sprotty_ArchitectureBlockImpl$cir_top/InstantiationBlockImpl$u_key/BPortImpl$ck_parameter_in" class="triangle" transform="translate(0, 94)"><path d="M 0,0 L 5,2.5 L 0,5 Z" transform="translate(-1.67, -2.5)" class="sprotty-port" style="fill:rgb(48, 48, 48);stroke:rgb(48, 48, 48);"/><text class="clickable sprotty-label port" id="sprotty_ArchitectureBlockImpl$cir_top/InstantiationBlockImpl$u_key/BPortImpl$ck_parameter_in/label" transform="translate(6, -9) translate(47.59375, 14)" style="cursor:default;font-size:12px;perspective-origin:0px 0px;fill:rgb(48, 48, 48);text-anchor:middle;">ck_parameter_in</text></g><g id="sprotty_ArchitectureBlockImpl$cir_top/InstantiationBlockImpl$u_key/BPortImpl$data_in" class="triangle" transform="translate(0, 66)"><path d="M 0,0 L 5,2.5 L 0,5 Z" transform="translate(-1.67, -2.5)" class="sprotty-port" style="fill:rgb(48, 48, 48);stroke:rgb(48, 48, 48);"/><text class="clickable sprotty-label port" id="sprotty_ArchitectureBlockImpl$cir_top/InstantiationBlockImpl$u_key/BPortImpl$data_in/label" transform="translate(6, -9) translate(21.1875, 14)" style="cursor:default;font-size:12px;perspective-origin:0px 0px;fill:rgb(48, 48, 48);text-anchor:middle;">data_in</text></g><g id="sprotty_ArchitectureBlockImpl$cir_top/InstantiationBlockImpl$u_key/BPortImpl$count_round_in" class="triangle" transform="translate(0, 38)"><path d="M 0,0 L 5,2.5 L 0,5 Z" transform="translate(-1.67, -2.5)" class="sprotty-port" style="fill:rgb(48, 48, 48);stroke:rgb(48, 48, 48);"/><text class="clickable sprotty-label port" id="sprotty_ArchitectureBlockImpl$cir_top/InstantiationBlockImpl$u_key/BPortImpl$count_round_in/label" transform="translate(6, -9) translate(45.078125, 14)" style="cursor:default;font-size:12px;perspective-origin:0px 0px;fill:rgb(48, 48, 48);text-anchor:middle;">count_round_in</text></g><g id="sprotty_ArchitectureBlockImpl$cir_top/InstantiationBlockImpl$u_key/BPortImpl$result_out" class="triangle" transform="translate(252.5625, 66)"><path d="M 0,0 L 5,2.5 L 0,5 Z" transform="translate(-1.67, -2.5)" class="sprotty-port" style="fill:rgb(48, 48, 48);stroke:rgb(48, 48, 48);"/><text class="clickable sprotty-label port" id="sprotty_ArchitectureBlockImpl$cir_top/InstantiationBlockImpl$u_key/BPortImpl$result_out/label" transform="translate(-64.625, -9) translate(28.90625, 14)" style="cursor:default;font-size:12px;perspective-origin:0.270833px 0px;fill:rgb(48, 48, 48);text-anchor:middle;">result_out</text></g></g><g id="sprotty_ArchitectureBlockImpl$cir_top/InstantiationBlockImpl$u_get_cki" class="instantiation" transform="translate(269.96875, 161)"><g class="sprotty-block" style="fill:rgb(255, 255, 255);stroke:rgb(48, 48, 48);stroke-dasharray:0px;"><rect x="0" y="0" rx="1" ry="1" width="192.3125" height="56"/><text x="96.15625" y="12" class="sprotty-block-name" style="cursor:pointer;font-weight:700;perspective-origin:64.1042px 0px;fill:rgb(48, 48, 48);stroke:rgba(0, 0, 0, 0);dominant-baseline:middle;text-anchor:middle;">u_get_cki : get_cki</text><line x1="0" y1="20" x2="192.3125" y2="20"/></g><g id="sprotty_ArchitectureBlockImpl$cir_top/InstantiationBlockImpl$u_get_cki/BPortImpl$count_round_in" class="triangle" transform="translate(0, 38)"><path d="M 0,0 L 5,2.5 L 0,5 Z" transform="translate(-1.67, -2.5)" class="sprotty-port" style="fill:rgb(48, 48, 48);stroke:rgb(48, 48, 48);"/><text class="clickable sprotty-label port" id="sprotty_ArchitectureBlockImpl$cir_top/InstantiationBlockImpl$u_get_cki/BPortImpl$count_round_in/label" transform="translate(6, -9) translate(45.078125, 14)" style="cursor:default;font-size:12px;perspective-origin:0px 0px;fill:rgb(48, 48, 48);text-anchor:middle;">count_round_in</text></g><g id="sprotty_ArchitectureBlockImpl$cir_top/InstantiationBlockImpl$u_get_cki/BPortImpl$cki_out" class="triangle" transform="translate(192.3125, 38)"><path d="M 0,0 L 5,2.5 L 0,5 Z" transform="translate(-1.67, -2.5)" class="sprotty-port" style="fill:rgb(48, 48, 48);stroke:rgb(48, 48, 48);"/><text class="clickable sprotty-label port" id="sprotty_ArchitectureBlockImpl$cir_top/InstantiationBlockImpl$u_get_cki/BPortImpl$cki_out/label" transform="translate(-48.65625, -9) translate(20.921875, 14)" style="cursor:default;font-size:12px;perspective-origin:0.270833px 0px;fill:rgb(48, 48, 48);text-anchor:middle;">cki_out</text></g></g><g id="sprotty_ArchitectureBlockImpl$cir_top/BPortImpl$in_valid" class="triangle" transform="translate(0, 262)"><path d="M 0,0 L 5,2.5 L 0,5 Z" transform="translate(-1.67, -2.5)" class="sprotty-port" style="fill:rgb(48, 48, 48);stroke:rgb(48, 48, 48);"/><text class="clickable sprotty-label port" id="sprotty_ArchitectureBlockImpl$cir_top/BPortImpl$in_valid/label" transform="translate(6, 6) translate(22.140625, 14)" style="cursor:default;font-size:12px;perspective-origin:0px 0px;fill:rgb(48, 48, 48);text-anchor:middle;">in_valid</text></g><g id="sprotty_ArchitectureBlockImpl$cir_top/BPortImpl$key_in" class="triangle" transform="translate(0, 330)"><path d="M 0,0 L 5,2.5 L 0,5 Z" transform="translate(-1.67, -2.5)" class="sprotty-port" style="fill:rgb(48, 48, 48);stroke:rgb(48, 48, 48);"/><text class="clickable sprotty-label port" id="sprotty_ArchitectureBlockImpl$cir_top/BPortImpl$key_in/label" transform="translate(6, 6) translate(18.34375, 14)" style="cursor:default;font-size:12px;perspective-origin:0px 0px;fill:rgb(48, 48, 48);text-anchor:middle;">key_in</text></g><g id="sprotty_ArchitectureBlockImpl$cir_top/BPortImpl$plaintext_in" class="triangle" transform="translate(0, 296)"><path d="M 0,0 L 5,2.5 L 0,5 Z" transform="translate(-1.67, -2.5)" class="sprotty-port" style="fill:rgb(48, 48, 48);stroke:rgb(48, 48, 48);"/><text class="clickable sprotty-label port" id="sprotty_ArchitectureBlockImpl$cir_top/BPortImpl$plaintext_in/label" transform="translate(6, 6) translate(33.34375, 14)" style="cursor:default;font-size:12px;perspective-origin:0px 0px;fill:rgb(48, 48, 48);text-anchor:middle;">plaintext_in</text></g><g id="sprotty_ArchitectureBlockImpl$cir_top/BPortImpl$reset" class="triangle" transform="translate(0, 227.99999999999997)"><path d="M 0,0 L 5,2.5 L 0,5 Z" transform="translate(-1.67, -2.5)" class="sprotty-port" style="fill:rgb(48, 48, 48);stroke:rgb(48, 48, 48);"/><text class="clickable sprotty-label port" id="sprotty_ArchitectureBlockImpl$cir_top/BPortImpl$reset/label" transform="translate(6, 6) translate(13.921875, 14)" style="cursor:default;font-size:12px;perspective-origin:0.270833px 0px;fill:rgb(48, 48, 48);text-anchor:middle;">reset</text></g><g id="sprotty_ArchitectureBlockImpl$cir_top/BPortImpl$clk" class="triangle" transform="translate(0, 93)"><path d="M 0,0 L 5,2.5 L 0,5 Z" transform="translate(-1.67, -2.5)" class="sprotty-port" style="fill:rgb(48, 48, 48);stroke:rgb(48, 48, 48);"/><text class="clickable sprotty-label port" id="sprotty_ArchitectureBlockImpl$cir_top/BPortImpl$clk/label" transform="translate(6, 6) translate(8.078125, 14)" style="cursor:default;font-size:12px;perspective-origin:0.239583px 0px;fill:rgb(48, 48, 48);text-anchor:middle;">clk</text></g><g id="sprotty_ArchitectureBlockImpl$cir_top/BPortImpl$result_out" class="triangle" transform="translate(1273.6875, 325.66666666666663)"><path d="M 0,0 L 5,2.5 L 0,5 Z" transform="translate(-1.67, -2.5)" class="sprotty-port" style="fill:rgb(48, 48, 48);stroke:rgb(48, 48, 48);"/><text class="clickable sprotty-label port" id="sprotty_ArchitectureBlockImpl$cir_top/BPortImpl$result_out/label" transform="translate(-64.625, 6) translate(28.90625, 14)" style="cursor:default;font-size:12px;perspective-origin:0.270833px 0px;fill:rgb(48, 48, 48);text-anchor:middle;">result_out</text></g><g id="sprotty_ArchitectureBlockImpl$cir_top/BPortImpl$out_valid" class="triangle" transform="translate(1273.6875, 45)"><path d="M 0,0 L 5,2.5 L 0,5 Z" transform="translate(-1.67, -2.5)" class="sprotty-port" style="fill:rgb(48, 48, 48);stroke:rgb(48, 48, 48);"/><text class="clickable sprotty-label port" id="sprotty_ArchitectureBlockImpl$cir_top/BPortImpl$out_valid/label" transform="translate(-58.71875, 6) translate(26.359375, 14)" style="cursor:default;font-size:12px;perspective-origin:0px 0px;fill:rgb(48, 48, 48);text-anchor:middle;">out_valid</text></g></g></g></svg>