<svg xmlns="http://www.w3.org/2000/svg" id="sprotty_work.tb_sm4_toplevel" class="sprotty-graph sprotty-block-diagram blockdiagram" style="font-family:&quot;Noto Sans&quot;, Helvetica, Arial, sans-serif;-webkit-locale:&quot;en&quot;;perspective-origin:0px 0px;transform-origin:0px 0px;" version="1.1" viewBox="7 7 331.21875 257.0703125" width="331.21875" height="257.0703125"><g transform="scale(1) translate(0,0)"><g id="sprotty_ArchitectureBlockImpl$tb_sm4_toplevel" class="architecture" transform="translate(12, 12)"><g class="sprotty-block" style="fill:rgb(255, 255, 255);stroke:rgb(48, 48, 48);stroke-dasharray:0px;"><rect x="0" y="0" rx="1" ry="1" width="321.21875" height="247.0703125"/><text x="160.609375" y="12" class="sprotty-block-name" style="cursor:pointer;font-weight:700;perspective-origin:106.948px 0px;fill:rgb(48, 48, 48);stroke:rgba(0, 0, 0, 0);dominant-baseline:middle;text-anchor:middle;">tb_sm4_toplevel</text><line x1="0" y1="20" x2="321.21875" y2="20"/></g><g id="sprotty_ArchitectureBlockImpl$tb_sm4_toplevel/AlwaysBlockImpl$null0/GPortImpl$clkOUT_to_ArchitectureBlockImpl$tb_sm4_toplevel/InstantiationBlockImpl$ENCRYPTOR/BPortImpl$CLK_i" class="sprotty-edge edge" style="fill:none;stroke:rgb(112, 112, 112);stroke-linejoin:round;"><g><path d="M 53.71875 46.0078125 L 61.71875 46.0078125 C 62.71875 46.0078125 63.71875 47.0078125 63.71875 48.0078125 L 63.71875 72.0703125 C 63.71875 73.0703125 64.71875 74.0703125 65.71875 74.0703125 L 83.71875 74.0703125 "/><path d="M 53.71875 46.0078125 L 61.71875 46.0078125 C 62.71875 46.0078125 63.71875 47.0078125 63.71875 48.0078125 L 63.71875 72.0703125 C 63.71875 73.0703125 64.71875 74.0703125 65.71875 74.0703125 L 83.71875 74.0703125 " class="clickable"/></g></g><g id="sprotty_ArchitectureBlockImpl$tb_sm4_toplevel/AssignmentBlockImpl$MK/GPortImpl$MKOUT_to_ArchitectureBlockImpl$tb_sm4_toplevel/InstantiationBlockImpl$ENCRYPTOR/BPortImpl$MK_i" class="sprotty-edge thick edge" style="fill:none;stroke:rgb(112, 112, 112);stroke-linejoin:round;stroke-width:3px;"><g><path d="M 53.71875 88.0234375 L 71.71875 88.0234375 C 72.71875 88.0234375 73.71875 89.0234375 73.71875 90.0234375 L 73.71875 128.0703125 C 73.71875 129.0703125 74.71875 130.0703125 75.71875 130.0703125 L 83.71875 130.0703125 "/><path d="M 53.71875 88.0234375 L 71.71875 88.0234375 C 72.71875 88.0234375 73.71875 89.0234375 73.71875 90.0234375 L 73.71875 128.0703125 C 73.71875 129.0703125 74.71875 130.0703125 75.71875 130.0703125 L 83.71875 130.0703125 " class="clickable"/></g></g><g id="sprotty_ArchitectureBlockImpl$tb_sm4_toplevel/AssignmentBlockImpl$MK_VALID/GPortImpl$MK_VALIDOUT_to_ArchitectureBlockImpl$tb_sm4_toplevel/InstantiationBlockImpl$ENCRYPTOR/BPortImpl$MK_VALID_i" class="sprotty-edge edge" style="fill:none;stroke:rgb(112, 112, 112);stroke-linejoin:round;"><g><path d="M 53.71875 130.0390625 L 61.71875 130.0390625 C 62.71875 130.0390625 63.71875 131.0390625 63.71875 132.0390625 L 63.71875 156.0703125 C 63.71875 157.0703125 64.71875 158.0703125 65.71875 158.0703125 L 83.71875 158.0703125 "/><path d="M 53.71875 130.0390625 L 61.71875 130.0390625 C 62.71875 130.0390625 63.71875 131.0390625 63.71875 132.0390625 L 63.71875 156.0703125 C 63.71875 157.0703125 64.71875 158.0703125 65.71875 158.0703125 L 83.71875 158.0703125 " class="clickable"/></g></g><g id="sprotty_ArchitectureBlockImpl$tb_sm4_toplevel/AssignmentBlockImpl$plaintext/GPortImpl$plaintextOUT_to_ArchitectureBlockImpl$tb_sm4_toplevel/InstantiationBlockImpl$ENCRYPTOR/BPortImpl$DAT_i" class="sprotty-edge thick edge" style="fill:none;stroke:rgb(112, 112, 112);stroke-linejoin:round;stroke-width:3px;"><g><path d="M 53.71875 172.0546875 L 61.71875 172.0546875 C 62.71875 172.0546875 63.71875 173.0546875 63.71875 174.0546875 L 63.71875 184.0703125 C 63.71875 185.0703125 64.71875 186.0703125 65.71875 186.0703125 L 83.71875 186.0703125 "/><path d="M 53.71875 172.0546875 L 61.71875 172.0546875 C 62.71875 172.0546875 63.71875 173.0546875 63.71875 174.0546875 L 63.71875 184.0703125 C 63.71875 185.0703125 64.71875 186.0703125 65.71875 186.0703125 L 83.71875 186.0703125 " class="clickable"/></g></g><g id="sprotty_ArchitectureBlockImpl$tb_sm4_toplevel/AssignmentBlockImpl$plaintext_valid/GPortImpl$plaintext_validOUT_to_ArchitectureBlockImpl$tb_sm4_toplevel/InstantiationBlockImpl$ENCRYPTOR/BPortImpl$DAT_VALID_i" class="sprotty-edge edge" style="fill:none;stroke:rgb(112, 112, 112);stroke-linejoin:round;"><g><path d="M 53.71875 214.0703125 L 83.71875 214.0703125 "/><path d="M 53.71875 214.0703125 L 83.71875 214.0703125 " class="clickable"/></g></g><g id="sprotty_ArchitectureBlockImpl$tb_sm4_toplevel/AlwaysBlockImpl$null0" class="statement" transform="translate(15, 35)"><rect x="0" y="0" rx="10" ry="5" width="38.71875" height="22.015625" class="sprotty-node" style="fill:rgb(245, 245, 245);stroke:rgb(112, 112, 112);"/><text class="clickable sprotty-label statementtype" id="sprotty_ArchitectureBlockImpl$tb_sm4_toplevel/AlwaysBlockImpl$null0/labeltype" transform="translate(5, 5) translate(14.34375, 9.34375)" style="cursor:default;font-size:8px;font-weight:700;perspective-origin:0.0104167px 0px;fill:rgb(112, 112, 112);text-anchor:middle;">always</text><g id="sprotty_ArchitectureBlockImpl$tb_sm4_toplevel/AlwaysBlockImpl$null0/GPortImpl$clkOUT" class="sprotty-hidden hidden" transform="translate(38.71875, 11.0078125)" style="display:block;height:0px;width:0px;"/></g><g id="sprotty_ArchitectureBlockImpl$tb_sm4_toplevel/AssignmentBlockImpl$plaintext_valid" class="statement" transform="translate(32.984375, 203.0625)"><rect x="0" y="0" rx="10" ry="5" width="20.734375" height="22.015625" class="sprotty-node" style="fill:rgb(245, 245, 245);stroke:rgb(112, 112, 112);"/><text class="clickable sprotty-label statementtype" id="sprotty_ArchitectureBlockImpl$tb_sm4_toplevel/AssignmentBlockImpl$plaintext_valid/labeltype" transform="translate(5, 5) translate(5.390625, 9.34375)" style="cursor:default;font-size:8px;font-weight:700;perspective-origin:-0.0104167px 0px;fill:rgb(112, 112, 112);text-anchor:middle;">&lt;=</text><g id="sprotty_ArchitectureBlockImpl$tb_sm4_toplevel/AssignmentBlockImpl$plaintext_valid/GPortImpl$plaintext_validOUT" class="sprotty-hidden hidden" transform="translate(20.734375, 11.0078125)" style="display:block;height:0px;width:0px;"/></g><g id="sprotty_ArchitectureBlockImpl$tb_sm4_toplevel/AssignmentBlockImpl$plaintext" class="statement" transform="translate(32.984375, 161.046875)"><rect x="0" y="0" rx="10" ry="5" width="20.734375" height="22.015625" class="sprotty-node" style="fill:rgb(245, 245, 245);stroke:rgb(112, 112, 112);"/><text class="clickable sprotty-label statementtype" id="sprotty_ArchitectureBlockImpl$tb_sm4_toplevel/AssignmentBlockImpl$plaintext/labeltype" transform="translate(5, 5) translate(5.390625, 9.34375)" style="cursor:default;font-size:8px;font-weight:700;perspective-origin:-0.0104167px 0px;fill:rgb(112, 112, 112);text-anchor:middle;">&lt;=</text><g id="sprotty_ArchitectureBlockImpl$tb_sm4_toplevel/AssignmentBlockImpl$plaintext/GPortImpl$plaintextOUT" class="sprotty-hidden hidden" transform="translate(20.734375, 11.0078125)" style="display:block;height:0px;width:0px;"/></g><g id="sprotty_ArchitectureBlockImpl$tb_sm4_toplevel/AssignmentBlockImpl$MK_VALID" class="statement" transform="translate(32.984375, 119.03125)"><rect x="0" y="0" rx="10" ry="5" width="20.734375" height="22.015625" class="sprotty-node" style="fill:rgb(245, 245, 245);stroke:rgb(112, 112, 112);"/><text class="clickable sprotty-label statementtype" id="sprotty_ArchitectureBlockImpl$tb_sm4_toplevel/AssignmentBlockImpl$MK_VALID/labeltype" transform="translate(5, 5) translate(5.390625, 9.34375)" style="cursor:default;font-size:8px;font-weight:700;perspective-origin:-0.0104167px 0px;fill:rgb(112, 112, 112);text-anchor:middle;">&lt;=</text><g id="sprotty_ArchitectureBlockImpl$tb_sm4_toplevel/AssignmentBlockImpl$MK_VALID/GPortImpl$MK_VALIDOUT" class="sprotty-hidden hidden" transform="translate(20.734375, 11.0078125)" style="display:block;height:0px;width:0px;"/></g><g id="sprotty_ArchitectureBlockImpl$tb_sm4_toplevel/AssignmentBlockImpl$MK" class="statement" transform="translate(32.984375, 77.015625)"><rect x="0" y="0" rx="10" ry="5" width="20.734375" height="22.015625" class="sprotty-node" style="fill:rgb(245, 245, 245);stroke:rgb(112, 112, 112);"/><text class="clickable sprotty-label statementtype" id="sprotty_ArchitectureBlockImpl$tb_sm4_toplevel/AssignmentBlockImpl$MK/labeltype" transform="translate(5, 5) translate(5.390625, 9.34375)" style="cursor:default;font-size:8px;font-weight:700;perspective-origin:-0.0104167px 0px;fill:rgb(112, 112, 112);text-anchor:middle;">&lt;=</text><g id="sprotty_ArchitectureBlockImpl$tb_sm4_toplevel/AssignmentBlockImpl$MK/GPortImpl$MKOUT" class="sprotty-hidden hidden" transform="translate(20.734375, 11.0078125)" style="display:block;height:0px;width:0px;"/></g><g id="sprotty_ArchitectureBlockImpl$tb_sm4_toplevel/InstantiationBlockImpl$ENCRYPTOR" class="instantiation" transform="translate(83.71875, 36.0703125)"><g class="sprotty-block" style="fill:rgb(255, 255, 255);stroke:rgb(48, 48, 48);stroke-dasharray:0px;"><rect x="0" y="0" rx="1" ry="1" width="222.5" height="196"/><text x="111.25" y="12" class="sprotty-block-name" style="cursor:pointer;font-weight:700;perspective-origin:74.2604px 0px;fill:rgb(48, 48, 48);stroke:rgba(0, 0, 0, 0);dominant-baseline:middle;text-anchor:middle;">ENCRYPTOR : sm4_toplevel</text><line x1="0" y1="20" x2="222.5" y2="20"/></g><g id="sprotty_ArchitectureBlockImpl$tb_sm4_toplevel/InstantiationBlockImpl$ENCRYPTOR/BPortImpl$DAT_VALID_i" class="triangle" transform="translate(0, 178)"><path d="M 0,0 L 5,2.5 L 0,5 Z" transform="translate(-1.67, -2.5)" class="sprotty-port" style="fill:rgb(48, 48, 48);stroke:rgb(48, 48, 48);"/><text class="clickable sprotty-label port" id="sprotty_ArchitectureBlockImpl$tb_sm4_toplevel/InstantiationBlockImpl$ENCRYPTOR/BPortImpl$DAT_VALID_i/label" transform="translate(6, -9) translate(35.421875, 14)" style="cursor:default;font-size:12px;perspective-origin:0.0104167px 0px;fill:rgb(48, 48, 48);text-anchor:middle;">DAT_VALID_i</text></g><g id="sprotty_ArchitectureBlockImpl$tb_sm4_toplevel/InstantiationBlockImpl$ENCRYPTOR/BPortImpl$DAT_i" class="triangle" transform="translate(0, 150)"><path d="M 0,0 L 5,2.5 L 0,5 Z" transform="translate(-1.67, -2.5)" class="sprotty-port" style="fill:rgb(48, 48, 48);stroke:rgb(48, 48, 48);"/><text class="clickable sprotty-label port" id="sprotty_ArchitectureBlockImpl$tb_sm4_toplevel/InstantiationBlockImpl$ENCRYPTOR/BPortImpl$DAT_i/label" transform="translate(6, -9) translate(15.9375, 14)" style="cursor:default;font-size:12px;perspective-origin:0.0104167px 0px;fill:rgb(48, 48, 48);text-anchor:middle;">DAT_i</text></g><g id="sprotty_ArchitectureBlockImpl$tb_sm4_toplevel/InstantiationBlockImpl$ENCRYPTOR/BPortImpl$MK_VALID_i" class="triangle" transform="translate(0, 122)"><path d="M 0,0 L 5,2.5 L 0,5 Z" transform="translate(-1.67, -2.5)" class="sprotty-port" style="fill:rgb(48, 48, 48);stroke:rgb(48, 48, 48);"/><text class="clickable sprotty-label port" id="sprotty_ArchitectureBlockImpl$tb_sm4_toplevel/InstantiationBlockImpl$ENCRYPTOR/BPortImpl$MK_VALID_i/label" transform="translate(6, -9) translate(33.25, 14)" style="cursor:default;font-size:12px;perspective-origin:0.0104167px 0px;fill:rgb(48, 48, 48);text-anchor:middle;">MK_VALID_i</text></g><g id="sprotty_ArchitectureBlockImpl$tb_sm4_toplevel/InstantiationBlockImpl$ENCRYPTOR/BPortImpl$MK_i" class="triangle" transform="translate(0, 94)"><path d="M 0,0 L 5,2.5 L 0,5 Z" transform="translate(-1.67, -2.5)" class="sprotty-port" style="fill:rgb(48, 48, 48);stroke:rgb(48, 48, 48);"/><text class="clickable sprotty-label port" id="sprotty_ArchitectureBlockImpl$tb_sm4_toplevel/InstantiationBlockImpl$ENCRYPTOR/BPortImpl$MK_i/label" transform="translate(6, -9) translate(13.765625, 14)" style="cursor:default;font-size:12px;perspective-origin:0.0104167px 0px;fill:rgb(48, 48, 48);text-anchor:middle;">MK_i</text></g><g id="sprotty_ArchitectureBlockImpl$tb_sm4_toplevel/InstantiationBlockImpl$ENCRYPTOR/BPortImpl$RST_N_i" class="triangle" transform="translate(0, 66)"><path d="M 0,0 L 5,2.5 L 0,5 Z" transform="translate(-1.67, -2.5)" class="sprotty-port" style="fill:rgb(48, 48, 48);stroke:rgb(48, 48, 48);"/><text class="clickable sprotty-label port" id="sprotty_ArchitectureBlockImpl$tb_sm4_toplevel/InstantiationBlockImpl$ENCRYPTOR/BPortImpl$RST_N_i/label" transform="translate(6, -9) translate(23.46875, 14)" style="cursor:default;font-size:12px;perspective-origin:0.0104167px 0px;fill:rgb(48, 48, 48);text-anchor:middle;">RST_N_i</text></g><g id="sprotty_ArchitectureBlockImpl$tb_sm4_toplevel/InstantiationBlockImpl$ENCRYPTOR/BPortImpl$CLK_i" class="triangle" transform="translate(0, 38)"><path d="M 0,0 L 5,2.5 L 0,5 Z" transform="translate(-1.67, -2.5)" class="sprotty-port" style="fill:rgb(48, 48, 48);stroke:rgb(48, 48, 48);"/><text class="clickable sprotty-label port" id="sprotty_ArchitectureBlockImpl$tb_sm4_toplevel/InstantiationBlockImpl$ENCRYPTOR/BPortImpl$CLK_i/label" transform="translate(6, -9) translate(15.96875, 14)" style="cursor:default;font-size:12px;perspective-origin:0.0104167px 0px;fill:rgb(48, 48, 48);text-anchor:middle;">CLK_i</text></g><g id="sprotty_ArchitectureBlockImpl$tb_sm4_toplevel/InstantiationBlockImpl$ENCRYPTOR/BPortImpl$DAT_o" class="triangle" transform="translate(222.5, 38)"><path d="M 0,0 L 5,2.5 L 0,5 Z" transform="translate(-1.67, -2.5)" class="sprotty-port" style="fill:rgb(48, 48, 48);stroke:rgb(48, 48, 48);"/><text class="clickable sprotty-label port" id="sprotty_ArchitectureBlockImpl$tb_sm4_toplevel/InstantiationBlockImpl$ENCRYPTOR/BPortImpl$DAT_o/label" transform="translate(-41.90625, -9) translate(17.921875, 14)" style="cursor:default;font-size:12px;perspective-origin:0.0208333px 0px;fill:rgb(48, 48, 48);text-anchor:middle;">DAT_o</text></g><g id="sprotty_ArchitectureBlockImpl$tb_sm4_toplevel/InstantiationBlockImpl$ENCRYPTOR/BPortImpl$DAT_READY_o" class="triangle" transform="translate(222.5, 178)"><path d="M 0,0 L 5,2.5 L 0,5 Z" transform="translate(-1.67, -2.5)" class="sprotty-port" style="fill:rgb(48, 48, 48);stroke:rgb(48, 48, 48);"/><text class="clickable sprotty-label port" id="sprotty_ArchitectureBlockImpl$tb_sm4_toplevel/InstantiationBlockImpl$ENCRYPTOR/BPortImpl$DAT_READY_o/label" transform="translate(-84.9375, -9) translate(39.4375, 14)" style="cursor:default;font-size:12px;perspective-origin:0.0208333px 0px;fill:rgb(48, 48, 48);text-anchor:middle;">DAT_READY_o</text></g></g></g></g></svg>