<svg xmlns="http://www.w3.org/2000/svg" id="sprotty_work.sbox_32b" class="sprotty-graph sprotty-block-diagram blockdiagram" style="font-family:&quot;Noto Sans&quot;, Helvetica, Arial, sans-serif;-webkit-locale:&quot;en&quot;;perspective-origin:0px 0px;transform-origin:0px 0px;" version="1.1" viewBox="7 7 272.0625 344" width="272.0625" height="344"><g transform="scale(1) translate(0,0)"><g id="sprotty_ArchitectureBlockImpl$sbox_32b" class="architecture" transform="translate(12, 12)"><g class="sprotty-block" style="fill:rgb(255, 255, 255);stroke:rgb(48, 48, 48);stroke-dasharray:0px;"><rect x="0" y="0" rx="1" ry="1" width="262.0625" height="334"/><text x="131.03125" y="12" class="sprotty-block-name" style="cursor:pointer;font-weight:700;perspective-origin:87.25px 0px;fill:rgb(48, 48, 48);stroke:rgba(0, 0, 0, 0);dominant-baseline:middle;text-anchor:middle;">sbox_32b</text><line x1="0" y1="20" x2="262.0625" y2="20"/></g><g id="sprotty_ArchitectureBlockImpl$sbox_32b/InstantiationBlockImpl$SBOX1/BPortImpl$Y_o_to_ArchitectureBlockImpl$sbox_32b/BPortImpl$Y_o" class="sprotty-edge thick edge" style="fill:none;stroke:rgb(112, 112, 112);stroke-linejoin:round;stroke-width:3px;"><g><path d="M 199.96875 301 L 207.96875 301 C 208.96875 301 209.96875 300 209.96875 299 L 209.96875 151 C 209.96875 150 210.96875 149 211.96875 149 L 262.0625 149 "/><path d="M 199.96875 301 L 207.96875 301 C 208.96875 301 209.96875 300 209.96875 299 L 209.96875 151 C 209.96875 150 210.96875 149 211.96875 149 L 262.0625 149 " class="clickable"/></g></g><g id="sprotty_ArchitectureBlockImpl$sbox_32b/InstantiationBlockImpl$SBOX2/BPortImpl$Y_o_to_ArchitectureBlockImpl$sbox_32b/BPortImpl$Y_o" class="sprotty-edge thick edge" style="fill:none;stroke:rgb(112, 112, 112);stroke-linejoin:round;stroke-width:3px;"><g><path d="M 199.96875 149 L 262.0625 149 "/><path d="M 199.96875 149 L 262.0625 149 " class="clickable"/></g></g><g id="sprotty_ArchitectureBlockImpl$sbox_32b/InstantiationBlockImpl$SBOX3/BPortImpl$Y_o_to_ArchitectureBlockImpl$sbox_32b/BPortImpl$Y_o" class="sprotty-edge thick edge" style="fill:none;stroke:rgb(112, 112, 112);stroke-linejoin:round;stroke-width:3px;"><g><path d="M 199.96875 73 L 207.96875 73 C 208.96875 73 209.96875 74 209.96875 75 L 209.96875 147 C 209.96875 148 210.96875 149 211.96875 149 L 262.0625 149 "/><path d="M 199.96875 73 L 207.96875 73 C 208.96875 73 209.96875 74 209.96875 75 L 209.96875 147 C 209.96875 148 210.96875 149 211.96875 149 L 262.0625 149 " class="clickable"/></g><circle r="3" id="sprotty_ArchitectureBlockImpl$sbox_32b/InstantiationBlockImpl$SBOX3/BPortImpl$Y_o_to_ArchitectureBlockImpl$sbox_32b/BPortImpl$Y_o/junction0" transform="translate(209.96875, 149)" class="sprotty-junction thick" style="fill:rgb(112, 112, 112);stroke:none;"/></g><g id="sprotty_ArchitectureBlockImpl$sbox_32b/InstantiationBlockImpl$SBOX4/BPortImpl$Y_o_to_ArchitectureBlockImpl$sbox_32b/BPortImpl$Y_o" class="sprotty-edge thick edge" style="fill:none;stroke:rgb(112, 112, 112);stroke-linejoin:round;stroke-width:3px;"><g><path d="M 199.96875 225 L 207.96875 225 C 208.96875 225 209.96875 224 209.96875 223 L 209.96875 151 C 209.96875 150 210.96875 149 211.96875 149 L 262.0625 149 "/><path d="M 199.96875 225 L 207.96875 225 C 208.96875 225 209.96875 224 209.96875 223 L 209.96875 151 C 209.96875 150 210.96875 149 211.96875 149 L 262.0625 149 " class="clickable"/></g><circle r="3" id="sprotty_ArchitectureBlockImpl$sbox_32b/InstantiationBlockImpl$SBOX4/BPortImpl$Y_o_to_ArchitectureBlockImpl$sbox_32b/BPortImpl$Y_o/junction0" transform="translate(209.96875, 225)" class="sprotty-junction thick" style="fill:rgb(112, 112, 112);stroke:none;"/></g><g id="sprotty_ArchitectureBlockImpl$sbox_32b/BPortImpl$X_i_to_ArchitectureBlockImpl$sbox_32b/InstantiationBlockImpl$SBOX1/BPortImpl$X_i" class="sprotty-edge thick edge" style="fill:none;stroke:rgb(112, 112, 112);stroke-linejoin:round;stroke-width:3px;"><g><path d="M 0 73 L 46.59375 73 C 47.59375 73 48.59375 74 48.59375 75 L 48.59375 299 C 48.59375 300 49.59375 301 50.59375 301 L 58.59375 301 "/><path d="M 0 73 L 46.59375 73 C 47.59375 73 48.59375 74 48.59375 75 L 48.59375 299 C 48.59375 300 49.59375 301 50.59375 301 L 58.59375 301 " class="clickable"/></g><circle r="3" id="sprotty_ArchitectureBlockImpl$sbox_32b/BPortImpl$X_i_to_ArchitectureBlockImpl$sbox_32b/InstantiationBlockImpl$SBOX1/BPortImpl$X_i/junction0" transform="translate(48.59375, 73)" class="sprotty-junction thick" style="fill:rgb(112, 112, 112);stroke:none;"/></g><g id="sprotty_ArchitectureBlockImpl$sbox_32b/BPortImpl$X_i_to_ArchitectureBlockImpl$sbox_32b/InstantiationBlockImpl$SBOX2/BPortImpl$X_i" class="sprotty-edge thick edge" style="fill:none;stroke:rgb(112, 112, 112);stroke-linejoin:round;stroke-width:3px;"><g><path d="M 0 73 L 46.59375 73 C 47.59375 73 48.59375 74 48.59375 75 L 48.59375 147 C 48.59375 148 49.59375 149 50.59375 149 L 58.59375 149 "/><path d="M 0 73 L 46.59375 73 C 47.59375 73 48.59375 74 48.59375 75 L 48.59375 147 C 48.59375 148 49.59375 149 50.59375 149 L 58.59375 149 " class="clickable"/></g><circle r="3" id="sprotty_ArchitectureBlockImpl$sbox_32b/BPortImpl$X_i_to_ArchitectureBlockImpl$sbox_32b/InstantiationBlockImpl$SBOX2/BPortImpl$X_i/junction0" transform="translate(48.59375, 149)" class="sprotty-junction thick" style="fill:rgb(112, 112, 112);stroke:none;"/></g><g id="sprotty_ArchitectureBlockImpl$sbox_32b/BPortImpl$X_i_to_ArchitectureBlockImpl$sbox_32b/InstantiationBlockImpl$SBOX3/BPortImpl$X_i" class="sprotty-edge thick edge" style="fill:none;stroke:rgb(112, 112, 112);stroke-linejoin:round;stroke-width:3px;"><g><path d="M 0 73 L 58.59375 73 "/><path d="M 0 73 L 58.59375 73 " class="clickable"/></g></g><g id="sprotty_ArchitectureBlockImpl$sbox_32b/BPortImpl$X_i_to_ArchitectureBlockImpl$sbox_32b/InstantiationBlockImpl$SBOX4/BPortImpl$X_i" class="sprotty-edge thick edge" style="fill:none;stroke:rgb(112, 112, 112);stroke-linejoin:round;stroke-width:3px;"><g><path d="M 0 73 L 46.59375 73 C 47.59375 73 48.59375 74 48.59375 75 L 48.59375 223 C 48.59375 224 49.59375 225 50.59375 225 L 58.59375 225 "/><path d="M 0 73 L 46.59375 73 C 47.59375 73 48.59375 74 48.59375 75 L 48.59375 223 C 48.59375 224 49.59375 225 50.59375 225 L 58.59375 225 " class="clickable"/></g><circle r="3" id="sprotty_ArchitectureBlockImpl$sbox_32b/BPortImpl$X_i_to_ArchitectureBlockImpl$sbox_32b/InstantiationBlockImpl$SBOX4/BPortImpl$X_i/junction0" transform="translate(48.59375, 225)" class="sprotty-junction thick" style="fill:rgb(112, 112, 112);stroke:none;"/></g><g id="sprotty_ArchitectureBlockImpl$sbox_32b/InstantiationBlockImpl$SBOX4" class="instantiation" transform="translate(58.59375, 187)"><g class="sprotty-block" style="fill:rgb(255, 255, 255);stroke:rgb(48, 48, 48);stroke-dasharray:0px;"><rect x="0" y="0" rx="1" ry="1" width="141.375" height="56"/><text x="70.6875" y="12" class="sprotty-block-name" style="cursor:pointer;font-weight:700;perspective-origin:47.2396px 0px;fill:rgb(48, 48, 48);stroke:rgba(0, 0, 0, 0);dominant-baseline:middle;text-anchor:middle;">SBOX4 : sbox_8b</text><line x1="0" y1="20" x2="141.375" y2="20"/></g><g id="sprotty_ArchitectureBlockImpl$sbox_32b/InstantiationBlockImpl$SBOX4/BPortImpl$X_i" class="triangle" transform="translate(0, 38)"><path d="M 0,0 L 5,2.5 L 0,5 Z" transform="translate(-1.67, -2.5)" class="sprotty-port" style="fill:rgb(48, 48, 48);stroke:rgb(48, 48, 48);"/><text class="clickable sprotty-label port" id="sprotty_ArchitectureBlockImpl$sbox_32b/InstantiationBlockImpl$SBOX4/BPortImpl$X_i/label" transform="translate(6, -9) translate(9.109375, 14)" style="cursor:default;font-size:12px;perspective-origin:-0.208333px 0px;fill:rgb(48, 48, 48);text-anchor:middle;">X_i</text></g><g id="sprotty_ArchitectureBlockImpl$sbox_32b/InstantiationBlockImpl$SBOX4/BPortImpl$Y_o" class="triangle" transform="translate(141.375, 38)"><path d="M 0,0 L 5,2.5 L 0,5 Z" transform="translate(-1.67, -2.5)" class="sprotty-port" style="fill:rgb(48, 48, 48);stroke:rgb(48, 48, 48);"/><text class="clickable sprotty-label port" id="sprotty_ArchitectureBlockImpl$sbox_32b/InstantiationBlockImpl$SBOX4/BPortImpl$Y_o/label" transform="translate(-27.09375, -9) translate(10.84375, 14)" style="cursor:default;font-size:12px;perspective-origin:-0.197917px 0px;fill:rgb(48, 48, 48);text-anchor:middle;">Y_o</text></g></g><g id="sprotty_ArchitectureBlockImpl$sbox_32b/InstantiationBlockImpl$SBOX3" class="instantiation" transform="translate(58.59375, 35)"><g class="sprotty-block" style="fill:rgb(255, 255, 255);stroke:rgb(48, 48, 48);stroke-dasharray:0px;"><rect x="0" y="0" rx="1" ry="1" width="141.375" height="56"/><text x="70.6875" y="12" class="sprotty-block-name" style="cursor:pointer;font-weight:700;perspective-origin:47.2396px 0px;fill:rgb(48, 48, 48);stroke:rgba(0, 0, 0, 0);dominant-baseline:middle;text-anchor:middle;">SBOX3 : sbox_8b</text><line x1="0" y1="20" x2="141.375" y2="20"/></g><g id="sprotty_ArchitectureBlockImpl$sbox_32b/InstantiationBlockImpl$SBOX3/BPortImpl$X_i" class="triangle" transform="translate(0, 38)"><path d="M 0,0 L 5,2.5 L 0,5 Z" transform="translate(-1.67, -2.5)" class="sprotty-port" style="fill:rgb(48, 48, 48);stroke:rgb(48, 48, 48);"/><text class="clickable sprotty-label port" id="sprotty_ArchitectureBlockImpl$sbox_32b/InstantiationBlockImpl$SBOX3/BPortImpl$X_i/label" transform="translate(6, -9) translate(9.109375, 14)" style="cursor:default;font-size:12px;perspective-origin:-0.208333px 0px;fill:rgb(48, 48, 48);text-anchor:middle;">X_i</text></g><g id="sprotty_ArchitectureBlockImpl$sbox_32b/InstantiationBlockImpl$SBOX3/BPortImpl$Y_o" class="triangle" transform="translate(141.375, 38)"><path d="M 0,0 L 5,2.5 L 0,5 Z" transform="translate(-1.67, -2.5)" class="sprotty-port" style="fill:rgb(48, 48, 48);stroke:rgb(48, 48, 48);"/><text class="clickable sprotty-label port" id="sprotty_ArchitectureBlockImpl$sbox_32b/InstantiationBlockImpl$SBOX3/BPortImpl$Y_o/label" transform="translate(-27.09375, -9) translate(10.84375, 14)" style="cursor:default;font-size:12px;perspective-origin:-0.197917px 0px;fill:rgb(48, 48, 48);text-anchor:middle;">Y_o</text></g></g><g id="sprotty_ArchitectureBlockImpl$sbox_32b/InstantiationBlockImpl$SBOX2" class="instantiation" transform="translate(58.59375, 111)"><g class="sprotty-block" style="fill:rgb(255, 255, 255);stroke:rgb(48, 48, 48);stroke-dasharray:0px;"><rect x="0" y="0" rx="1" ry="1" width="141.375" height="56"/><text x="70.6875" y="12" class="sprotty-block-name" style="cursor:pointer;font-weight:700;perspective-origin:47.2396px 0px;fill:rgb(48, 48, 48);stroke:rgba(0, 0, 0, 0);dominant-baseline:middle;text-anchor:middle;">SBOX2 : sbox_8b</text><line x1="0" y1="20" x2="141.375" y2="20"/></g><g id="sprotty_ArchitectureBlockImpl$sbox_32b/InstantiationBlockImpl$SBOX2/BPortImpl$X_i" class="triangle" transform="translate(0, 38)"><path d="M 0,0 L 5,2.5 L 0,5 Z" transform="translate(-1.67, -2.5)" class="sprotty-port" style="fill:rgb(48, 48, 48);stroke:rgb(48, 48, 48);"/><text class="clickable sprotty-label port" id="sprotty_ArchitectureBlockImpl$sbox_32b/InstantiationBlockImpl$SBOX2/BPortImpl$X_i/label" transform="translate(6, -9) translate(9.109375, 14)" style="cursor:default;font-size:12px;perspective-origin:-0.208333px 0px;fill:rgb(48, 48, 48);text-anchor:middle;">X_i</text></g><g id="sprotty_ArchitectureBlockImpl$sbox_32b/InstantiationBlockImpl$SBOX2/BPortImpl$Y_o" class="triangle" transform="translate(141.375, 38)"><path d="M 0,0 L 5,2.5 L 0,5 Z" transform="translate(-1.67, -2.5)" class="sprotty-port" style="fill:rgb(48, 48, 48);stroke:rgb(48, 48, 48);"/><text class="clickable sprotty-label port" id="sprotty_ArchitectureBlockImpl$sbox_32b/InstantiationBlockImpl$SBOX2/BPortImpl$Y_o/label" transform="translate(-27.09375, -9) translate(10.84375, 14)" style="cursor:default;font-size:12px;perspective-origin:-0.197917px 0px;fill:rgb(48, 48, 48);text-anchor:middle;">Y_o</text></g></g><g id="sprotty_ArchitectureBlockImpl$sbox_32b/InstantiationBlockImpl$SBOX1" class="instantiation" transform="translate(58.59375, 263)"><g class="sprotty-block" style="fill:rgb(255, 255, 255);stroke:rgb(48, 48, 48);stroke-dasharray:0px;"><rect x="0" y="0" rx="1" ry="1" width="141.375" height="56"/><text x="70.6875" y="12" class="sprotty-block-name" style="cursor:pointer;font-weight:700;perspective-origin:47.2396px 0px;fill:rgb(48, 48, 48);stroke:rgba(0, 0, 0, 0);dominant-baseline:middle;text-anchor:middle;">SBOX1 : sbox_8b</text><line x1="0" y1="20" x2="141.375" y2="20"/></g><g id="sprotty_ArchitectureBlockImpl$sbox_32b/InstantiationBlockImpl$SBOX1/BPortImpl$X_i" class="triangle" transform="translate(0, 38)"><path d="M 0,0 L 5,2.5 L 0,5 Z" transform="translate(-1.67, -2.5)" class="sprotty-port" style="fill:rgb(48, 48, 48);stroke:rgb(48, 48, 48);"/><text class="clickable sprotty-label port" id="sprotty_ArchitectureBlockImpl$sbox_32b/InstantiationBlockImpl$SBOX1/BPortImpl$X_i/label" transform="translate(6, -9) translate(9.109375, 14)" style="cursor:default;font-size:12px;perspective-origin:-0.208333px 0px;fill:rgb(48, 48, 48);text-anchor:middle;">X_i</text></g><g id="sprotty_ArchitectureBlockImpl$sbox_32b/InstantiationBlockImpl$SBOX1/BPortImpl$Y_o" class="triangle" transform="translate(141.375, 38)"><path d="M 0,0 L 5,2.5 L 0,5 Z" transform="translate(-1.67, -2.5)" class="sprotty-port" style="fill:rgb(48, 48, 48);stroke:rgb(48, 48, 48);"/><text class="clickable sprotty-label port" id="sprotty_ArchitectureBlockImpl$sbox_32b/InstantiationBlockImpl$SBOX1/BPortImpl$Y_o/label" transform="translate(-27.09375, -9) translate(10.84375, 14)" style="cursor:default;font-size:12px;perspective-origin:-0.197917px 0px;fill:rgb(48, 48, 48);text-anchor:middle;">Y_o</text></g></g><g id="sprotty_ArchitectureBlockImpl$sbox_32b/BPortImpl$X_i" class="triangle" transform="translate(0, 73)"><path d="M 0,0 L 5,2.5 L 0,5 Z" transform="translate(-1.67, -2.5)" class="sprotty-port" style="fill:rgb(48, 48, 48);stroke:rgb(48, 48, 48);"/><text class="clickable sprotty-label port" id="sprotty_ArchitectureBlockImpl$sbox_32b/BPortImpl$X_i/label" transform="translate(6, 6) translate(9.109375, 14)" style="cursor:default;font-size:12px;perspective-origin:-0.208333px 0px;fill:rgb(48, 48, 48);text-anchor:middle;">X_i</text></g><g id="sprotty_ArchitectureBlockImpl$sbox_32b/BPortImpl$Y_o" class="triangle" transform="translate(262.0625, 149)"><path d="M 0,0 L 5,2.5 L 0,5 Z" transform="translate(-1.67, -2.5)" class="sprotty-port" style="fill:rgb(48, 48, 48);stroke:rgb(48, 48, 48);"/><text class="clickable sprotty-label port" id="sprotty_ArchitectureBlockImpl$sbox_32b/BPortImpl$Y_o/label" transform="translate(-27.09375, 6) translate(10.84375, 14)" style="cursor:default;font-size:12px;perspective-origin:-0.197917px 0px;fill:rgb(48, 48, 48);text-anchor:middle;">Y_o</text></g></g></g></svg>