<svg xmlns="http://www.w3.org/2000/svg" id="sprotty_work.mesenc" class="sprotty-graph sprotty-block-diagram blockdiagram" style="font-family:&quot;Noto Sans&quot;, Helvetica, Arial, sans-serif;-webkit-locale:&quot;en&quot;;perspective-origin:0px 0px;transform-origin:0px 0px;" version="1.1" viewBox="7 7 466.6875 264.0078125" width="466.6875" height="264.0078125"><g transform="scale(1) translate(0,0)"><g id="sprotty_ArchitectureBlockImpl$mesenc" class="architecture" transform="translate(12, 12)"><g class="sprotty-block" style="fill:rgb(255, 255, 255);stroke:rgb(48, 48, 48);stroke-dasharray:0px;"><rect x="0" y="0" rx="1" ry="1" width="456.6875" height="254.0078125"/><text x="228.34375" y="12" class="sprotty-block-name" style="cursor:pointer;font-weight:700;perspective-origin:152.302px 0px;fill:rgb(48, 48, 48);stroke:rgba(0, 0, 0, 0);dominant-baseline:middle;text-anchor:middle;">mesenc</text><line x1="0" y1="20" x2="456.6875" y2="20"/></g><g id="sprotty_ArchitectureBlockImpl$mesenc/AssignmentBlockImpl$DAT_o/GPortImpl$DAT_oOUT_to_ArchitectureBlockImpl$mesenc/BPortImpl$DAT_o" class="sprotty-edge thick edge" style="fill:none;stroke:rgb(112, 112, 112);stroke-linejoin:round;stroke-width:3px;"><g><path d="M 152.421875 50 L 456.6875 50 "/><path d="M 152.421875 50 L 456.6875 50 " class="clickable"/></g></g><g id="sprotty_ArchitectureBlockImpl$mesenc/BPortImpl$RK_i_to_ArchitectureBlockImpl$mesenc/AssignmentBlockImpl$a/GPortImpl$RK_iIN" class="sprotty-edge thick edge" style="fill:none;stroke:rgb(112, 112, 112);stroke-linejoin:round;stroke-width:3px;"><g><path d="M 0 127.0078125 L 131.6875 127.0078125 "/><path d="M 0 127.0078125 L 131.6875 127.0078125 " class="clickable"/></g></g><g id="sprotty_ArchitectureBlockImpl$mesenc/BPortImpl$CLK_i_to_ArchitectureBlockImpl$mesenc/AlwaysBlockImpl$null8/GPortImpl$CLK_iIN" class="sprotty-edge edge" style="fill:none;stroke:rgb(112, 112, 112);stroke-linejoin:round;"><g><path d="M 0 45 L 72.96875 45 "/><path d="M 0 45 L 72.96875 45 " class="clickable"/></g></g><g id="sprotty_ArchitectureBlockImpl$mesenc/BPortImpl$DAT_i_to_ArchitectureBlockImpl$mesenc/AlwaysBlockImpl$null8/GPortImpl$DAT_iIN" class="sprotty-edge thick edge" style="fill:none;stroke:rgb(112, 112, 112);stroke-linejoin:round;stroke-width:3px;"><g><path d="M 0 79 L 60.96875 79 C 61.96875 79 62.96875 78 62.96875 77 L 62.96875 57 C 62.96875 56 63.96875 55 64.96875 55 L 72.96875 55 "/><path d="M 0 79 L 60.96875 79 C 61.96875 79 62.96875 78 62.96875 77 L 62.96875 57 C 62.96875 56 63.96875 55 64.96875 55 L 72.96875 55 " class="clickable"/></g></g><g id="sprotty_ArchitectureBlockImpl$mesenc/AlwaysBlockImpl$null8/GPortImpl$XOUT_to_ArchitectureBlockImpl$mesenc/AssignmentBlockImpl$a/GPortImpl$XIN" class="sprotty-edge thick edge" style="fill:none;stroke:rgb(112, 112, 112);stroke-linejoin:round;stroke-width:3px;"><g><path d="M 111.6875 50 L 119.6875 50 C 120.6875 50 121.6875 51 121.6875 52 L 121.6875 115.0078125 C 121.6875 116.0078125 122.6875 117.0078125 123.6875 117.0078125 L 131.6875 117.0078125 "/><path d="M 111.6875 50 L 119.6875 50 C 120.6875 50 121.6875 51 121.6875 52 L 121.6875 115.0078125 C 121.6875 116.0078125 122.6875 117.0078125 123.6875 117.0078125 L 131.6875 117.0078125 " class="clickable"/></g><circle r="3" id="sprotty_ArchitectureBlockImpl$mesenc/AlwaysBlockImpl$null8/GPortImpl$XOUT_to_ArchitectureBlockImpl$mesenc/AssignmentBlockImpl$a/GPortImpl$XIN/junction0" transform="translate(121.6875, 50)" class="sprotty-junction thick" style="fill:rgb(112, 112, 112);stroke:none;"/></g><g id="sprotty_ArchitectureBlockImpl$mesenc/AlwaysBlockImpl$null8/GPortImpl$XOUT_to_ArchitectureBlockImpl$mesenc/AssignmentBlockImpl$DAT_o/GPortImpl$XIN" class="sprotty-edge thick edge" style="fill:none;stroke:rgb(112, 112, 112);stroke-linejoin:round;stroke-width:3px;"><g><path d="M 111.6875 50 L 131.6875 50 "/><path d="M 111.6875 50 L 131.6875 50 " class="clickable"/></g></g><g id="sprotty_ArchitectureBlockImpl$mesenc/AlwaysBlockImpl$null8/GPortImpl$XOUT_to_ArchitectureBlockImpl$mesenc/AlwaysBlockImpl$null7/GPortImpl$XIN" class="sprotty-edge thick edge" style="fill:none;stroke:rgb(112, 112, 112);stroke-linejoin:round;stroke-width:3px;"><g><path d="M 111.6875 50 L 119.6875 50 C 120.6875 50 121.6875 51 121.6875 52 L 121.6875 70.0078125 C 121.6875 71.0078125 122.6875 72.0078125 123.6875 72.0078125 L 341.0625 72.0078125 "/><path d="M 111.6875 50 L 119.6875 50 C 120.6875 50 121.6875 51 121.6875 52 L 121.6875 70.0078125 C 121.6875 71.0078125 122.6875 72.0078125 123.6875 72.0078125 L 341.0625 72.0078125 " class="clickable"/></g><circle r="3" id="sprotty_ArchitectureBlockImpl$mesenc/AlwaysBlockImpl$null8/GPortImpl$XOUT_to_ArchitectureBlockImpl$mesenc/AlwaysBlockImpl$null7/GPortImpl$XIN/junction0" transform="translate(121.6875, 72.0078125)" class="sprotty-junction thick" style="fill:rgb(112, 112, 112);stroke:none;"/></g><g id="sprotty_ArchitectureBlockImpl$mesenc/AlwaysBlockImpl$null7/GPortImpl$XOUT_to_ArchitectureBlockImpl$mesenc/AssignmentBlockImpl$a/GPortImpl$XIN" class="sprotty-edge thick edge" style="fill:none;stroke:rgb(112, 112, 112);stroke-linejoin:round;stroke-width:3px;"><g><path d="M 379.78125 77.0078125 L 387.78125 77.0078125 C 388.78125 77.0078125 389.78125 78.0078125 389.78125 79.0078125 L 389.78125 100.0078125 C 389.78125 101.0078125 388.78125 102.0078125 387.78125 102.0078125 L 333.0625 102.0078125 C 332.0625 102.0078125 331.0625 101.0078125 331.0625 100.0078125 L 331.0625 74.0078125 C 331.0625 73.0078125 330.0625 72.0078125 329.0625 72.0078125 L 123.6875 72.0078125 C 122.6875 72.0078125 121.6875 73.0078125 121.6875 74.0078125 L 121.6875 115.0078125 C 121.6875 116.0078125 122.6875 117.0078125 123.6875 117.0078125 L 131.6875 117.0078125 "/><path d="M 379.78125 77.0078125 L 387.78125 77.0078125 C 388.78125 77.0078125 389.78125 78.0078125 389.78125 79.0078125 L 389.78125 100.0078125 C 389.78125 101.0078125 388.78125 102.0078125 387.78125 102.0078125 L 333.0625 102.0078125 C 332.0625 102.0078125 331.0625 101.0078125 331.0625 100.0078125 L 331.0625 74.0078125 C 331.0625 73.0078125 330.0625 72.0078125 329.0625 72.0078125 L 123.6875 72.0078125 C 122.6875 72.0078125 121.6875 73.0078125 121.6875 74.0078125 L 121.6875 115.0078125 C 121.6875 116.0078125 122.6875 117.0078125 123.6875 117.0078125 L 131.6875 117.0078125 " class="clickable"/></g><circle r="3" id="sprotty_ArchitectureBlockImpl$mesenc/AlwaysBlockImpl$null7/GPortImpl$XOUT_to_ArchitectureBlockImpl$mesenc/AssignmentBlockImpl$a/GPortImpl$XIN/junction0" transform="translate(331.0625, 72.0078125)" class="sprotty-junction thick" style="fill:rgb(112, 112, 112);stroke:none;"/></g><g id="sprotty_ArchitectureBlockImpl$mesenc/AssignmentBlockImpl$a/GPortImpl$aOUT_to_ArchitectureBlockImpl$mesenc/InstantiationBlockImpl$SBOX/BPortImpl$X_i" class="sprotty-edge thick edge" style="fill:none;stroke:rgb(112, 112, 112);stroke-linejoin:round;stroke-width:3px;"><g><path d="M 152.421875 122.0078125 L 172.421875 122.0078125 "/><path d="M 152.421875 122.0078125 L 172.421875 122.0078125 " class="clickable"/></g></g><g id="sprotty_ArchitectureBlockImpl$mesenc/InstantiationBlockImpl$SBOX/BPortImpl$Y_o_to_ArchitectureBlockImpl$mesenc/AlwaysBlockImpl$null7/GPortImpl$bIN" class="sprotty-edge thick edge" style="fill:none;stroke:rgb(112, 112, 112);stroke-linejoin:round;stroke-width:3px;"><g><path d="M 311.0625 122.0078125 L 319.0625 122.0078125 C 320.0625 122.0078125 321.0625 121.0078125 321.0625 120.0078125 L 321.0625 84.0078125 C 321.0625 83.0078125 322.0625 82.0078125 323.0625 82.0078125 L 341.0625 82.0078125 "/><path d="M 311.0625 122.0078125 L 319.0625 122.0078125 C 320.0625 122.0078125 321.0625 121.0078125 321.0625 120.0078125 L 321.0625 84.0078125 C 321.0625 83.0078125 322.0625 82.0078125 323.0625 82.0078125 L 341.0625 82.0078125 " class="clickable"/></g></g><g id="sprotty_ArchitectureBlockImpl$mesenc/AlwaysBlockImpl$null7" class="statement" transform="translate(341.0625, 62.0078125)"><rect x="0" y="0" rx="10" ry="5" width="38.71875" height="30" class="sprotty-node" style="fill:rgb(245, 245, 245);stroke:rgb(112, 112, 112);"/><text class="clickable sprotty-label statementtype" id="sprotty_ArchitectureBlockImpl$mesenc/AlwaysBlockImpl$null7/labeltype" transform="translate(5, 8.9921875) translate(14.34375, 9.34375)" style="cursor:default;font-size:8px;font-weight:700;perspective-origin:0.0104167px 0px;fill:rgb(112, 112, 112);text-anchor:middle;">always</text><g id="sprotty_ArchitectureBlockImpl$mesenc/AlwaysBlockImpl$null7/GPortImpl$XIN" class="sprotty-hidden hidden" transform="translate(0, 10)" style="display:block;height:0px;width:0px;"/><g id="sprotty_ArchitectureBlockImpl$mesenc/AlwaysBlockImpl$null7/GPortImpl$bIN" class="sprotty-hidden hidden" transform="translate(0, 20)" style="display:block;height:0px;width:0px;"/><g id="sprotty_ArchitectureBlockImpl$mesenc/AlwaysBlockImpl$null7/GPortImpl$XOUT" class="sprotty-hidden hidden" transform="translate(38.71875, 15)" style="display:block;height:0px;width:0px;"/></g><g id="sprotty_ArchitectureBlockImpl$mesenc/AlwaysBlockImpl$null8" class="statement" transform="translate(72.96875, 35)"><rect x="0" y="0" rx="10" ry="5" width="38.71875" height="30" class="sprotty-node" style="fill:rgb(245, 245, 245);stroke:rgb(112, 112, 112);"/><text class="clickable sprotty-label statementtype" id="sprotty_ArchitectureBlockImpl$mesenc/AlwaysBlockImpl$null8/labeltype" transform="translate(5, 8.9921875) translate(14.34375, 9.34375)" style="cursor:default;font-size:8px;font-weight:700;perspective-origin:0.0104167px 0px;fill:rgb(112, 112, 112);text-anchor:middle;">always</text><g id="sprotty_ArchitectureBlockImpl$mesenc/AlwaysBlockImpl$null8/GPortImpl$DAT_iIN" class="sprotty-hidden hidden" transform="translate(0, 20)" style="display:block;height:0px;width:0px;"/><g id="sprotty_ArchitectureBlockImpl$mesenc/AlwaysBlockImpl$null8/GPortImpl$CLK_iIN" class="sprotty-hidden hidden" transform="translate(0, 10)" style="display:block;height:0px;width:0px;"/><g id="sprotty_ArchitectureBlockImpl$mesenc/AlwaysBlockImpl$null8/GPortImpl$XOUT" class="sprotty-hidden hidden" transform="translate(38.71875, 15)" style="display:block;height:0px;width:0px;"/></g><g id="sprotty_ArchitectureBlockImpl$mesenc/AssignmentBlockImpl$DAT_o" class="statement" transform="translate(131.6875, 38.9921875)"><rect x="0" y="0" rx="10" ry="5" width="20.734375" height="22.015625" class="sprotty-node" style="fill:rgb(245, 245, 245);stroke:rgb(112, 112, 112);"/><text class="clickable sprotty-label statementtype" id="sprotty_ArchitectureBlockImpl$mesenc/AssignmentBlockImpl$DAT_o/labeltype" transform="translate(5, 5) translate(5.390625, 9.34375)" style="cursor:default;font-size:8px;font-weight:700;perspective-origin:-0.0104167px 0px;fill:rgb(112, 112, 112);text-anchor:middle;">&lt;=</text><g id="sprotty_ArchitectureBlockImpl$mesenc/AssignmentBlockImpl$DAT_o/GPortImpl$XIN" class="sprotty-hidden hidden" transform="translate(0, 11.0078125)" style="display:block;height:0px;width:0px;"/><g id="sprotty_ArchitectureBlockImpl$mesenc/AssignmentBlockImpl$DAT_o/GPortImpl$DAT_oOUT" class="sprotty-hidden hidden" transform="translate(20.734375, 11.0078125)" style="display:block;height:0px;width:0px;"/></g><g id="sprotty_ArchitectureBlockImpl$mesenc/AssignmentBlockImpl$a" class="statement" transform="translate(131.6875, 107.0078125)"><rect x="0" y="0" rx="10" ry="5" width="20.734375" height="30" class="sprotty-node" style="fill:rgb(245, 245, 245);stroke:rgb(112, 112, 112);"/><text class="clickable sprotty-label statementtype" id="sprotty_ArchitectureBlockImpl$mesenc/AssignmentBlockImpl$a/labeltype" transform="translate(5, 8.9921875) translate(5.390625, 9.34375)" style="cursor:default;font-size:8px;font-weight:700;perspective-origin:-0.0104167px 0px;fill:rgb(112, 112, 112);text-anchor:middle;">&lt;=</text><g id="sprotty_ArchitectureBlockImpl$mesenc/AssignmentBlockImpl$a/GPortImpl$RK_iIN" class="sprotty-hidden hidden" transform="translate(0, 20)" style="display:block;height:0px;width:0px;"/><g id="sprotty_ArchitectureBlockImpl$mesenc/AssignmentBlockImpl$a/GPortImpl$XIN" class="sprotty-hidden hidden" transform="translate(0, 10)" style="display:block;height:0px;width:0px;"/><g id="sprotty_ArchitectureBlockImpl$mesenc/AssignmentBlockImpl$a/GPortImpl$aOUT" class="sprotty-hidden hidden" transform="translate(20.734375, 15)" style="display:block;height:0px;width:0px;"/></g><g id="sprotty_ArchitectureBlockImpl$mesenc/InstantiationBlockImpl$SBOX" class="instantiation" transform="translate(172.421875, 84.0078125)"><g class="sprotty-block" style="fill:rgb(255, 255, 255);stroke:rgb(48, 48, 48);stroke-dasharray:0px;"><rect x="0" y="0" rx="1" ry="1" width="138.640625" height="56"/><text x="69.3203125" y="12" class="sprotty-block-name" style="cursor:pointer;font-weight:700;perspective-origin:46.3333px 0px;fill:rgb(48, 48, 48);stroke:rgba(0, 0, 0, 0);dominant-baseline:middle;text-anchor:middle;">SBOX : sbox_32b</text><line x1="0" y1="20" x2="138.640625" y2="20"/></g><g id="sprotty_ArchitectureBlockImpl$mesenc/InstantiationBlockImpl$SBOX/BPortImpl$X_i" class="triangle" transform="translate(0, 38)"><path d="M 0,0 L 5,2.5 L 0,5 Z" transform="translate(-1.67, -2.5)" class="sprotty-port" style="fill:rgb(48, 48, 48);stroke:rgb(48, 48, 48);"/><text class="clickable sprotty-label port" id="sprotty_ArchitectureBlockImpl$mesenc/InstantiationBlockImpl$SBOX/BPortImpl$X_i/label" transform="translate(6, -9) translate(9.109375, 14)" style="cursor:default;font-size:12px;perspective-origin:-0.208333px 0px;fill:rgb(48, 48, 48);text-anchor:middle;">X_i</text></g><g id="sprotty_ArchitectureBlockImpl$mesenc/InstantiationBlockImpl$SBOX/BPortImpl$Y_o" class="triangle" transform="translate(138.640625, 38)"><path d="M 0,0 L 5,2.5 L 0,5 Z" transform="translate(-1.67, -2.5)" class="sprotty-port" style="fill:rgb(48, 48, 48);stroke:rgb(48, 48, 48);"/><text class="clickable sprotty-label port" id="sprotty_ArchitectureBlockImpl$mesenc/InstantiationBlockImpl$SBOX/BPortImpl$Y_o/label" transform="translate(-27.09375, -9) translate(10.84375, 14)" style="cursor:default;font-size:12px;perspective-origin:-0.197917px 0px;fill:rgb(48, 48, 48);text-anchor:middle;">Y_o</text></g></g><g id="sprotty_ArchitectureBlockImpl$mesenc/BPortImpl$DAT_VALID_i" class="triangle" transform="translate(0, 171.0078125)"><path d="M 0,0 L 5,2.5 L 0,5 Z" transform="translate(-1.67, -2.5)" class="sprotty-port" style="fill:rgb(48, 48, 48);stroke:rgb(48, 48, 48);"/><text class="clickable sprotty-label port" id="sprotty_ArchitectureBlockImpl$mesenc/BPortImpl$DAT_VALID_i/label" transform="translate(6, 6) translate(35.421875, 14)" style="cursor:default;font-size:12px;perspective-origin:0.0104167px 0px;fill:rgb(48, 48, 48);text-anchor:middle;">DAT_VALID_i</text></g><g id="sprotty_ArchitectureBlockImpl$mesenc/BPortImpl$DAT_i" class="triangle" transform="translate(0, 79)"><path d="M 0,0 L 5,2.5 L 0,5 Z" transform="translate(-1.67, -2.5)" class="sprotty-port" style="fill:rgb(48, 48, 48);stroke:rgb(48, 48, 48);"/><text class="clickable sprotty-label port" id="sprotty_ArchitectureBlockImpl$mesenc/BPortImpl$DAT_i/label" transform="translate(6, 6) translate(15.9375, 14)" style="cursor:default;font-size:12px;perspective-origin:0.0104167px 0px;fill:rgb(48, 48, 48);text-anchor:middle;">DAT_i</text></g><g id="sprotty_ArchitectureBlockImpl$mesenc/BPortImpl$RK_i" class="triangle" transform="translate(0, 127.0078125)"><path d="M 0,0 L 5,2.5 L 0,5 Z" transform="translate(-1.67, -2.5)" class="sprotty-port" style="fill:rgb(48, 48, 48);stroke:rgb(48, 48, 48);"/><text class="clickable sprotty-label port" id="sprotty_ArchitectureBlockImpl$mesenc/BPortImpl$RK_i/label" transform="translate(6, 6) translate(12.703125, 14)" style="cursor:default;font-size:12px;perspective-origin:0.0104167px 0px;fill:rgb(48, 48, 48);text-anchor:middle;">RK_i</text></g><g id="sprotty_ArchitectureBlockImpl$mesenc/BPortImpl$RST_N_i" class="triangle" transform="translate(0, 215.0078125)"><path d="M 0,0 L 5,2.5 L 0,5 Z" transform="translate(-1.67, -2.5)" class="sprotty-port" style="fill:rgb(48, 48, 48);stroke:rgb(48, 48, 48);"/><text class="clickable sprotty-label port" id="sprotty_ArchitectureBlockImpl$mesenc/BPortImpl$RST_N_i/label" transform="translate(6, 6) translate(23.46875, 14)" style="cursor:default;font-size:12px;perspective-origin:0.0104167px 0px;fill:rgb(48, 48, 48);text-anchor:middle;">RST_N_i</text></g><g id="sprotty_ArchitectureBlockImpl$mesenc/BPortImpl$CLK_i" class="triangle" transform="translate(0, 45)"><path d="M 0,0 L 5,2.5 L 0,5 Z" transform="translate(-1.67, -2.5)" class="sprotty-port" style="fill:rgb(48, 48, 48);stroke:rgb(48, 48, 48);"/><text class="clickable sprotty-label port" id="sprotty_ArchitectureBlockImpl$mesenc/BPortImpl$CLK_i/label" transform="translate(6, 6) translate(15.96875, 14)" style="cursor:default;font-size:12px;perspective-origin:0.0104167px 0px;fill:rgb(48, 48, 48);text-anchor:middle;">CLK_i</text></g><g id="sprotty_ArchitectureBlockImpl$mesenc/BPortImpl$DAT_o" class="triangle" transform="translate(456.6875, 50)"><path d="M 0,0 L 5,2.5 L 0,5 Z" transform="translate(-1.67, -2.5)" class="sprotty-port" style="fill:rgb(48, 48, 48);stroke:rgb(48, 48, 48);"/><text class="clickable sprotty-label port" id="sprotty_ArchitectureBlockImpl$mesenc/BPortImpl$DAT_o/label" transform="translate(-41.90625, 6) translate(17.921875, 14)" style="cursor:default;font-size:12px;perspective-origin:0.0208333px 0px;fill:rgb(48, 48, 48);text-anchor:middle;">DAT_o</text></g><g id="sprotty_ArchitectureBlockImpl$mesenc/BPortImpl$DAT_READY_o" class="triangle" transform="translate(456.6875, 171.0078125)"><path d="M 0,0 L 5,2.5 L 0,5 Z" transform="translate(-1.67, -2.5)" class="sprotty-port" style="fill:rgb(48, 48, 48);stroke:rgb(48, 48, 48);"/><text class="clickable sprotty-label port" id="sprotty_ArchitectureBlockImpl$mesenc/BPortImpl$DAT_READY_o/label" transform="translate(-84.9375, 6) translate(39.4375, 14)" style="cursor:default;font-size:12px;perspective-origin:0.0208333px 0px;fill:rgb(48, 48, 48);text-anchor:middle;">DAT_READY_o</text></g></g></g></svg>