<svg xmlns="http://www.w3.org/2000/svg" id="sprotty_work.keygen" class="sprotty-graph sprotty-block-diagram blockdiagram" style="font-family:&quot;Noto Sans&quot;, Helvetica, Arial, sans-serif;-webkit-locale:&quot;en&quot;;perspective-origin:0px 0px;transform-origin:0px 0px;" version="1.1" viewBox="7 7 452.34375 307.0234375" width="452.34375" height="307.0234375"><g transform="scale(1) translate(0,0)"><g id="sprotty_ArchitectureBlockImpl$keygen" class="architecture" transform="translate(12, 12)"><g class="sprotty-block" style="fill:rgb(255, 255, 255);stroke:rgb(48, 48, 48);stroke-dasharray:0px;"><rect x="0" y="0" rx="1" ry="1" width="442.34375" height="297.0234375"/><text x="221.171875" y="12" class="sprotty-block-name" style="cursor:pointer;font-weight:700;perspective-origin:147.448px 0px;fill:rgb(48, 48, 48);stroke:rgba(0, 0, 0, 0);dominant-baseline:middle;text-anchor:middle;">keygen</text><line x1="0" y1="20" x2="442.34375" y2="20"/></g><g id="sprotty_ArchitectureBlockImpl$keygen/AssignmentBlockImpl$MK_o/GPortImpl$MK_oOUT_to_ArchitectureBlockImpl$keygen/BPortImpl$MK_o" class="sprotty-edge thick edge" style="fill:none;stroke:rgb(112, 112, 112);stroke-linejoin:round;stroke-width:3px;"><g><path d="M 152.421875 128.0078125 L 442.34375 128.0078125 "/><path d="M 152.421875 128.0078125 L 442.34375 128.0078125 " class="clickable"/></g></g><g id="sprotty_ArchitectureBlockImpl$keygen/AssignmentBlockImpl$RK_o/GPortImpl$RK_oOUT_to_ArchitectureBlockImpl$keygen/BPortImpl$RK_o" class="sprotty-edge thick edge" style="fill:none;stroke:rgb(112, 112, 112);stroke-linejoin:round;stroke-width:3px;"><g><path d="M 152.421875 170.0234375 L 442.34375 170.0234375 "/><path d="M 152.421875 170.0234375 L 442.34375 170.0234375 " class="clickable"/></g></g><g id="sprotty_ArchitectureBlockImpl$keygen/BPortImpl$CK_to_ArchitectureBlockImpl$keygen/AssignmentBlockImpl$x/GPortImpl$CKIN" class="sprotty-edge thick edge" style="fill:none;stroke:rgb(112, 112, 112);stroke-linejoin:round;stroke-width:3px;"><g><path d="M 0 68 L 131.6875 68 "/><path d="M 0 68 L 131.6875 68 " class="clickable"/></g></g><g id="sprotty_ArchitectureBlockImpl$keygen/BPortImpl$CLK_i_to_ArchitectureBlockImpl$keygen/AlwaysBlockImpl$null9/GPortImpl$CLK_iIN" class="sprotty-edge edge" style="fill:none;stroke:rgb(112, 112, 112);stroke-linejoin:round;"><g><path d="M 0 136 L 60.96875 136 C 61.96875 136 62.96875 135 62.96875 134 L 62.96875 114 C 62.96875 113 63.96875 112 64.96875 112 L 72.96875 112 "/><path d="M 0 136 L 60.96875 136 C 61.96875 136 62.96875 135 62.96875 134 L 62.96875 114 C 62.96875 113 63.96875 112 64.96875 112 L 72.96875 112 " class="clickable"/></g></g><g id="sprotty_ArchitectureBlockImpl$keygen/BPortImpl$MK_i_to_ArchitectureBlockImpl$keygen/AlwaysBlockImpl$null9/GPortImpl$MK_iIN" class="sprotty-edge thick edge" style="fill:none;stroke:rgb(112, 112, 112);stroke-linejoin:round;stroke-width:3px;"><g><path d="M 0 102 L 72.96875 102 "/><path d="M 0 102 L 72.96875 102 " class="clickable"/></g></g><g id="sprotty_ArchitectureBlockImpl$keygen/AlwaysBlockImpl$null9/GPortImpl$KOUT_to_ArchitectureBlockImpl$keygen/AssignmentBlockImpl$x/GPortImpl$KIN" class="sprotty-edge thick edge" style="fill:none;stroke:rgb(112, 112, 112);stroke-linejoin:round;stroke-width:3px;"><g><path d="M 111.6875 107 L 119.6875 107 C 120.6875 107 121.6875 106 121.6875 105 L 121.6875 80 C 121.6875 79 122.6875 78 123.6875 78 L 131.6875 78 "/><path d="M 111.6875 107 L 119.6875 107 C 120.6875 107 121.6875 106 121.6875 105 L 121.6875 80 C 121.6875 79 122.6875 78 123.6875 78 L 131.6875 78 " class="clickable"/></g><circle r="3" id="sprotty_ArchitectureBlockImpl$keygen/AlwaysBlockImpl$null9/GPortImpl$KOUT_to_ArchitectureBlockImpl$keygen/AssignmentBlockImpl$x/GPortImpl$KIN/junction0" transform="translate(121.6875, 107)" class="sprotty-junction thick" style="fill:rgb(112, 112, 112);stroke:none;"/></g><g id="sprotty_ArchitectureBlockImpl$keygen/AlwaysBlockImpl$null9/GPortImpl$KOUT_to_ArchitectureBlockImpl$keygen/AssignmentBlockImpl$RK_o/GPortImpl$KIN" class="sprotty-edge thick edge" style="fill:none;stroke:rgb(112, 112, 112);stroke-linejoin:round;stroke-width:3px;"><g><path d="M 111.6875 107 L 119.6875 107 C 120.6875 107 121.6875 108 121.6875 109 L 121.6875 168.0234375 C 121.6875 169.0234375 122.6875 170.0234375 123.6875 170.0234375 L 131.6875 170.0234375 "/><path d="M 111.6875 107 L 119.6875 107 C 120.6875 107 121.6875 108 121.6875 109 L 121.6875 168.0234375 C 121.6875 169.0234375 122.6875 170.0234375 123.6875 170.0234375 L 131.6875 170.0234375 " class="clickable"/></g></g><g id="sprotty_ArchitectureBlockImpl$keygen/AlwaysBlockImpl$null9/GPortImpl$KOUT_to_ArchitectureBlockImpl$keygen/AssignmentBlockImpl$MK_o/GPortImpl$KIN" class="sprotty-edge thick edge" style="fill:none;stroke:rgb(112, 112, 112);stroke-linejoin:round;stroke-width:3px;"><g><path d="M 111.6875 107 L 119.6875 107 C 120.6875 107 121.6875 108 121.6875 109 L 121.6875 126.0078125 C 121.6875 127.0078125 122.6875 128.0078125 123.6875 128.0078125 L 131.6875 128.0078125 "/><path d="M 111.6875 107 L 119.6875 107 C 120.6875 107 121.6875 108 121.6875 109 L 121.6875 126.0078125 C 121.6875 127.0078125 122.6875 128.0078125 123.6875 128.0078125 L 131.6875 128.0078125 " class="clickable"/></g><circle r="3" id="sprotty_ArchitectureBlockImpl$keygen/AlwaysBlockImpl$null9/GPortImpl$KOUT_to_ArchitectureBlockImpl$keygen/AssignmentBlockImpl$MK_o/GPortImpl$KIN/junction0" transform="translate(121.6875, 128.0078125)" class="sprotty-junction thick" style="fill:rgb(112, 112, 112);stroke:none;"/></g><g id="sprotty_ArchitectureBlockImpl$keygen/AlwaysBlockImpl$null9/GPortImpl$KOUT_to_ArchitectureBlockImpl$keygen/AlwaysBlockImpl$null8/GPortImpl$KIN" class="sprotty-edge thick edge" style="fill:none;stroke:rgb(112, 112, 112);stroke-linejoin:round;stroke-width:3px;"><g><path d="M 111.6875 107 L 319.0625 107 C 320.0625 107 321.0625 106 321.0625 105 L 321.0625 85 C 321.0625 84 322.0625 83 323.0625 83 L 331.0625 83 "/><path d="M 111.6875 107 L 319.0625 107 C 320.0625 107 321.0625 106 321.0625 105 L 321.0625 85 C 321.0625 84 322.0625 83 323.0625 83 L 331.0625 83 " class="clickable"/></g><circle r="3" id="sprotty_ArchitectureBlockImpl$keygen/AlwaysBlockImpl$null9/GPortImpl$KOUT_to_ArchitectureBlockImpl$keygen/AlwaysBlockImpl$null8/GPortImpl$KIN/junction0" transform="translate(321.0625, 107)" class="sprotty-junction thick" style="fill:rgb(112, 112, 112);stroke:none;"/></g><g id="sprotty_ArchitectureBlockImpl$keygen/AlwaysBlockImpl$null8/GPortImpl$KOUT_to_ArchitectureBlockImpl$keygen/AssignmentBlockImpl$x/GPortImpl$KIN" class="sprotty-edge thick edge" style="fill:none;stroke:rgb(112, 112, 112);stroke-linejoin:round;stroke-width:3px;"><g><path d="M 369.78125 78 L 377.78125 78 C 378.78125 78 379.78125 79 379.78125 80 L 379.78125 105 C 379.78125 106 378.78125 107 377.78125 107 L 123.6875 107 C 122.6875 107 121.6875 106 121.6875 105 L 121.6875 80 C 121.6875 79 122.6875 78 123.6875 78 L 131.6875 78 "/><path d="M 369.78125 78 L 377.78125 78 C 378.78125 78 379.78125 79 379.78125 80 L 379.78125 105 C 379.78125 106 378.78125 107 377.78125 107 L 123.6875 107 C 122.6875 107 121.6875 106 121.6875 105 L 121.6875 80 C 121.6875 79 122.6875 78 123.6875 78 L 131.6875 78 " class="clickable"/></g></g><g id="sprotty_ArchitectureBlockImpl$keygen/AssignmentBlockImpl$x/GPortImpl$xOUT_to_ArchitectureBlockImpl$keygen/InstantiationBlockImpl$SBOX/BPortImpl$X_i" class="sprotty-edge thick edge" style="fill:none;stroke:rgb(112, 112, 112);stroke-linejoin:round;stroke-width:3px;"><g><path d="M 152.421875 73 L 172.421875 73 "/><path d="M 152.421875 73 L 172.421875 73 " class="clickable"/></g></g><g id="sprotty_ArchitectureBlockImpl$keygen/InstantiationBlockImpl$SBOX/BPortImpl$Y_o_to_ArchitectureBlockImpl$keygen/AlwaysBlockImpl$null8/GPortImpl$yIN" class="sprotty-edge thick edge" style="fill:none;stroke:rgb(112, 112, 112);stroke-linejoin:round;stroke-width:3px;"><g><path d="M 311.0625 73 L 331.0625 73 "/><path d="M 311.0625 73 L 331.0625 73 " class="clickable"/></g></g><g id="sprotty_ArchitectureBlockImpl$keygen/AlwaysBlockImpl$null8" class="statement" transform="translate(331.0625, 63)"><rect x="0" y="0" rx="10" ry="5" width="38.71875" height="30" class="sprotty-node" style="fill:rgb(245, 245, 245);stroke:rgb(112, 112, 112);"/><text class="clickable sprotty-label statementtype" id="sprotty_ArchitectureBlockImpl$keygen/AlwaysBlockImpl$null8/labeltype" transform="translate(5, 8.9921875) translate(14.34375, 9.34375)" style="cursor:default;font-size:8px;font-weight:700;perspective-origin:0.0104167px 0px;fill:rgb(112, 112, 112);text-anchor:middle;">always</text><g id="sprotty_ArchitectureBlockImpl$keygen/AlwaysBlockImpl$null8/GPortImpl$KIN" class="sprotty-hidden hidden" transform="translate(0, 20)" style="display:block;height:0px;width:0px;"/><g id="sprotty_ArchitectureBlockImpl$keygen/AlwaysBlockImpl$null8/GPortImpl$yIN" class="sprotty-hidden hidden" transform="translate(0, 10)" style="display:block;height:0px;width:0px;"/><g id="sprotty_ArchitectureBlockImpl$keygen/AlwaysBlockImpl$null8/GPortImpl$KOUT" class="sprotty-hidden hidden" transform="translate(38.71875, 15)" style="display:block;height:0px;width:0px;"/></g><g id="sprotty_ArchitectureBlockImpl$keygen/AlwaysBlockImpl$null9" class="statement" transform="translate(72.96875, 92)"><rect x="0" y="0" rx="10" ry="5" width="38.71875" height="30" class="sprotty-node" style="fill:rgb(245, 245, 245);stroke:rgb(112, 112, 112);"/><text class="clickable sprotty-label statementtype" id="sprotty_ArchitectureBlockImpl$keygen/AlwaysBlockImpl$null9/labeltype" transform="translate(5, 8.9921875) translate(14.34375, 9.34375)" style="cursor:default;font-size:8px;font-weight:700;perspective-origin:0.0104167px 0px;fill:rgb(112, 112, 112);text-anchor:middle;">always</text><g id="sprotty_ArchitectureBlockImpl$keygen/AlwaysBlockImpl$null9/GPortImpl$MK_iIN" class="sprotty-hidden hidden" transform="translate(0, 10)" style="display:block;height:0px;width:0px;"/><g id="sprotty_ArchitectureBlockImpl$keygen/AlwaysBlockImpl$null9/GPortImpl$CLK_iIN" class="sprotty-hidden hidden" transform="translate(0, 20)" style="display:block;height:0px;width:0px;"/><g id="sprotty_ArchitectureBlockImpl$keygen/AlwaysBlockImpl$null9/GPortImpl$KOUT" class="sprotty-hidden hidden" transform="translate(38.71875, 15)" style="display:block;height:0px;width:0px;"/></g><g id="sprotty_ArchitectureBlockImpl$keygen/AssignmentBlockImpl$MK_o" class="statement" transform="translate(131.6875, 117)"><rect x="0" y="0" rx="10" ry="5" width="20.734375" height="22.015625" class="sprotty-node" style="fill:rgb(245, 245, 245);stroke:rgb(112, 112, 112);"/><text class="clickable sprotty-label statementtype" id="sprotty_ArchitectureBlockImpl$keygen/AssignmentBlockImpl$MK_o/labeltype" transform="translate(5, 5) translate(5.390625, 9.34375)" style="cursor:default;font-size:8px;font-weight:700;perspective-origin:-0.0104167px 0px;fill:rgb(112, 112, 112);text-anchor:middle;">&lt;=</text><g id="sprotty_ArchitectureBlockImpl$keygen/AssignmentBlockImpl$MK_o/GPortImpl$KIN" class="sprotty-hidden hidden" transform="translate(0, 11.0078125)" style="display:block;height:0px;width:0px;"/><g id="sprotty_ArchitectureBlockImpl$keygen/AssignmentBlockImpl$MK_o/GPortImpl$MK_oOUT" class="sprotty-hidden hidden" transform="translate(20.734375, 11.0078125)" style="display:block;height:0px;width:0px;"/></g><g id="sprotty_ArchitectureBlockImpl$keygen/AssignmentBlockImpl$RK_o" class="statement" transform="translate(131.6875, 159.015625)"><rect x="0" y="0" rx="10" ry="5" width="20.734375" height="22.015625" class="sprotty-node" style="fill:rgb(245, 245, 245);stroke:rgb(112, 112, 112);"/><text class="clickable sprotty-label statementtype" id="sprotty_ArchitectureBlockImpl$keygen/AssignmentBlockImpl$RK_o/labeltype" transform="translate(5, 5) translate(5.390625, 9.34375)" style="cursor:default;font-size:8px;font-weight:700;perspective-origin:-0.0104167px 0px;fill:rgb(112, 112, 112);text-anchor:middle;">&lt;=</text><g id="sprotty_ArchitectureBlockImpl$keygen/AssignmentBlockImpl$RK_o/GPortImpl$KIN" class="sprotty-hidden hidden" transform="translate(0, 11.0078125)" style="display:block;height:0px;width:0px;"/><g id="sprotty_ArchitectureBlockImpl$keygen/AssignmentBlockImpl$RK_o/GPortImpl$RK_oOUT" class="sprotty-hidden hidden" transform="translate(20.734375, 11.0078125)" style="display:block;height:0px;width:0px;"/></g><g id="sprotty_ArchitectureBlockImpl$keygen/AssignmentBlockImpl$x" class="statement" transform="translate(131.6875, 58)"><rect x="0" y="0" rx="10" ry="5" width="20.734375" height="30" class="sprotty-node" style="fill:rgb(245, 245, 245);stroke:rgb(112, 112, 112);"/><text class="clickable sprotty-label statementtype" id="sprotty_ArchitectureBlockImpl$keygen/AssignmentBlockImpl$x/labeltype" transform="translate(5, 8.9921875) translate(5.390625, 9.34375)" style="cursor:default;font-size:8px;font-weight:700;perspective-origin:-0.0104167px 0px;fill:rgb(112, 112, 112);text-anchor:middle;">&lt;=</text><g id="sprotty_ArchitectureBlockImpl$keygen/AssignmentBlockImpl$x/GPortImpl$CKIN" class="sprotty-hidden hidden" transform="translate(0, 10)" style="display:block;height:0px;width:0px;"/><g id="sprotty_ArchitectureBlockImpl$keygen/AssignmentBlockImpl$x/GPortImpl$KIN" class="sprotty-hidden hidden" transform="translate(0, 20)" style="display:block;height:0px;width:0px;"/><g id="sprotty_ArchitectureBlockImpl$keygen/AssignmentBlockImpl$x/GPortImpl$xOUT" class="sprotty-hidden hidden" transform="translate(20.734375, 15)" style="display:block;height:0px;width:0px;"/></g><g id="sprotty_ArchitectureBlockImpl$keygen/InstantiationBlockImpl$SBOX" class="instantiation" transform="translate(172.421875, 35)"><g class="sprotty-block" style="fill:rgb(255, 255, 255);stroke:rgb(48, 48, 48);stroke-dasharray:0px;"><rect x="0" y="0" rx="1" ry="1" width="138.640625" height="56"/><text x="69.3203125" y="12" class="sprotty-block-name" style="cursor:pointer;font-weight:700;perspective-origin:46.3333px 0px;fill:rgb(48, 48, 48);stroke:rgba(0, 0, 0, 0);dominant-baseline:middle;text-anchor:middle;">SBOX : sbox_32b</text><line x1="0" y1="20" x2="138.640625" y2="20"/></g><g id="sprotty_ArchitectureBlockImpl$keygen/InstantiationBlockImpl$SBOX/BPortImpl$X_i" class="triangle" transform="translate(0, 38)"><path d="M 0,0 L 5,2.5 L 0,5 Z" transform="translate(-1.67, -2.5)" class="sprotty-port" style="fill:rgb(48, 48, 48);stroke:rgb(48, 48, 48);"/><text class="clickable sprotty-label port" id="sprotty_ArchitectureBlockImpl$keygen/InstantiationBlockImpl$SBOX/BPortImpl$X_i/label" transform="translate(6, -9) translate(9.109375, 14)" style="cursor:default;font-size:12px;perspective-origin:-0.208333px 0px;fill:rgb(48, 48, 48);text-anchor:middle;">X_i</text></g><g id="sprotty_ArchitectureBlockImpl$keygen/InstantiationBlockImpl$SBOX/BPortImpl$Y_o" class="triangle" transform="translate(138.640625, 38)"><path d="M 0,0 L 5,2.5 L 0,5 Z" transform="translate(-1.67, -2.5)" class="sprotty-port" style="fill:rgb(48, 48, 48);stroke:rgb(48, 48, 48);"/><text class="clickable sprotty-label port" id="sprotty_ArchitectureBlockImpl$keygen/InstantiationBlockImpl$SBOX/BPortImpl$Y_o/label" transform="translate(-27.09375, -9) translate(10.84375, 14)" style="cursor:default;font-size:12px;perspective-origin:-0.197917px 0px;fill:rgb(48, 48, 48);text-anchor:middle;">Y_o</text></g></g><g id="sprotty_ArchitectureBlockImpl$keygen/BPortImpl$CK" class="triangle" transform="translate(0, 68)"><path d="M 0,0 L 5,2.5 L 0,5 Z" transform="translate(-1.67, -2.5)" class="sprotty-port" style="fill:rgb(48, 48, 48);stroke:rgb(48, 48, 48);"/><text class="clickable sprotty-label port" id="sprotty_ArchitectureBlockImpl$keygen/BPortImpl$CK/label" transform="translate(6, 6) translate(7.71875, 14)" style="cursor:default;font-size:12px;perspective-origin:0.302083px 0px;fill:rgb(48, 48, 48);text-anchor:middle;">CK</text></g><g id="sprotty_ArchitectureBlockImpl$keygen/BPortImpl$MK_VALID_i" class="triangle" transform="translate(0, 214.0234375)"><path d="M 0,0 L 5,2.5 L 0,5 Z" transform="translate(-1.67, -2.5)" class="sprotty-port" style="fill:rgb(48, 48, 48);stroke:rgb(48, 48, 48);"/><text class="clickable sprotty-label port" id="sprotty_ArchitectureBlockImpl$keygen/BPortImpl$MK_VALID_i/label" transform="translate(6, 6) translate(33.25, 14)" style="cursor:default;font-size:12px;perspective-origin:0.0104167px 0px;fill:rgb(48, 48, 48);text-anchor:middle;">MK_VALID_i</text></g><g id="sprotty_ArchitectureBlockImpl$keygen/BPortImpl$MK_i" class="triangle" transform="translate(0, 102)"><path d="M 0,0 L 5,2.5 L 0,5 Z" transform="translate(-1.67, -2.5)" class="sprotty-port" style="fill:rgb(48, 48, 48);stroke:rgb(48, 48, 48);"/><text class="clickable sprotty-label port" id="sprotty_ArchitectureBlockImpl$keygen/BPortImpl$MK_i/label" transform="translate(6, 6) translate(13.765625, 14)" style="cursor:default;font-size:12px;perspective-origin:0.0104167px 0px;fill:rgb(48, 48, 48);text-anchor:middle;">MK_i</text></g><g id="sprotty_ArchitectureBlockImpl$keygen/BPortImpl$RST_N_i" class="triangle" transform="translate(0, 258.0234375)"><path d="M 0,0 L 5,2.5 L 0,5 Z" transform="translate(-1.67, -2.5)" class="sprotty-port" style="fill:rgb(48, 48, 48);stroke:rgb(48, 48, 48);"/><text class="clickable sprotty-label port" id="sprotty_ArchitectureBlockImpl$keygen/BPortImpl$RST_N_i/label" transform="translate(6, 6) translate(23.46875, 14)" style="cursor:default;font-size:12px;perspective-origin:0.0104167px 0px;fill:rgb(48, 48, 48);text-anchor:middle;">RST_N_i</text></g><g id="sprotty_ArchitectureBlockImpl$keygen/BPortImpl$CLK_i" class="triangle" transform="translate(0, 136)"><path d="M 0,0 L 5,2.5 L 0,5 Z" transform="translate(-1.67, -2.5)" class="sprotty-port" style="fill:rgb(48, 48, 48);stroke:rgb(48, 48, 48);"/><text class="clickable sprotty-label port" id="sprotty_ArchitectureBlockImpl$keygen/BPortImpl$CLK_i/label" transform="translate(6, 6) translate(15.96875, 14)" style="cursor:default;font-size:12px;perspective-origin:0.0104167px 0px;fill:rgb(48, 48, 48);text-anchor:middle;">CLK_i</text></g><g id="sprotty_ArchitectureBlockImpl$keygen/BPortImpl$MK_o" class="triangle" transform="translate(442.34375, 128.0078125)"><path d="M 0,0 L 5,2.5 L 0,5 Z" transform="translate(-1.67, -2.5)" class="sprotty-port" style="fill:rgb(48, 48, 48);stroke:rgb(48, 48, 48);"/><text class="clickable sprotty-label port" id="sprotty_ArchitectureBlockImpl$keygen/BPortImpl$MK_o/label" transform="translate(-37.5625, 6) translate(15.75, 14)" style="cursor:default;font-size:12px;perspective-origin:0.0208333px 0px;fill:rgb(48, 48, 48);text-anchor:middle;">MK_o</text></g><g id="sprotty_ArchitectureBlockImpl$keygen/BPortImpl$RK_o" class="triangle" transform="translate(442.34375, 170.0234375)"><path d="M 0,0 L 5,2.5 L 0,5 Z" transform="translate(-1.67, -2.5)" class="sprotty-port" style="fill:rgb(48, 48, 48);stroke:rgb(48, 48, 48);"/><text class="clickable sprotty-label port" id="sprotty_ArchitectureBlockImpl$keygen/BPortImpl$RK_o/label" transform="translate(-35.4375, 6) translate(14.6875, 14)" style="cursor:default;font-size:12px;perspective-origin:0.0208333px 0px;fill:rgb(48, 48, 48);text-anchor:middle;">RK_o</text></g><g id="sprotty_ArchitectureBlockImpl$keygen/BPortImpl$RK_READY_o" class="triangle" transform="translate(442.34375, 214.0234375)"><path d="M 0,0 L 5,2.5 L 0,5 Z" transform="translate(-1.67, -2.5)" class="sprotty-port" style="fill:rgb(48, 48, 48);stroke:rgb(48, 48, 48);"/><text class="clickable sprotty-label port" id="sprotty_ArchitectureBlockImpl$keygen/BPortImpl$RK_READY_o/label" transform="translate(-78.4375, 6) translate(36.1875, 14)" style="cursor:default;font-size:12px;perspective-origin:0.0208333px 0px;fill:rgb(48, 48, 48);text-anchor:middle;">RK_READY_o</text></g></g></g></svg>