<svg xmlns="http://www.w3.org/2000/svg" id="sprotty_dependencies$project:sm4_flow2" class="sprotty-graph sprotty-dependencies-diagram dependencies" style="font-family:&quot;Noto Sans&quot;, Helvetica, Arial, sans-serif;-webkit-locale:&quot;en&quot;;perspective-origin:0px 0px;transform-origin:0px 0px;" version="1.1" viewBox="7 7 589.078125 340.078125" width="589.078125" height="340.078125"><g transform="scale(1) translate(0,0)"><g id="sprotty_dependencies$project:sm4_flow2/FileNodeImpl$key_expansion.v" class="file" transform="translate(169, 86.015625)"><rect x="0" y="0" width="133.796875" height="44.015625" class="sprotty-node" style="fill:rgb(255, 255, 255);stroke:rgb(48, 48, 48);"/><text class="clickable sprotty-label file" id="sprotty_dependencies$project:sm4_flow2/FileNodeImpl$key_expansion.v/label" transform="translate(5, 10) translate(61.734375, 18.671875)" style="cursor:default;perspective-origin:0.104167px 0px;fill:rgb(48, 48, 48);text-anchor:middle;">key_expansion.v</text></g><g id="sprotty_dependencies$project:sm4_flow2/FileNodeImpl$sm4_top.v" class="file" transform="translate(444, 12)"><rect x="0" y="0" width="87.890625" height="44.015625" class="sprotty-node" style="fill:rgb(255, 255, 255);stroke:rgb(48, 48, 48);"/><text class="clickable sprotty-label file" id="sprotty_dependencies$project:sm4_flow2/FileNodeImpl$sm4_top.v/label" transform="translate(5, 10) translate(38.78125, 18.671875)" style="cursor:default;perspective-origin:0.104167px 0px;fill:rgb(48, 48, 48);text-anchor:middle;">sm4_top.v</text></g><g id="sprotty_dependencies$project:sm4_flow2/FileNodeImpl$one_round_for_key_exp.v" class="file" transform="translate(139, 160.03125)"><rect x="0" y="0" width="204.9375" height="44.015625" class="sprotty-node" style="fill:rgb(255, 255, 255);stroke:rgb(48, 48, 48);"/><text class="clickable sprotty-label file" id="sprotty_dependencies$project:sm4_flow2/FileNodeImpl$one_round_for_key_exp.v/label" transform="translate(5, 10) translate(97.296875, 18.671875)" style="cursor:default;perspective-origin:0.114583px 0px;fill:rgb(48, 48, 48);text-anchor:middle;">one_round_for_key_exp.v</text></g><g id="sprotty_dependencies$project:sm4_flow2/FileNodeImpl$sm4_encdec.v" class="file" transform="translate(435, 86.015625)"><rect x="0" y="0" width="115.984375" height="44.015625" class="sprotty-node" style="fill:rgb(255, 255, 255);stroke:rgb(48, 48, 48);"/><text class="clickable sprotty-label file" id="sprotty_dependencies$project:sm4_flow2/FileNodeImpl$sm4_encdec.v/label" transform="translate(5, 10) translate(52.828125, 18.671875)" style="cursor:default;perspective-origin:0.104167px 0px;fill:rgb(48, 48, 48);text-anchor:middle;">sm4_encdec.v</text></g><g id="sprotty_dependencies$project:sm4_flow2/FileNodeImpl$transform_for_key_exp.v" class="file" transform="translate(142, 224.046875)"><rect x="0" y="0" width="197.03125" height="44.015625" class="sprotty-node" style="fill:rgb(255, 255, 255);stroke:rgb(48, 48, 48);"/><text class="clickable sprotty-label file" id="sprotty_dependencies$project:sm4_flow2/FileNodeImpl$transform_for_key_exp.v/label" transform="translate(5, 10) translate(93.6875, 18.671875)" style="cursor:default;perspective-origin:-0.114583px 0px;fill:rgb(48, 48, 48);text-anchor:middle;">transform_for_key_exp.v</text></g><g id="sprotty_dependencies$project:sm4_flow2/FileNodeImpl$get_cki.v" class="file" transform="translate(12, 160.03125)"><rect x="0" y="0" width="76.328125" height="44.015625" class="sprotty-node" style="fill:rgb(255, 255, 255);stroke:rgb(48, 48, 48);"/><text class="clickable sprotty-label file" id="sprotty_dependencies$project:sm4_flow2/FileNodeImpl$get_cki.v/label" transform="translate(5, 10) translate(33, 18.671875)" style="cursor:default;perspective-origin:0.104167px 0px;fill:rgb(48, 48, 48);text-anchor:middle;">get_cki.v</text></g><g id="sprotty_dependencies$project:sm4_flow2/FileNodeImpl$one_round_for_encdec.v" class="file" transform="translate(394, 160.03125)"><rect x="0" y="0" width="197.078125" height="44.015625" class="sprotty-node" style="fill:rgb(255, 255, 255);stroke:rgb(48, 48, 48);"/><text class="clickable sprotty-label file" id="sprotty_dependencies$project:sm4_flow2/FileNodeImpl$one_round_for_encdec.v/label" transform="translate(5, 10) translate(93.375, 18.671875)" style="cursor:default;perspective-origin:0.104167px 0px;fill:rgb(48, 48, 48);text-anchor:middle;">one_round_for_encdec.v</text></g><g id="sprotty_dependencies$project:sm4_flow2/FileNodeImpl$sbox_replace.v" class="file" transform="translate(185, 298.0625)"><rect x="0" y="0" width="121.234375" height="44.015625" class="sprotty-node" style="fill:rgb(255, 255, 255);stroke:rgb(48, 48, 48);"/><text class="clickable sprotty-label file" id="sprotty_dependencies$project:sm4_flow2/FileNodeImpl$sbox_replace.v/label" transform="translate(5, 10) translate(55.453125, 18.671875)" style="cursor:default;perspective-origin:0.104167px 0px;fill:rgb(48, 48, 48);text-anchor:middle;">sbox_replace.v</text></g><g id="sprotty_dependencies$project:sm4_flow2/FileNodeImpl$transform_for_encdec.v" class="file" transform="translate(398, 224.046875)"><rect x="0" y="0" width="189.171875" height="44.015625" class="sprotty-node" style="fill:rgb(255, 255, 255);stroke:rgb(48, 48, 48);"/><text class="clickable sprotty-label file" id="sprotty_dependencies$project:sm4_flow2/FileNodeImpl$transform_for_encdec.v/label" transform="translate(5, 10) translate(89.75, 18.671875)" style="cursor:default;perspective-origin:-0.104167px 0px;fill:rgb(48, 48, 48);text-anchor:middle;">transform_for_encdec.v</text></g><g id="sprotty_dependencies$project:sm4_flow2/FileNodeImpl$key_expansion.v_to_dependencies$project:sm4_flow2/FileNodeImpl$one_round_for_key_exp.v" class="sprotty-edge dependency" style="fill:none;stroke:rgb(48, 48, 48);stroke-linejoin:round;"><g><path d=" M241,130.03125 L241,160.03125"/><path d=" M241,130.03125 L241,160.03125" class="clickable" style="cursor:default;"/></g><path d="M 241,160.03125 L 248,157.53125 L 248,162.53125 Z" transform="rotate(-90 241 160.03125)" class="arrow" style="fill:rgb(48, 48, 48);stroke-linejoin:miter;stroke-miterlimit:2;"/></g><g id="sprotty_dependencies$project:sm4_flow2/FileNodeImpl$key_expansion.v_to_dependencies$project:sm4_flow2/FileNodeImpl$get_cki.v" class="sprotty-edge dependency" style="fill:none;stroke:rgb(48, 48, 48);stroke-linejoin:round;"><g><path d=" M231,130.03125 L231,145.03125 L50,145.03125 L50,160.03125"/><path d=" M231,130.03125 L231,145.03125 L50,145.03125 L50,160.03125" class="clickable" style="cursor:default;"/></g><path d="M 50,160.03125 L 57,157.53125 L 57,162.53125 Z" transform="rotate(-90 50 160.03125)" class="arrow" style="fill:rgb(48, 48, 48);stroke-linejoin:miter;stroke-miterlimit:2;"/></g><g id="sprotty_dependencies$project:sm4_flow2/FileNodeImpl$sm4_top.v_to_dependencies$project:sm4_flow2/FileNodeImpl$key_expansion.v" class="sprotty-edge dependency" style="fill:none;stroke:rgb(48, 48, 48);stroke-linejoin:round;"><g><path d=" M483,56.015625 L483,71.015625 L236,71.015625 L236,86.015625"/><path d=" M483,56.015625 L483,71.015625 L236,71.015625 L236,86.015625" class="clickable" style="cursor:default;"/></g><path d="M 236,86.015625 L 243,83.515625 L 243,88.515625 Z" transform="rotate(-90 236 86.015625)" class="arrow" style="fill:rgb(48, 48, 48);stroke-linejoin:miter;stroke-miterlimit:2;"/></g><g id="sprotty_dependencies$project:sm4_flow2/FileNodeImpl$sm4_top.v_to_dependencies$project:sm4_flow2/FileNodeImpl$sm4_encdec.v" class="sprotty-edge dependency" style="fill:none;stroke:rgb(48, 48, 48);stroke-linejoin:round;"><g><path d=" M493,56.015625 L493,86.015625"/><path d=" M493,56.015625 L493,86.015625" class="clickable" style="cursor:default;"/></g><path d="M 493,86.015625 L 500,83.515625 L 500,88.515625 Z" transform="rotate(-90 493 86.015625)" class="arrow" style="fill:rgb(48, 48, 48);stroke-linejoin:miter;stroke-miterlimit:2;"/></g><g id="sprotty_dependencies$project:sm4_flow2/FileNodeImpl$one_round_for_key_exp.v_to_dependencies$project:sm4_flow2/FileNodeImpl$transform_for_key_exp.v" class="sprotty-edge dependency" style="fill:none;stroke:rgb(48, 48, 48);stroke-linejoin:round;"><g><path d=" M241,204.046875 L241,224.046875"/><path d=" M241,204.046875 L241,224.046875" class="clickable" style="cursor:default;"/></g><path d="M 241,224.046875 L 248,221.546875 L 248,226.546875 Z" transform="rotate(-90 241 224.046875)" class="arrow" style="fill:rgb(48, 48, 48);stroke-linejoin:miter;stroke-miterlimit:2;"/></g><g id="sprotty_dependencies$project:sm4_flow2/FileNodeImpl$sm4_encdec.v_to_dependencies$project:sm4_flow2/FileNodeImpl$one_round_for_encdec.v" class="sprotty-edge dependency" style="fill:none;stroke:rgb(48, 48, 48);stroke-linejoin:round;"><g><path d=" M493,130.03125 L493,160.03125"/><path d=" M493,130.03125 L493,160.03125" class="clickable" style="cursor:default;"/></g><path d="M 493,160.03125 L 500,157.53125 L 500,162.53125 Z" transform="rotate(-90 493 160.03125)" class="arrow" style="fill:rgb(48, 48, 48);stroke-linejoin:miter;stroke-miterlimit:2;"/></g><g id="sprotty_dependencies$project:sm4_flow2/FileNodeImpl$transform_for_key_exp.v_to_dependencies$project:sm4_flow2/FileNodeImpl$sbox_replace.v" class="sprotty-edge dependency" style="fill:none;stroke:rgb(48, 48, 48);stroke-linejoin:round;"><g><path d=" M241,268.0625 L241,298.0625"/><path d=" M241,268.0625 L241,298.0625" class="clickable" style="cursor:default;"/></g><path d="M 241,298.0625 L 248,295.5625 L 248,300.5625 Z" transform="rotate(-90 241 298.0625)" class="arrow" style="fill:rgb(48, 48, 48);stroke-linejoin:miter;stroke-miterlimit:2;"/></g><g id="sprotty_dependencies$project:sm4_flow2/FileNodeImpl$one_round_for_encdec.v_to_dependencies$project:sm4_flow2/FileNodeImpl$transform_for_encdec.v" class="sprotty-edge dependency" style="fill:none;stroke:rgb(48, 48, 48);stroke-linejoin:round;"><g><path d=" M493,204.046875 L493,224.046875"/><path d=" M493,204.046875 L493,224.046875" class="clickable" style="cursor:default;"/></g><path d="M 493,224.046875 L 500,221.546875 L 500,226.546875 Z" transform="rotate(-90 493 224.046875)" class="arrow" style="fill:rgb(48, 48, 48);stroke-linejoin:miter;stroke-miterlimit:2;"/></g><g id="sprotty_dependencies$project:sm4_flow2/FileNodeImpl$transform_for_encdec.v_to_dependencies$project:sm4_flow2/FileNodeImpl$sbox_replace.v" class="sprotty-edge dependency" style="fill:none;stroke:rgb(48, 48, 48);stroke-linejoin:round;"><g><path d=" M493,268.0625 L493,283.0625 L251,283.0625 L251,298.0625"/><path d=" M493,268.0625 L493,283.0625 L251,283.0625 L251,298.0625" class="clickable" style="cursor:default;"/></g><path d="M 251,298.0625 L 258,295.5625 L 258,300.5625 Z" transform="rotate(-90 251 298.0625)" class="arrow" style="fill:rgb(48, 48, 48);stroke-linejoin:miter;stroke-miterlimit:2;"/></g></g></svg>