<svg xmlns="http://www.w3.org/2000/svg" id="sprotty_dependencies$project:sm4_flow2" class="sprotty-graph sprotty-dependencies-diagram dependencies" style="font-family:&quot;Noto Sans&quot;, Helvetica, Arial, sans-serif;-webkit-locale:&quot;en&quot;;perspective-origin:0px 0px;transform-origin:0px 0px;" version="1.1" viewBox="7 7 589.9375 340.078125" width="589.9375" height="340.078125"><g transform="scale(1) translate(0,0)"><g id="sprotty_dependencies$project:sm4_flow2/FileNodeImpl$sm4_top.v" class="file" transform="translate(72, 12)"><rect x="0" y="0" width="87.890625" height="44.015625" class="sprotty-node" style="fill:rgb(255, 255, 255);stroke:rgb(48, 48, 48);"/><text class="clickable sprotty-label file" id="sprotty_dependencies$project:sm4_flow2/FileNodeImpl$sm4_top.v/label" transform="translate(5, 10) translate(38.78125, 18.671875)" style="cursor:default;perspective-origin:0.104167px 0px;fill:rgb(48, 48, 48);text-anchor:middle;">sm4_top.v</text></g><g id="sprotty_dependencies$project:sm4_flow2/FileNodeImpl$one_round_for_key_exp.v" class="file" transform="translate(387, 160.03125)"><rect x="0" y="0" width="204.9375" height="44.015625" class="sprotty-node" style="fill:rgb(255, 255, 255);stroke:rgb(48, 48, 48);"/><text class="clickable sprotty-label file" id="sprotty_dependencies$project:sm4_flow2/FileNodeImpl$one_round_for_key_exp.v/label" transform="translate(5, 10) translate(97.296875, 18.671875)" style="cursor:default;perspective-origin:0.114583px 0px;fill:rgb(48, 48, 48);text-anchor:middle;">one_round_for_key_exp.v</text></g><g id="sprotty_dependencies$project:sm4_flow2/FileNodeImpl$transform_for_key_exp.v" class="file" transform="translate(390, 224.046875)"><rect x="0" y="0" width="197.03125" height="44.015625" class="sprotty-node" style="fill:rgb(255, 255, 255);stroke:rgb(48, 48, 48);"/><text class="clickable sprotty-label file" id="sprotty_dependencies$project:sm4_flow2/FileNodeImpl$transform_for_key_exp.v/label" transform="translate(5, 10) translate(93.6875, 18.671875)" style="cursor:default;perspective-origin:-0.114583px 0px;fill:rgb(48, 48, 48);text-anchor:middle;">transform_for_key_exp.v</text></g><g id="sprotty_dependencies$project:sm4_flow2/FileNodeImpl$sm4_encdec.sv" class="file" transform="translate(49, 86.015625)"><rect x="0" y="0" width="124.078125" height="44.015625" class="sprotty-node" style="fill:rgb(255, 255, 255);stroke:rgb(48, 48, 48);"/><text class="clickable sprotty-label file" id="sprotty_dependencies$project:sm4_flow2/FileNodeImpl$sm4_encdec.sv/label" transform="translate(5, 10) translate(56.875, 18.671875)" style="cursor:default;perspective-origin:0.104167px 0px;fill:rgb(48, 48, 48);text-anchor:middle;">sm4_encdec.sv</text></g><g id="sprotty_dependencies$project:sm4_flow2/FileNodeImpl$get_cki.v" class="file" transform="translate(260, 160.03125)"><rect x="0" y="0" width="76.328125" height="44.015625" class="sprotty-node" style="fill:rgb(255, 255, 255);stroke:rgb(48, 48, 48);"/><text class="clickable sprotty-label file" id="sprotty_dependencies$project:sm4_flow2/FileNodeImpl$get_cki.v/label" transform="translate(5, 10) translate(33, 18.671875)" style="cursor:default;perspective-origin:0.104167px 0px;fill:rgb(48, 48, 48);text-anchor:middle;">get_cki.v</text></g><g id="sprotty_dependencies$project:sm4_flow2/FileNodeImpl$key_expansion.sv" class="file" transform="translate(413, 86.015625)"><rect x="0" y="0" width="141.890625" height="44.015625" class="sprotty-node" style="fill:rgb(255, 255, 255);stroke:rgb(48, 48, 48);"/><text class="clickable sprotty-label file" id="sprotty_dependencies$project:sm4_flow2/FileNodeImpl$key_expansion.sv/label" transform="translate(5, 10) translate(65.78125, 18.671875)" style="cursor:default;perspective-origin:0.104167px 0px;fill:rgb(48, 48, 48);text-anchor:middle;">key_expansion.sv</text></g><g id="sprotty_dependencies$project:sm4_flow2/FileNodeImpl$one_round_for_encdec.v" class="file" transform="translate(12, 160.03125)"><rect x="0" y="0" width="197.078125" height="44.015625" class="sprotty-node" style="fill:rgb(255, 255, 255);stroke:rgb(48, 48, 48);"/><text class="clickable sprotty-label file" id="sprotty_dependencies$project:sm4_flow2/FileNodeImpl$one_round_for_encdec.v/label" transform="translate(5, 10) translate(93.375, 18.671875)" style="cursor:default;perspective-origin:0.104167px 0px;fill:rgb(48, 48, 48);text-anchor:middle;">one_round_for_encdec.v</text></g><g id="sprotty_dependencies$project:sm4_flow2/FileNodeImpl$sbox_replace.v" class="file" transform="translate(55, 298.0625)"><rect x="0" y="0" width="121.234375" height="44.015625" class="sprotty-node" style="fill:rgb(255, 255, 255);stroke:rgb(48, 48, 48);"/><text class="clickable sprotty-label file" id="sprotty_dependencies$project:sm4_flow2/FileNodeImpl$sbox_replace.v/label" transform="translate(5, 10) translate(55.453125, 18.671875)" style="cursor:default;perspective-origin:0.104167px 0px;fill:rgb(48, 48, 48);text-anchor:middle;">sbox_replace.v</text></g><g id="sprotty_dependencies$project:sm4_flow2/FileNodeImpl$transform_for_encdec.v" class="file" transform="translate(16, 224.046875)"><rect x="0" y="0" width="189.171875" height="44.015625" class="sprotty-node" style="fill:rgb(255, 255, 255);stroke:rgb(48, 48, 48);"/><text class="clickable sprotty-label file" id="sprotty_dependencies$project:sm4_flow2/FileNodeImpl$transform_for_encdec.v/label" transform="translate(5, 10) translate(89.75, 18.671875)" style="cursor:default;perspective-origin:-0.104167px 0px;fill:rgb(48, 48, 48);text-anchor:middle;">transform_for_encdec.v</text></g><g id="sprotty_dependencies$project:sm4_flow2/FileNodeImpl$sm4_top.v_to_dependencies$project:sm4_flow2/FileNodeImpl$sm4_encdec.sv" class="sprotty-edge dependency" style="fill:none;stroke:rgb(48, 48, 48);stroke-linejoin:round;"><g><path d=" M111,56.015625 L111,86.015625"/><path d=" M111,56.015625 L111,86.015625" class="clickable" style="cursor:default;"/></g><path d="M 111,86.015625 L 118,83.515625 L 118,88.515625 Z" transform="rotate(-90 111 86.015625)" class="arrow" style="fill:rgb(48, 48, 48);stroke-linejoin:miter;stroke-miterlimit:2;"/></g><g id="sprotty_dependencies$project:sm4_flow2/FileNodeImpl$sm4_top.v_to_dependencies$project:sm4_flow2/FileNodeImpl$key_expansion.sv" class="sprotty-edge dependency" style="fill:none;stroke:rgb(48, 48, 48);stroke-linejoin:round;"><g><path d=" M121,56.015625 L121,71.015625 L484,71.015625 L484,86.015625"/><path d=" M121,56.015625 L121,71.015625 L484,71.015625 L484,86.015625" class="clickable" style="cursor:default;"/></g><path d="M 484,86.015625 L 491,83.515625 L 491,88.515625 Z" transform="rotate(-90 484 86.015625)" class="arrow" style="fill:rgb(48, 48, 48);stroke-linejoin:miter;stroke-miterlimit:2;"/></g><g id="sprotty_dependencies$project:sm4_flow2/FileNodeImpl$one_round_for_key_exp.v_to_dependencies$project:sm4_flow2/FileNodeImpl$transform_for_key_exp.v" class="sprotty-edge dependency" style="fill:none;stroke:rgb(48, 48, 48);stroke-linejoin:round;"><g><path d=" M489,204.046875 L489,224.046875"/><path d=" M489,204.046875 L489,224.046875" class="clickable" style="cursor:default;"/></g><path d="M 489,224.046875 L 496,221.546875 L 496,226.546875 Z" transform="rotate(-90 489 224.046875)" class="arrow" style="fill:rgb(48, 48, 48);stroke-linejoin:miter;stroke-miterlimit:2;"/></g><g id="sprotty_dependencies$project:sm4_flow2/FileNodeImpl$transform_for_key_exp.v_to_dependencies$project:sm4_flow2/FileNodeImpl$sbox_replace.v" class="sprotty-edge dependency" style="fill:none;stroke:rgb(48, 48, 48);stroke-linejoin:round;"><g><path d=" M489,268.0625 L489,283.0625 L121,283.0625 L121,298.0625"/><path d=" M489,268.0625 L489,283.0625 L121,283.0625 L121,298.0625" class="clickable" style="cursor:default;"/></g><path d="M 121,298.0625 L 128,295.5625 L 128,300.5625 Z" transform="rotate(-90 121 298.0625)" class="arrow" style="fill:rgb(48, 48, 48);stroke-linejoin:miter;stroke-miterlimit:2;"/></g><g id="sprotty_dependencies$project:sm4_flow2/FileNodeImpl$sm4_encdec.sv_to_dependencies$project:sm4_flow2/FileNodeImpl$one_round_for_encdec.v" class="sprotty-edge dependency" style="fill:none;stroke:rgb(48, 48, 48);stroke-linejoin:round;"><g><path d=" M111,130.03125 L111,160.03125"/><path d=" M111,130.03125 L111,160.03125" class="clickable" style="cursor:default;"/></g><path d="M 111,160.03125 L 118,157.53125 L 118,162.53125 Z" transform="rotate(-90 111 160.03125)" class="arrow" style="fill:rgb(48, 48, 48);stroke-linejoin:miter;stroke-miterlimit:2;"/></g><g id="sprotty_dependencies$project:sm4_flow2/FileNodeImpl$key_expansion.sv_to_dependencies$project:sm4_flow2/FileNodeImpl$one_round_for_key_exp.v" class="sprotty-edge dependency" style="fill:none;stroke:rgb(48, 48, 48);stroke-linejoin:round;"><g><path d=" M489,130.03125 L489,160.03125"/><path d=" M489,130.03125 L489,160.03125" class="clickable" style="cursor:default;"/></g><path d="M 489,160.03125 L 496,157.53125 L 496,162.53125 Z" transform="rotate(-90 489 160.03125)" class="arrow" style="fill:rgb(48, 48, 48);stroke-linejoin:miter;stroke-miterlimit:2;"/></g><g id="sprotty_dependencies$project:sm4_flow2/FileNodeImpl$key_expansion.sv_to_dependencies$project:sm4_flow2/FileNodeImpl$get_cki.v" class="sprotty-edge dependency" style="fill:none;stroke:rgb(48, 48, 48);stroke-linejoin:round;"><g><path d=" M479,130.03125 L479,145.03125 L298,145.03125 L298,160.03125"/><path d=" M479,130.03125 L479,145.03125 L298,145.03125 L298,160.03125" class="clickable" style="cursor:default;"/></g><path d="M 298,160.03125 L 305,157.53125 L 305,162.53125 Z" transform="rotate(-90 298 160.03125)" class="arrow" style="fill:rgb(48, 48, 48);stroke-linejoin:miter;stroke-miterlimit:2;"/></g><g id="sprotty_dependencies$project:sm4_flow2/FileNodeImpl$one_round_for_encdec.v_to_dependencies$project:sm4_flow2/FileNodeImpl$transform_for_encdec.v" class="sprotty-edge dependency" style="fill:none;stroke:rgb(48, 48, 48);stroke-linejoin:round;"><g><path d=" M111,204.046875 L111,224.046875"/><path d=" M111,204.046875 L111,224.046875" class="clickable" style="cursor:default;"/></g><path d="M 111,224.046875 L 118,221.546875 L 118,226.546875 Z" transform="rotate(-90 111 224.046875)" class="arrow" style="fill:rgb(48, 48, 48);stroke-linejoin:miter;stroke-miterlimit:2;"/></g><g id="sprotty_dependencies$project:sm4_flow2/FileNodeImpl$transform_for_encdec.v_to_dependencies$project:sm4_flow2/FileNodeImpl$sbox_replace.v" class="sprotty-edge dependency" style="fill:none;stroke:rgb(48, 48, 48);stroke-linejoin:round;"><g><path d=" M111,268.0625 L111,298.0625"/><path d=" M111,268.0625 L111,298.0625" class="clickable" style="cursor:default;"/></g><path d="M 111,298.0625 L 118,295.5625 L 118,300.5625 Z" transform="rotate(-90 111 298.0625)" class="arrow" style="fill:rgb(48, 48, 48);stroke-linejoin:miter;stroke-miterlimit:2;"/></g></g></svg>