<svg xmlns="http://www.w3.org/2000/svg" id="sprotty_root" class="sprotty-graph sprotty-state-machine statemachine" style="font-family:&quot;Noto Sans&quot;, Helvetica, Arial, sans-serif;-webkit-locale:&quot;en&quot;;perspective-origin:0px 0px;transform-origin:0px 0px;" version="1.1" viewBox="10 10 169.90625 158.03125" width="169.90625" height="158.03125"><g transform="scale(1) translate(0,0)"><g id="sprotty_fsm$current" class="statemachine" transform="translate(15, 15)"><g class="sprotty-block" style="fill:rgb(255, 255, 255);stroke:rgb(48, 48, 48);stroke-dasharray:0px;"><rect x="0" y="0" rx="1" ry="1" width="159.90625" height="148.03125"/><text x="79.953125" y="12" class="sprotty-block-name" style="cursor:pointer;font-weight:700;perspective-origin:53.5104px 0px;fill:rgb(48, 48, 48);stroke:rgba(0, 0, 0, 0);dominant-baseline:middle;text-anchor:middle;">current</text><line x1="0" y1="20" x2="159.90625" y2="20"/></g><g id="sprotty_fsm$current/state$IDLE" class="state" transform="translate(57.0625, 96.015625)"><ellipse cx="22.890625" cy="20.0078125" rx="22.890625" ry="20.0078125" class="sprotty-node clickable" style="fill:rgb(255, 255, 255);stroke:rgb(48, 48, 48);"/><text class="clickable sprotty-label state" id="sprotty_fsm$current/state$IDLE/label" transform="translate(6, 8) translate(16.890625, 18.671875)" style="cursor:default;perspective-origin:0px 0px;fill:rgb(48, 48, 48);text-anchor:middle;">IDLE</text></g><g id="sprotty_fsm$current/state$KEY_EXPANSION" class="state" transform="translate(12, 36)"><ellipse cx="67.953125" cy="20.0078125" rx="67.953125" ry="20.0078125" class="sprotty-node clickable" style="fill:rgb(255, 255, 255);stroke:rgb(48, 48, 48);"/><text class="clickable sprotty-label state" id="sprotty_fsm$current/state$KEY_EXPANSION/label" transform="translate(6, 8) translate(61.953125, 18.671875)" style="cursor:default;perspective-origin:0px 0px;fill:rgb(48, 48, 48);text-anchor:middle;">KEY_EXPANSION</text></g><g id="sprotty_fsm$current/state$IDLE_to_fsm$current/state$KEY_EXPANSION" class="sprotty-edge transition" style="fill:none;stroke:rgb(48, 48, 48);stroke-linejoin:round;"><g><path d=" M87.58333333333334,96.015625 C95.09375,86.015625 102.60416666666667,76.015625 102.60416666666667,76.015625"/><path d=" M87.58333333333334,96.015625 C95.09375,86.015625 102.60416666666667,76.015625 102.60416666666667,76.015625" class="clickable"/></g><path d="M 102.60416666666667,76.015625 L 109.60416666666667,73.515625 L 109.60416666666667,78.515625 Z" transform="rotate(126.9080757374871 102.60416666666667 76.015625)" class="arrow" style="fill:rgb(48, 48, 48);stroke-linejoin:miter;stroke-miterlimit:2;"/></g><g id="sprotty_fsm$current/state$KEY_EXPANSION_to_fsm$current/state$IDLE" class="sprotty-edge transition" style="fill:none;stroke:rgb(48, 48, 48);stroke-linejoin:round;"><g><path d=" M57.302083333333336,76.015625 C57.302083333333336,76.015625 64.8125,86.015625 72.32291666666667,96.015625"/><path d=" M57.302083333333336,76.015625 C57.302083333333336,76.015625 64.8125,86.015625 72.32291666666667,96.015625" class="clickable"/></g><path d="M 72.32291666666667,96.015625 L 79.32291666666667,93.515625 L 79.32291666666667,98.515625 Z" transform="rotate(-126.9080757374871 72.32291666666667 96.015625)" class="arrow" style="fill:rgb(48, 48, 48);stroke-linejoin:miter;stroke-miterlimit:2;"/></g></g></g></svg>